<?xml version="1.0" encoding="utf-8"?>
<!-- Generator: Adobe Illustrator 24.1.2, SVG Export Plug-In . SVG Version: 6.00 Build 0)  -->
<svg version="1.1" id="Layer_1" xmlns="http://www.w3.org/2000/svg" xmlns:xlink="http://www.w3.org/1999/xlink" x="0px" y="0px"
	 viewBox="0 0 231.8 68.2" style="enable-background:new 0 0 231.8 68.2;" xml:space="preserve">
<style type="text/css">
	.st0{fill:#F6CCA8;}
	.st1{fill:#90D0D3;}
	.st2{fill:#F4C29D;}
	.st3{fill:#EFBB97;}
	.st4{fill:#E8B18B;}
	.st5{fill:#356272;}
	.st6{fill:#274C68;}
	.st7{fill:#ED5448;}
	.st8{fill:#FF6347;}
	.st9{fill:#F4F4F4;}
	.st10{fill:#9B9D9E;}
	.st11{fill:#E2E2E2;}
	.st12{fill:#0D3D4C;}
	.st13{fill:#BABABA;}
	.st14{fill:#F05F53;}
	.st15{fill:#D6D6D6;}
	.st16{fill:#4B7487;}
	.st17{fill:#F4C8A6;}
	.st18{fill:#F2BC97;}
	.st19{fill:#EFD3BF;}
	.st20{fill:#F9EBE1;}
	.st21{fill:#F4EAE4;}
	.st22{fill:#EFB892;}
	.st23{fill:#E5B28F;}
	.st24{fill:#F7D0B0;}
	.st25{fill:#F9D5B4;}
	.st26{fill:url(#SVGID_1_);}
	.st27{fill:#DDA885;}
	.st28{fill:#E8B795;}
	.st29{fill:#5D616D;}
	.st30{fill:url(#SVGID_2_);}
	.st31{fill:#444750;}
	.st32{fill:#CE4741;}
	.st33{fill:#FFFFFF;}
	.st34{fill:url(#SVGID_3_);}
	.st35{fill:url(#SVGID_4_);}
	.st36{fill:url(#SVGID_5_);}
</style>
<g>
	<g>
		<g>
			<g>
				<g>
					<path class="st0" d="M24.6,24.8c-0.2-0.2-0.5-0.4-0.8-0.5c-0.4-0.1-1.5-0.2-1.8-0.2c-0.2,0-0.3,0-0.5,0.1
						c-0.1,0.1-0.2,0.1-0.3,0.3c-0.2,0.2-0.3,0.3-0.4,0.5c-0.3,0.4-0.3,0.5-0.5,0.7c-0.1,0.2-0.1,0.3-0.2,0.4c0,0.1,0,0.1,0,0.4
						c0,0.3,0,0.4,0,0.5c0,0.1,0,0.1,0,0.2c0,0.1,0,0.2,0,0.2c-0.1,0.2-0.1,0.3-0.1,0.4c0,0,0,0.1,0,0.1c0.2,0.1,0.5,0.1,0.6-0.1
						c0.1-0.1,0.2-0.3,0.2-0.9c0-0.3-0.2-0.6-0.1-0.8c0-0.1,0.2-0.3,0.3-0.3c0.2-0.2,0.4-0.4,0.5-0.6c0.1-0.2,0.1-0.4,0.2-0.5
						c0.1-0.1,0.2-0.1,0.3-0.1c0.4,0,0.7,0.1,1,0.1c0.1,0,0.5,0.1,0.9,0.2c0.1,0,0.2,0,0.4,0.1c0,0,0.1,0.1,0.2,0.1
						c0.1,0.1,0.2,0.3,0.2,0.6c0-0.1,0-0.1,0-0.2C24.8,25.5,24.8,25.1,24.6,24.8z"/>
					<polygon class="st1" points="24.3,26.3 24.3,26.3 24.3,26.3 					"/>
					<path class="st2" d="M24.5,23.2c-0.1,0.1-0.3,0.5-0.5,0.7c-0.1,0.1-0.3,0.3-0.3,0.3c-0.1,0.1-0.1,0.1-0.3,0c-0.3,0-0.2,0-0.5,0
						c-0.5-0.1-0.5-0.2-0.9-0.2c-0.2,0-0.3,0-0.5,0.1c-0.1,0.1-0.2,0.1-0.3,0.3c-0.2,0.2-0.3,0.3-0.4,0.5c-0.3,0.4-0.3,0.5-0.5,0.7
						c-0.1,0.2-0.1,0.3-0.2,0.4c0,0.1,0,0.1,0,0.4c0.1,0.5,0,0.6,0,0.6c-0.1,0.1-0.1,0.1-0.3,0.2c-0.3,0.1-0.6,0.5-0.6,0.9
						c0,0.2,0.1,0.4,0.3,0.4c0.1,0.1,0.2,0,0.4,0c0.2,0,0.4-0.1,0.5-0.2c0,0,0.1-0.1,0.1,0c0,0,0,0.2,0,0.3c0,0,0,0.3,0.3,0.4
						c0.1,0.1,0.3,0.1,0.4,0.1c0.2,0,0.2-0.1,0.3-0.1c0.1,0,0.1,0.1,0.2,0.2c0,0,0.2,0.2,0.4,0.2c0.2,0,0.3-0.2,0.5-0.1
						c0.1,0,0.1,0.1,0.2,0.2c0.2,0.1,0.4,0.2,0.5,0.2c0.3,0,0.4-0.3,0.6-0.5c0.1-0.1,0.2-0.1,0.3-0.1c0.2,0,0.5-0.2,0.9-0.4
						c0.5-0.3,0.7-0.7,1-1.2c0.3-0.5,0.3-0.7,0.7-1.7c0.1-0.4,0.3-0.9,0.6-1.4c0.4-0.8,0.6-1,1.1-2c0.1-0.3,0.2-0.4,0.3-0.6l-1.5-2
						C27.3,20.2,25,22.9,24.5,23.2z"/>
					<path class="st3" d="M24.6,27.8c-0.1-0.1-0.2-0.2-0.2-0.4c-0.1-0.2,0-0.4,0-0.4c-0.1-0.5-0.8-0.8-3.5-2c0,0,0,0.1-0.1,0.1
						c-0.3,0.4-0.3,0.5-0.5,0.7c-0.1,0.2-0.1,0.3-0.2,0.4c0,0.1,0,0.1,0,0.4c0.1,0.5,0,0.6,0,0.6c-0.1,0.1-0.1,0.1-0.3,0.2
						c-0.3,0.1-0.6,0.5-0.6,0.9c0,0.2,0.1,0.4,0.3,0.4c0.1,0.1,0.2,0,0.4,0c0.2,0,0.4-0.1,0.5-0.2c0,0,0.1-0.1,0.1,0
						c0,0,0,0.2,0,0.3c0,0,0,0.3,0.3,0.4c0.1,0.1,0.3,0.1,0.4,0.1c0.2,0,0.2-0.1,0.3-0.1c0.1,0,0.1,0.1,0.2,0.2c0,0,0.2,0.2,0.4,0.2
						c0.2,0,0.3-0.2,0.5-0.1c0.1,0,0.1,0.1,0.2,0.2c0.2,0.1,0.4,0.2,0.5,0.2c0.3,0,0.4-0.3,0.6-0.5c0.1-0.1,0.2-0.1,0.3-0.1
						c0.1-0.1,0.2-0.3,0.2-0.4C24.6,28.5,24.7,28.1,24.6,27.8z"/>
					<path class="st4" d="M24.5,28.2L24.5,28.2c0-0.1,0-0.2,0-0.3c0,0,0-0.1-0.1-0.1c-0.1-0.1-0.1-0.2-0.2-0.3
						c-0.1-0.2-0.1-0.3-0.1-0.4c0,0,0,0,0,0c0-0.4-0.7-0.7-3-1.7l-0.3-0.1c-0.1,0.1-0.1,0.1-0.1,0.2c-0.2,0.2-0.2,0.3-0.3,0.5
						c-0.1,0.2-0.1,0.3-0.1,0.4l0,0c0,0,0,0.1,0,0.2c0,0,0,0.1,0,0.2c0,0.3,0,0.4,0,0.5c0,0.1,0,0.1-0.1,0.2
						c-0.1,0.1-0.2,0.1-0.2,0.2c0,0-0.1,0-0.1,0c-0.2,0.1-0.5,0.4-0.5,0.6c0,0,0,0,0,0.1c0,0.1,0.1,0.3,0.2,0.3c0.1,0,0.1,0,0.3,0
						c0.2,0,0.4-0.1,0.5-0.2l0,0c0,0,0.1-0.1,0.2-0.1c0.1,0,0.1,0.2,0.1,0.3c0,0,0,0.1,0,0.2c0,0.1,0.1,0.3,0.2,0.3
						c0.1,0.1,0.2,0.1,0.3,0.1c0,0,0.1,0,0.1-0.1c0.1,0,0.1-0.1,0.3-0.1c0.1,0,0.1,0.1,0.2,0.2c0,0,0,0.1,0.1,0.1
						c0,0,0.1,0.1,0.3,0.2c0.1,0,0.1,0,0.2,0c0.1,0,0.2-0.1,0.3-0.1c0.1,0,0.1,0.1,0.2,0.1c0,0,0.1,0.1,0.1,0.1
						c0.2,0.1,0.4,0.1,0.4,0.1c0.2,0,0.3-0.2,0.4-0.3c0-0.1,0,0.1,0.1,0.1c0.1-0.1,0.2-0.2,0.3-0.2c0.1-0.1,0.2-0.4,0.2-0.5
						C24.4,28.5,24.5,28.3,24.5,28.2z"/>
					<g>
						<path d="M20.7,27.1c0,0-0.1,0-0.1,0c-0.1,0-0.1,0-0.2,0.1c0,0-0.1,0-0.2,0l0,0l0,0c0,0,0,0,0,0c0,0.1,0,0.2,0,0.2
							c0,0.1,0,0.1-0.1,0.2c0,0.1,0,0.1,0,0.2c0,0,0,0,0,0c0,0,0,0,0,0l0,0l0,0c0,0,0.1,0,0.1,0.1c0.1,0,0.2,0,0.3-0.1
							c0.1-0.1,0.2-0.2,0.2-0.2c0-0.1,0.1-0.2,0.1-0.2C20.7,27.2,20.7,27.1,20.7,27.1z M20.5,27.8c-0.1,0-0.1,0.1-0.2,0.1
							c0,0-0.1,0-0.1,0c0,0,0,0,0,0c0,0,0,0,0,0c0-0.1,0-0.1,0-0.2c0,0,0-0.1,0.1-0.2c0,0,0-0.1,0-0.2c0,0,0,0,0,0
							c0.1,0,0.1,0,0.2,0c0.1,0,0.1,0,0.2-0.1c0.1,0,0.1,0,0.1,0c0.1,0,0.1,0.3,0,0.4C20.6,27.6,20.6,27.8,20.5,27.8z"/>
					</g>
					<g>
						<path d="M22.4,28.2L22.4,28.2L22.4,28.2C22.4,28.2,22.4,28.2,22.4,28.2L22.4,28.2L22.4,28.2C22.4,28.2,22.4,28.2,22.4,28.2
							C22.4,28.2,22.4,28.2,22.4,28.2c0,0,0.1-0.1,0.1-0.2l0,0C22.5,28,22.4,28.1,22.4,28.2z"/>
					</g>
					<g>
						<g>
							<path class="st5" d="M22.6,26c-0.7-0.3-1.5-0.2-2.3,0.4c-0.9,0.6-1.8,1.7-2.5,3.1c-0.2,0.4-0.6,1.2-0.9,2.1
								c0,0.1,0,0.2,0.1,0.3c0.1,0,0.2,0,0.3-0.1c0.3-0.9,0.7-1.6,0.9-2c1.6-3,3.3-3.8,4.3-3.4c1.2,0.6,1.6,3.1-0.2,7.4
								c0,0.1,0,0.2,0.1,0.3l0,0c0.1,0,0.2,0,0.3-0.1C24.5,29.4,24,26.6,22.6,26z"/>
						</g>
						<path class="st6" d="M23.1,31.4c0.3-1,0.3-1.8,0.4-2c0.1-0.7,0-1.1,0-1.3c-0.1-0.6-0.2-1-0.3-1.1c-0.1-0.2-0.2-0.5-0.5-0.7
							c-0.3-0.2-0.7-0.2-0.8-0.2c-0.2,0-0.4,0-0.5,0.1c-0.1,0-0.3,0.1-0.6,0.3c-0.2,0.1-0.3,0.2-0.5,0.4c-0.1,0.1-0.3,0.2-0.5,0.5
							c-0.1,0.1-0.3,0.3-0.7,0.8c-0.2,0.2-0.4,0.5-0.7,1c-0.1,0.2-0.5,0.9-0.9,1.9c-0.1,0.3-0.2,0.6-0.3,0.9c0.1,0,0.2-0.1,0.2-0.1
							c0.3-0.9,0.7-1.6,0.9-2c1.6-3,3.3-3.8,4.3-3.4c1.2,0.6,1.6,3.1-0.2,7.4c0,0.1,0,0.2,0,0.2c0.1-0.3,0.2-0.6,0.4-1
							C22.8,32.3,23,32,23.1,31.4z"/>
					</g>
					<polygon class="st7" points="14.6,28.2 13.3,31.2 25.4,36.3 26.7,33.3 					"/>
					<polygon class="st8" points="13.7,29.4 7,43.6 20.9,49.4 26.3,34.7 					"/>
					<path class="st7" d="M23.9,33.6c-0.2,0.8-0.4,1.6-0.6,2.2c-0.3,1-0.6,1.7-1.2,3.2c-0.3,0.9-0.6,1.5-1.1,2.2
						c-0.4,0.6-0.8,1.2-1.5,1.5c-0.7,0.3-1.4,0.3-1.7,0.3c-0.9-0.1-2.5-0.7-6.3-2.3c-0.7-0.3-1.7-0.7-2.7-1.2L7,43.6l13.9,5.8
						l5.5-14.8L23.9,33.6z"/>
					<path class="st9" d="M23.7,32.8l3,0.5l-12.1-5l2.5,1.8c0,0-3.3-0.8-3.3-0.7c-0.1,0.2,12.5,5.4,12.6,5.3
						C26.4,34.6,23.7,32.8,23.7,32.8z"/>
					<g>
						<path class="st10" d="M17,31.7c-0.3-0.1-0.6,0-0.8,0.3c-0.1,0.3,0,0.6,0.3,0.8c0.3,0.1,0.6,0,0.8-0.3S17.3,31.8,17,31.7z
							 M16.7,32.5c-0.1-0.1-0.2-0.2-0.1-0.3c0.1-0.1,0.2-0.2,0.3-0.1c0.1,0.1,0.2,0.2,0.1,0.3C17,32.5,16.8,32.5,16.7,32.5z"/>
					</g>
					<path class="st11" d="M25,34l-1.7-1.1c-0.1-0.1-5.9-2.5-6-2.5l-1.9-0.4c-0.1,0-0.2,0.1,0,0.2c2.8,1.2,6.9,2.9,9.6,4
						C25,34.2,25.1,34.1,25,34z"/>
					<path class="st12" d="M16.9,31.9c-0.2-0.1-0.3,0-0.4,0.2c-0.1,0.2,0,0.3,0.2,0.4c0.2,0.1,0.3,0,0.4-0.2
						C17.1,32.1,17,32,16.9,31.9z"/>
					<g>
						<path class="st10" d="M22.5,34c-0.3-0.1-0.6,0-0.8,0.3s0,0.6,0.3,0.8c0.3,0.1,0.6,0,0.8-0.3C22.9,34.5,22.8,34.1,22.5,34z
							 M22.2,34.8C22,34.7,22,34.5,22,34.4c0.1-0.1,0.2-0.2,0.4-0.1s0.2,0.2,0.1,0.3S22.3,34.8,22.2,34.8z"/>
					</g>
					<circle class="st12" cx="22.2" cy="34.5" r="0.3"/>
					<g>
						<path class="st13" d="M17,31.7c-0.3-0.1-0.6,0-0.7,0.3c-0.1,0.3,0,0.6,0.3,0.7c0.3,0.1,0.6,0,0.7-0.3
							C17.4,32.1,17.3,31.8,17,31.7z M16.7,32.4c-0.1-0.1-0.2-0.2-0.1-0.3c0.1-0.1,0.2-0.2,0.3-0.1c0.1,0.1,0.2,0.2,0.1,0.3
							C17,32.4,16.8,32.5,16.7,32.4z"/>
					</g>
					<g>
						<path class="st13" d="M22.4,34c-0.3-0.1-0.6,0-0.7,0.3s0,0.6,0.3,0.7c0.3,0.1,0.6,0,0.7-0.3C22.9,34.4,22.7,34.1,22.4,34z
							 M22.1,34.7C22,34.6,22,34.5,22,34.4c0.1-0.1,0.2-0.2,0.3-0.1c0.1,0.1,0.2,0.2,0.1,0.3C22.4,34.7,22.3,34.7,22.1,34.7z"/>
					</g>
					<g>
						<g>
							<path class="st14" d="M14.6,28.2c0,0,0.5,0.4,0.5,0.4l11,4.5c0,0,0.7,0.1,0.6,0.1L14.6,28.2z"/>
						</g>
					</g>
					<path class="st15" d="M16.5,32.3c0-0.1-0.1-0.1-0.2-0.1c-0.1,0-0.1,0.1,0,0.2c0,0.1,0.1,0.1,0.2,0.1
						C16.5,32.4,16.5,32.3,16.5,32.3z"/>
					<path class="st15" d="M21.9,34.5c0-0.1-0.1-0.1-0.2-0.1c-0.1,0-0.1,0.1,0,0.2c0,0.1,0.1,0.1,0.2,0.1C22,34.7,22,34.6,21.9,34.5
						z"/>
					<g>
						<g>
							<path class="st16" d="M22.4,26.6c-0.7-0.3-1.5-0.2-2.4,0.4c-0.9,0.6-1.8,1.6-2.5,3c-0.2,0.4-0.6,1.1-0.9,2
								c0,0.1,0,0.2,0.1,0.3l0,0c0.1,0,0.2,0,0.3-0.1c0.3-0.9,0.7-1.5,0.9-1.9c1.6-2.9,3.3-3.7,4.3-3.2c1.2,0.6,1.7,3.1-0.1,7.3
								c0,0.1,0,0.2,0.1,0.3l0,0c0.1,0,0.2,0,0.3-0.1C24.4,30,23.8,27.3,22.4,26.6z"/>
						</g>
						<path class="st6" d="M23,32c0.3-1,0.3-1.7,0.3-1.9c0-0.7,0-1.1,0-1.3c-0.1-0.6-0.3-0.9-0.3-1c-0.1-0.2-0.3-0.5-0.6-0.7
							c-0.4-0.2-0.7-0.2-0.8-0.3c-0.2,0-0.4,0-0.5,0.1c-0.1,0-0.3,0.1-0.6,0.3c-0.2,0.1-0.4,0.2-0.5,0.3c-0.1,0.1-0.3,0.2-0.5,0.5
							c-0.1,0.1-0.3,0.3-0.7,0.7c-0.2,0.2-0.4,0.5-0.7,1c-0.1,0.2-0.5,0.8-0.9,1.8c-0.1,0.3-0.2,0.6-0.3,0.9c0.1,0,0.2-0.1,0.2-0.1
							c0.3-0.9,0.7-1.5,0.9-1.9c1.6-2.9,3.3-3.7,4.3-3.2c1.2,0.6,1.7,3.1-0.1,7.3c0,0.1,0,0.2,0.1,0.2c0.1-0.3,0.2-0.6,0.4-1
							C22.8,32.9,22.9,32.5,23,32z"/>
					</g>
					<path class="st2" d="M22.4,28.2C22.4,28.2,22.4,28.2,22.4,28.2C22.4,28.2,22.4,28.2,22.4,28.2z"/>
					<path class="st2" d="M24.3,28.1c0-0.2,0-0.3-0.1-0.4c-0.1-0.1-0.2-0.1-0.2-0.1c0,0,0-0.1,0-0.1c0,0,0-0.2,0-0.3
						c0-0.2-0.2-0.3-0.2-0.3c0,0-0.2-0.1-0.3,0c-0.1,0-0.1,0.1-0.2,0.1c-0.1,0.1-0.1,0.2-0.2,0.2c0,0-0.1,0-0.1,0.1
						c-0.1,0-0.1,0.1-0.1,0.1c-0.1,0.1-0.1,0.2-0.1,0.2c-0.1,0.1-0.1,0.1-0.2,0.3c0,0-0.1,0.1-0.1,0.1c-0.1,0.1-0.1,0.2-0.1,0.2
						c0,0,0,0,0,0s0,0,0,0c0,0,0-0.1,0.1-0.2c0.1-0.1,0.1-0.3,0.2-0.5c0-0.1,0.1-0.2,0.1-0.4c0-0.1,0.1-0.2,0.1-0.4
						c0-0.1,0-0.1,0-0.1c-0.1-0.2-0.2-0.2-0.4-0.3c-0.3,0-0.5,0.1-0.5,0.2c-0.1,0.1-0.1,0.2-0.2,0.3c-0.1,0.2-0.2,0.4-0.2,0.5
						c0,0.1-0.1,0.3-0.2,0.3c0,0,0,0-0.1,0c-0.1,0-0.1,0-0.1,0c0,0,0-0.1,0-0.2c0-0.1,0.1-0.2,0.1-0.3c0-0.1,0-0.1,0.1-0.2
						c0-0.1,0.1-0.4-0.1-0.6c0,0-0.1-0.1-0.2-0.1c-0.2,0-0.4,0.3-0.6,0.5c-0.1,0.1-0.2,0.2-0.4,0.3c0,0,0,0,0,0
						c-0.1,0.1-0.1,0.1-0.3,0.2c-0.3,0.1-0.6,0.5-0.6,0.9c0,0.2,0.1,0.4,0.3,0.4c0.1,0.1,0.2,0,0.4,0c0.2,0,0.4-0.1,0.5-0.2
						c0,0,0.1-0.1,0.1,0c0,0,0,0.2,0,0.3c0,0,0,0.3,0.3,0.4c0.1,0.1,0.3,0.1,0.4,0.1c0.2,0,0.2-0.1,0.3-0.1c0.1,0,0.1,0.1,0.2,0.2
						c0,0,0.2,0.2,0.4,0.2c0.2,0,0.3-0.2,0.5-0.1c0.1,0,0.1,0.1,0.2,0.2c0.2,0.1,0.4,0.2,0.5,0.2c0.3,0,0.4-0.3,0.6-0.5c0,0,0,0,0,0
						c0-0.1,0.1-0.1,0.1-0.2c0.2-0.3,0.2-0.3,0.2-0.5C24.4,28.4,24.4,28.2,24.3,28.1z"/>
					<path class="st17" d="M22.7,27.2c0-0.2-0.2-0.3-0.4-0.4c0,0-0.3,0-0.4,0.1c-0.1,0.1,0,0.2-0.2,0.6c-0.1,0.1-0.1,0.2-0.2,0.3
						c-0.1,0.1-0.3,0.1-0.3,0.1c0,0-0.1,0-0.1,0c0,0-0.1,0.1-0.1,0.1c-0.1,0.1-0.2,0.3-0.3,0.4c0,0.1-0.1,0.1-0.2,0.2c0,0,0,0,0,0
						c0,0,0,0.3,0.3,0.4c0.1,0.1,0.3,0.1,0.4,0.1c0.1,0,0.2-0.1,0.3-0.1c0-0.1,0.1-0.1,0.1-0.1c0,0,0.1-0.1,0.2-0.2
						c0,0,0.1-0.1,0.1-0.1c0.1-0.1,0.1-0.2,0.1-0.3c0-0.1,0.1-0.2,0.2-0.4c0.1-0.2,0.1-0.2,0.2-0.3c0-0.1,0.1-0.2,0.1-0.3
						C22.7,27.3,22.7,27.3,22.7,27.2z"/>
					<path class="st18" d="M21.3,27.4c0-0.1,0.1-0.2,0.1-0.3c0-0.1,0.1-0.4-0.1-0.6c-0.3,0.1-0.9,0.4-1.2,0.7
						c-0.1,0.2-0.2,0.6-0.1,0.8c0.2,0.4,0.8,0,0.9-0.1c0.1-0.1,0.3-0.2,0.3-0.3C21.3,27.6,21.2,27.5,21.3,27.4z"/>
					<path class="st19" d="M22.6,26.3c-0.1,0-0.2,0-0.2,0c0,0.1-0.1,0.1-0.1,0.2c-0.1,0.1-0.1,0.3-0.1,0.4c0,0.1,0.1,0.1,0.1,0.1
						c0,0,0.1,0.1,0.2,0.1c0,0,0.1,0,0.2,0c0,0,0.1-0.2,0.2-0.3c0-0.1,0.1-0.1,0.1-0.2C22.8,26.4,22.7,26.4,22.6,26.3z"/>
					<path class="st20" d="M22.5,27c-0.1,0-0.1,0-0.2,0c0,0-0.1,0-0.1,0c0,0,0.1,0.1,0.1,0.1c0,0,0.1,0.1,0.2,0.1c0,0,0.1,0,0.1,0
						C22.5,27.1,22.5,27,22.5,27z"/>
					<path class="st20" d="M22.6,26.3c-0.1,0-0.2,0-0.2,0c0,0-0.1,0.1-0.1,0.1c0.1,0,0.2,0,0.3,0c0.1,0,0.2,0.1,0.3,0.2
						c0,0,0-0.1,0.1-0.1C22.8,26.4,22.7,26.4,22.6,26.3z"/>
					<path class="st19" d="M23.8,26.9c-0.1-0.1-0.1-0.2-0.2-0.2c0,0,0,0-0.2,0.3c0,0.1-0.1,0.1-0.1,0.2c0,0.1,0,0.1,0,0.2
						c0,0.1,0.1,0.2,0.1,0.2c0,0,0.1,0.1,0.2,0.1c0,0,0.4-0.3,0.4-0.4C23.9,27.1,23.9,27,23.8,26.9z"/>
					<path class="st20" d="M23.2,27.3C23.2,27.3,23.2,27.3,23.2,27.3c0,0.1,0.1,0.2,0.1,0.2c0,0,0,0,0.1,0.1c0-0.1,0-0.1,0-0.2
						C23.4,27.3,23.3,27.3,23.2,27.3z"/>
					<path class="st20" d="M23.8,26.9c-0.1-0.1-0.1-0.2-0.2-0.2c0,0,0,0-0.1,0.1C23.6,26.8,23.7,26.9,23.8,26.9c0,0.2,0,0.3,0,0.3
						c0,0,0.1-0.1,0.1-0.1C23.9,27.1,23.9,27,23.8,26.9z"/>
					<path class="st19" d="M23.9,27.7c-0.1,0.1-0.1,0.1-0.1,0.2C23.8,28,23.7,28,23.7,28c0,0.1,0.1,0.2,0.2,0.1c0,0,0.1,0,0.1-0.1
						c0.1-0.1,0.1-0.1,0.1-0.2C24.2,27.7,24,27.5,23.9,27.7z"/>
					<path class="st21" d="M24,27.7c0,0,0.1,0,0.1,0.1c0.1,0.1,0.1,0.1,0.1,0.2c0,0,0,0,0-0.1C24.2,27.7,24.1,27.5,24,27.7z"/>
					<path class="st22" d="M21.3,27.6L21.3,27.6L21.3,27.6c-0.1,0-0.2,0.1-0.2,0.2c0,0-0.1,0.1-0.1,0.1c0,0-0.1,0.1-0.1,0.1
						c0,0.1-0.1,0.1-0.1,0.1c0,0,0,0.1-0.1,0.1c0,0,0,0-0.1,0.1c0,0,0,0.1-0.1,0.1c0.1,0,0.1,0,0.1,0.1l0,0c0,0,0.1-0.1,0.1-0.1
						c0,0,0.1-0.1,0.1-0.1c0-0.1,0.1-0.1,0.1-0.2l0,0C21,28.1,21,28.1,21,28c0,0,0.1-0.1,0.2-0.2C21.2,27.8,21.2,27.7,21.3,27.6
						L21.3,27.6L21.3,27.6C21.3,27.7,21.3,27.7,21.3,27.6z"/>
					<path class="st23" d="M21.3,27.7C21.2,27.7,21.2,27.7,21.3,27.7c-0.1,0-0.2,0.1-0.2,0.2c0,0-0.1,0.1-0.1,0.1
						c-0.1,0.1-0.1,0.2-0.2,0.2c-0.1,0.1-0.1,0.1-0.1,0.2c0,0,0,0-0.1,0.1c0,0,0,0,0,0c0,0,0,0,0,0.1c0,0,0,0,0.1-0.1
						c0,0,0.1-0.1,0.1-0.1c0-0.1,0.1-0.1,0.1-0.2C20.9,28.1,21,28,21,28c0-0.1,0.1-0.1,0.2-0.2C21.2,27.8,21.2,27.7,21.3,27.7
						C21.3,27.7,21.3,27.7,21.3,27.7z"/>
					<path class="st22" d="M22.4,28.1C22.4,28.1,22.4,28.1,22.4,28.1L22.4,28.1c-0.1,0.1-0.1,0.1-0.1,0.1l0,0l-0.1,0.2l0,0
						c0,0,0,0.1-0.1,0.1l0,0c0,0,0,0.1,0,0.1l0,0c0,0,0,0.1-0.1,0.1c0,0,0,0,0,0c0,0,0,0,0,0c0,0,0,0,0,0l-0.1,0
						c0,0-0.1,0.1-0.1,0.1c0,0,0,0,0,0c0,0,0,0,0,0c0,0,0,0,0,0c0,0-0.1,0.1-0.1,0.1l0,0c0,0,0.1-0.1,0.1-0.1c0,0,0,0,0,0
						c0,0,0,0,0,0c0,0,0,0,0,0c0,0,0.1,0,0.1-0.1l0.1,0c0,0,0,0,0.1,0c0,0,0,0,0,0c0,0,0,0,0-0.1c0,0,0-0.1,0.1-0.1l0,0
						c0,0,0-0.1,0.1-0.1l0,0c0,0,0-0.1,0.1-0.1l0.1-0.2l0,0c0,0,0,0,0,0C22.4,28.2,22.4,28.2,22.4,28.1c0.1,0.1,0.1-0.1,0.1-0.1
						C22.5,28,22.4,28.1,22.4,28.1z"/>
					<path class="st23" d="M22.4,28.1L22.4,28.1C22.4,28.2,22.4,28.2,22.4,28.1l-0.1,0.1l0,0.1l-0.1,0.1l0,0c0,0,0,0.1-0.1,0.1
						c0,0,0,0.1-0.1,0.1c0,0,0,0.1-0.1,0.1c0,0,0,0,0,0c0,0,0,0,0,0c0,0,0,0,0,0l-0.1,0c0,0-0.1,0-0.1,0.1c0,0,0,0,0,0c0,0,0,0,0,0
						c0,0-0.1,0.1-0.1,0.1c0,0,0.1-0.1,0.1-0.1c0,0,0,0,0,0c0,0,0,0,0,0c0,0,0.1-0.1,0.1-0.1l0.1,0c0,0,0,0,0,0c0,0,0,0,0,0
						c0,0,0,0,0-0.1c0,0,0-0.1,0.1-0.1c0,0,0-0.1,0.1-0.1c0,0,0-0.1,0.1-0.1l0,0l0.1-0.1l0-0.1l0,0C22.4,28.2,22.4,28.2,22.4,28.1
						C22.4,28.2,22.4,28.2,22.4,28.1C22.4,28.1,22.5,28.1,22.4,28.1c0.1-0.1,0.1-0.1,0.1-0.2C22.5,28,22.5,28,22.4,28.1
						C22.4,28.1,22.4,28.1,22.4,28.1z"/>
					<path class="st22" d="M23.8,27.8L23.8,27.8c-0.1,0.2-0.1,0.2-0.2,0.3c0,0,0,0,0,0l-0.1,0.1l0,0c0,0,0,0.1-0.1,0.1c0,0,0,0,0,0
						c0,0,0,0,0,0c0,0-0.1,0.1-0.1,0.1c0,0,0,0.1-0.1,0.1c0,0.1-0.1,0.1-0.1,0.2l0,0c0,0,0,0.1-0.1,0.1c0,0,0,0,0,0.1
						c0,0.1-0.1,0.1-0.1,0.2c0,0,0,0.1-0.1,0.1c0,0,0,0-0.1,0.1c0,0-0.1,0-0.1,0.1c0,0-0.1,0-0.1,0.1c0,0-0.1,0-0.1,0
						c0,0-0.1,0.1-0.1,0.1c0,0,0.1,0,0.2,0c0,0,0.1,0,0.1,0c0,0,0.1,0,0.1-0.1c0,0,0.1,0,0.1-0.1c0,0,0.1-0.1,0.1-0.1
						c0,0,0-0.1,0.1-0.1c0-0.1,0.1-0.1,0.1-0.2c0,0,0,0,0-0.1c0,0,0-0.1,0.1-0.1l0,0c0-0.1,0.1-0.1,0.1-0.2c0,0,0-0.1,0.1-0.1
						c0,0,0-0.1,0.1-0.1c0,0,0,0,0,0c0,0,0,0,0,0c0,0,0,0,0.1-0.1l0,0l0.1-0.1l0,0c0,0,0,0,0,0c0-0.1,0.1-0.1,0.1-0.2L23.8,27.8
						l0.2-0.3C24,27.6,23.8,27.8,23.8,27.8z"/>
					<path class="st23" d="M23.8,27.8L23.8,27.8c-0.1,0.2-0.1,0.2-0.2,0.3c0,0,0,0,0,0l0,0l-0.1,0.1l0,0c0,0,0,0.1-0.1,0.1
						c0,0,0,0-0.1,0.1c0,0-0.1,0-0.1,0.1c0,0,0,0.1-0.1,0.1c0,0.1-0.1,0.1-0.1,0.2c0,0.1-0.1,0.1-0.1,0.2C23,29,23,29,23,29.1
						c0,0,0,0.1-0.1,0.1c0,0,0,0.1-0.1,0.1c0,0-0.1,0-0.1,0.1c0,0-0.1,0-0.1,0.1c0,0-0.1,0-0.1,0c0,0-0.1,0-0.1,0c0,0,0.1,0,0.1,0
						c0,0,0.1,0,0.1,0c0,0,0.1,0,0.1-0.1c0,0,0.1,0,0.1-0.1c0,0,0,0,0.1-0.1c0,0,0-0.1,0.1-0.1c0-0.1,0.1-0.1,0.1-0.2
						c0-0.1,0.1-0.1,0.1-0.2c0-0.1,0.1-0.1,0.1-0.2c0,0,0-0.1,0.1-0.1c0,0,0-0.1,0.1-0.1c0,0,0.1,0,0.1-0.1c0,0,0-0.1,0.1-0.1l0,0
						l0.1-0.1l0,0c0,0,0,0,0,0c0-0.1,0.1-0.1,0.1-0.2L23.8,27.8L23.8,27.8l0.2-0.3C24,27.6,23.9,27.7,23.8,27.8L23.8,27.8z"/>
					<path class="st24" d="M22.1,27.7c-0.1,0-0.2-0.1-0.3,0c-0.1,0.1-0.1,0.2-0.2,0.3c-0.1,0-0.1,0.1-0.2,0.1c-0.1,0-0.1,0-0.2,0.1
						c0,0-0.1,0-0.1,0c-0.1,0-0.1,0.1-0.1,0.2c0,0.1-0.1,0.1-0.1,0.2c-0.1,0.1-0.1,0.1-0.1,0.2c0,0.1,0.2,0.2,0.2,0.3
						c0.1,0.1,0.2,0.1,0.2,0.1c0.1,0,0.2,0,0.2,0c0.1,0,0.1-0.1,0.2-0.1c0.1-0.1,0.2-0.2,0.2-0.2c0-0.1,0.1-0.1,0.1-0.1
						c0.1-0.1,0-0.1,0.1-0.2c0-0.1,0.1-0.1,0.1-0.2c0-0.1,0.1-0.1,0.1-0.2C22.3,27.8,22.1,27.7,22.1,27.7z"/>
					<path class="st17" d="M22.9,28.4c-0.1-0.3-0.1-0.3-0.1-0.4c0,0-0.1-0.1-0.2-0.1c0,0,0,0-0.1,0.1c0,0.1-0.1,0.1-0.1,0.2
						c-0.1,0.1-0.1,0.1-0.1,0.2c-0.1,0.1,0,0.1-0.1,0.2c-0.1,0.1-0.1,0.1-0.1,0.2c0,0-0.1,0.1-0.1,0.1c-0.1,0.1-0.2,0.1-0.2,0.2
						c0,0,0,0,0.1,0.1c0.1,0.1,0.2,0.1,0.3,0.1c0.2,0,0.3-0.1,0.4-0.1c0.2-0.1,0.3-0.3,0.3-0.4c0.1-0.1,0.1-0.2,0.1-0.2
						C23,28.6,23,28.6,22.9,28.4z"/>
					<path class="st17" d="M23.7,28.9c0-0.1-0.1-0.1-0.2-0.1c-0.1-0.1-0.1-0.2-0.2-0.2c0,0,0,0.1-0.1,0.3c-0.1,0.2-0.1,0.2-0.1,0.3
						c0,0.1-0.1,0.1-0.1,0.1c-0.1,0.1-0.2,0.1-0.2,0.1c0,0.1,0.1,0.1,0.1,0.1c0.2,0.1,0.3,0,0.4,0c0.3-0.1,0.4-0.4,0.4-0.5
						C23.7,29,23.7,29,23.7,28.9z"/>
					<path class="st25" d="M24.6,24.8c-0.2-0.2-0.5-0.4-0.8-0.5c-0.1,0.1-0.2,0-0.4,0c-0.3,0-0.2,0-0.5,0c-0.5-0.1-0.5-0.2-0.9-0.2
						c-0.1,0-0.2,0-0.3,0c0,0,0,0.1,0,0.1c0,0.1,0.1,0.1,0.2,0.1c0.2,0,0.4,0.1,0.5,0.1c0.5,0.1,0.4,0.1,0.7,0.1
						c0.2,0,0.3,0,0.5,0.1c0.2,0,0.3,0,0.5,0.1c0,0,0.1,0,0.2,0.1c0.1,0.1,0.3,0.2,0.4,0.4C24.7,25,24.6,24.9,24.6,24.8z"/>
					
						<linearGradient id="SVGID_1_" gradientUnits="userSpaceOnUse" x1="-1140.3348" y1="842.9963" x2="-1143.2595" y2="838.6229" gradientTransform="matrix(0.1964 -0.9806 0.9806 0.1964 -578.0026 -1259.0499)">
						<stop  offset="0" style="stop-color:#F4C29D"/>
						<stop  offset="1" style="stop-color:#F6CCA8"/>
					</linearGradient>
					<path class="st26" d="M22.8,24.3c-0.5-0.1-0.5-0.2-0.9-0.2c-0.2,0-0.3,0-0.5,0.1c-0.1,0.1-0.2,0.1-0.3,0.3
						c-0.2,0.2-0.3,0.3-0.4,0.5c-0.3,0.4-0.3,0.5-0.5,0.7c-0.1,0.2-0.1,0.3-0.2,0.4c0,0.1,0,0.1,0,0.4c0,0.3,0,0.4,0,0.5
						c0,0.1,0,0.1,0,0.2c0,0.1,0,0.2,0,0.2c-0.1,0.2-0.1,0.3-0.1,0.4c0,0.1,0.1,0.2,0.2,0.2c0.1,0.1,0.2,0,0.4-0.1
						c0.1,0,0.2-0.1,0.2-0.1c0.1-0.1,0.1-0.1,0.2-0.3c0.1-0.2,0.1-0.1,0.2-0.2c0.1-0.1,0.1-0.2,0.1-0.4c0-0.2-0.1-0.3,0-0.4
						c0,0,0,0,0.1-0.1c0.1-0.1,0.1-0.2,0.2-0.3c0.1-0.1,0.1-0.1,0.2-0.2c0.1-0.1,0.1-0.1,0.1-0.1c0.1,0,0.1,0,0.2,0.1
						c0,0,0,0,0.3,0.1c0.6,0.3,0.6,0.3,0.7,0.3c0.1,0,0.2,0,0.4,0.1c0.1,0,0.1,0.1,0.2,0.1c0,0,0.2,0.1,0.3,0.1
						c0.2,0,0.5-0.1,0.6-0.3c0.2-0.2,0.2-0.5,0.2-0.7c0-0.1,0-0.5-0.2-0.8c-0.2-0.2-0.5-0.4-0.8-0.5c-0.1,0.1-0.2,0-0.4,0
						C23.1,24.3,23.2,24.3,22.8,24.3z"/>
					<path class="st24" d="M20.8,26.9c0-0.2,0-0.2,0-0.3c0-0.1-0.1-0.1-0.1-0.3c0-0.1,0-0.1,0-0.1c0-0.1,0.1-0.2,0.2-0.2
						c0,0,0.1-0.1,0.3-0.4c0.1-0.1,0.3-0.3,0.4-0.5c0.1-0.3,0.2-0.4,0.2-0.6c-0.1-0.1-0.2-0.2-0.3-0.2c0,0-0.1,0.1-0.2,0.2
						c-0.2,0.2-0.3,0.3-0.4,0.5c-0.3,0.4-0.3,0.5-0.5,0.7c-0.1,0.2-0.1,0.3-0.2,0.4c0,0.1,0,0.1,0,0.4c0,0.3,0,0.4,0,0.5
						c0,0.1,0,0.1,0,0.2c0,0.1,0,0.2,0,0.2c-0.1,0.2-0.1,0.3-0.1,0.4c0,0,0,0.1,0.1,0.1c0.1,0,0.1,0,0.2,0.1c0.2,0,0.3-0.2,0.4-0.2
						c0.1-0.2,0.1-0.2,0.1-0.3C20.8,27.3,20.8,27.2,20.8,26.9z"/>
					<path class="st27" d="M22,25.6C22,25.6,22,25.6,22,25.6c0-0.1,0-0.2,0-0.2c0-0.1,0-0.2-0.1-0.3c0-0.1,0-0.1,0-0.1s0,0,0,0.1
						c0,0.1,0,0.2,0,0.3C22,25.5,22,25.5,22,25.6C22,25.6,22,25.6,22,25.6C22,25.7,22,25.7,22,25.6c0,0.1-0.1,0.2-0.1,0.2l0.1,0
						C22,25.8,22,25.8,22,25.6C22,25.7,22,25.7,22,25.6z"/>
					<path class="st27" d="M21.9,25.9L21.9,25.9C21.9,25.9,21.9,25.9,21.9,25.9z"/>
					<path class="st27" d="M21.9,25.8C21.9,25.8,21.9,25.8,21.9,25.8c0-0.1-0.1-0.1-0.1-0.2c0-0.1-0.1-0.2-0.1-0.2s0.1,0.1,0.1,0.2
						C21.8,25.7,21.8,25.7,21.9,25.8C21.8,25.8,21.9,25.8,21.9,25.8C21.9,25.9,21.9,25.9,21.9,25.8C21.9,25.9,21.9,25.9,21.9,25.8
						L21.9,25.8C21.9,25.9,21.9,25.9,21.9,25.8C21.9,25.9,21.9,25.9,21.9,25.8z"/>
					<path class="st27" d="M21.6,26.1c0,0,0-0.1-0.1-0.1c0-0.1-0.1-0.1-0.1-0.1c0,0,0-0.1,0-0.1s0,0,0,0.1c0,0,0,0.1,0.1,0.1
						C21.6,26.1,21.6,26.1,21.6,26.1C21.6,26.2,21.6,26.2,21.6,26.1C21.6,26.2,21.6,26.2,21.6,26.1C21.6,26.2,21.6,26.2,21.6,26.1
						C21.6,26.2,21.6,26.2,21.6,26.1z"/>
					<path class="st27" d="M22.1,25.3c0-0.1,0-0.1,0-0.2c0-0.1,0-0.1,0-0.2c0,0,0-0.1,0-0.1c0,0,0,0,0,0s0,0,0,0c0,0,0,0.1,0,0.1
						c0,0,0,0.1,0,0.2C22.1,25.2,22.1,25.3,22.1,25.3c0,0.1,0,0.1,0,0.2c0,0.1,0,0.1,0,0.2c0,0.1,0,0.2,0,0.2l0,0c0,0,0-0.1,0-0.2
						C22.1,25.6,22.1,25.4,22.1,25.3z"/>
					<path class="st19" d="M20.5,27.1c-0.1,0.1-0.3,0.1-0.3,0.1c0,0,0,0.1,0,0.2c0,0.1-0.1,0.2-0.1,0.3c0,0,0,0.1,0,0.1
						c0,0,0,0,0.1,0c0.1,0,0.1,0,0.2,0c0,0,0.1,0,0.1-0.1c0.2-0.1,0.2-0.1,0.2-0.1C20.7,27.6,20.6,27.1,20.5,27.1z"/>
					<path class="st20" d="M20.4,27.2c0,0-0.1,0-0.2,0c0,0,0,0,0,0c0,0,0,0,0,0.1c0,0,0.1,0,0.2,0c0.1,0,0.2-0.1,0.2-0.2
						C20.4,27.2,20.4,27.2,20.4,27.2z"/>
					<path class="st20" d="M20.4,27.8c0,0-0.1,0-0.2,0c0,0-0.1,0-0.1,0c0,0,0,0,0,0.1c0,0,0,0,0,0c0,0,0.1,0,0.1,0.1
						C20.3,27.9,20.4,27.9,20.4,27.8c0.1,0,0.2,0,0.2-0.1C20.6,27.7,20.5,27.7,20.4,27.8z"/>
					<path class="st28" d="M22.1,28.2c0,0-0.1-0.1-0.2-0.1c0,0,0,0,0,0c0,0,0,0,0,0c0,0,0,0-0.1-0.1c0,0,0,0,0,0c0,0,0,0,0,0
						s0,0,0.1,0.1c0,0,0,0,0.1,0.1c0,0,0,0,0,0c0,0,0,0,0,0C21.9,28.1,21.9,28.1,22.1,28.2C22,28.2,22,28.2,22.1,28.2
						C22.1,28.2,22.2,28.2,22.1,28.2C22.2,28.2,22.1,28.2,22.1,28.2C22.1,28.2,22.1,28.2,22.1,28.2z"/>
					<path class="st28" d="M22.1,28c0,0-0.1-0.1-0.1-0.1c0,0,0,0,0,0c0,0,0,0,0,0c0,0,0,0-0.1,0c0,0,0,0,0,0c0,0,0,0,0,0s0,0,0,0
						c0,0,0,0,0,0c0,0,0,0,0.1,0c0,0,0,0,0,0c0,0,0,0,0,0C22,28,22.1,28,22.1,28C22.1,28,22.1,28.1,22.1,28
						C22.2,28.1,22.2,28.1,22.1,28C22.2,28.1,22.2,28.1,22.1,28C22.1,28,22.1,28,22.1,28z"/>
					<path class="st28" d="M22.2,27.9C22.2,27.9,22.1,27.9,22.2,27.9c-0.1-0.1-0.1-0.1-0.1-0.1c0,0,0,0,0,0c0,0,0,0,0,0
						c0,0-0.1,0-0.1,0c-0.1,0-0.1,0-0.1,0s0,0,0,0c0,0,0,0,0.1,0c0,0,0.1,0,0.1,0c0,0,0,0,0,0c0,0,0,0,0,0
						C22.1,27.8,22.1,27.9,22.2,27.9C22.2,27.9,22.2,28,22.2,27.9C22.2,28,22.2,28,22.2,27.9C22.2,28,22.2,28,22.2,27.9
						C22.2,27.9,22.2,27.9,22.2,27.9z"/>
					<path class="st28" d="M22.8,28.4c0,0-0.1-0.1-0.1-0.1c0,0,0,0-0.1-0.1c0,0,0,0,0-0.1c0,0,0,0,0-0.1c0,0,0,0,0,0s0,0,0,0.1
						c0,0,0,0,0,0.1c0,0,0,0,0,0c0,0,0,0,0,0C22.7,28.3,22.7,28.3,22.8,28.4C22.8,28.4,22.8,28.4,22.8,28.4
						C22.8,28.4,22.9,28.4,22.8,28.4C22.9,28.4,22.9,28.4,22.8,28.4C22.9,28.4,22.8,28.4,22.8,28.4z"/>
					<path class="st28" d="M22.9,28.3c0,0-0.1-0.1-0.1-0.1c0,0-0.1-0.1-0.1-0.1c0,0,0,0,0,0c0,0,0,0,0,0s0,0,0,0c0,0,0,0,0,0
						c0,0,0.1,0.1,0.1,0.1C22.8,28.2,22.8,28.2,22.9,28.3C22.9,28.3,22.9,28.3,22.9,28.3C22.9,28.3,22.9,28.3,22.9,28.3
						C22.9,28.3,22.9,28.3,22.9,28.3C22.9,28.3,22.9,28.3,22.9,28.3z"/>
					<path class="st28" d="M23,28.2C23,28.1,22.9,28.1,23,28.2c-0.1-0.1-0.1-0.1-0.1-0.1c0,0,0,0,0,0c0,0,0,0,0,0c0,0,0,0,0,0
						c0,0-0.1,0-0.1,0c0,0-0.1,0-0.1,0s0,0,0,0c0,0,0,0,0.1,0c0,0,0,0,0.1,0c0,0,0,0,0,0c0,0,0,0,0,0C22.9,28.1,22.9,28.1,23,28.2
						C22.9,28.1,22.9,28.2,23,28.2C23,28.2,23,28.2,23,28.2C23,28.2,23,28.2,23,28.2C23,28.2,23,28.2,23,28.2z"/>
					<path class="st28" d="M23.5,28.7C23.5,28.7,23.5,28.7,23.5,28.7c-0.1,0-0.1-0.1-0.1-0.1c0,0,0,0,0,0s0,0,0,0
						C23.4,28.7,23.4,28.7,23.5,28.7C23.4,28.7,23.5,28.7,23.5,28.7C23.5,28.8,23.6,28.8,23.5,28.7c0.1,0.1,0.2,0.1,0.2,0.1s0,0,0,0
						C23.6,28.7,23.5,28.7,23.5,28.7z"/>
					<path class="st28" d="M23.4,28.8C23.4,28.8,23.4,28.8,23.4,28.8c-0.1-0.1-0.1-0.1-0.1-0.1s0,0,0,0
						C23.3,28.8,23.4,28.8,23.4,28.8C23.4,28.8,23.5,28.9,23.4,28.8c0.1,0.1,0.1,0.1,0.1,0.1S23.5,28.9,23.4,28.8
						C23.5,28.9,23.5,28.8,23.4,28.8z"/>
					<path class="st2" d="M22.4,28.2C22.4,28.2,22.4,28.2,22.4,28.2C22.4,28.2,22.4,28.2,22.4,28.2z"/>
					<g>
						<polygon class="st2" points="27.2,24.9 33.1,18.1 28.6,16.2 24.5,23.3 						"/>
					</g>
				</g>
				<path class="st29" d="M4.2,19.5c-2.9,7.4-1.5,13.8,2.2,18.4l3.5-8c-0.6-2.3-0.5-4.9,0.6-7.8C16.8,7.6,39,16.4,33,31.4
					c-1,2.3-2.5,4.1-4.1,5.3l-2.6,8.2c5.2-1.1,10.4-4.8,13-10.9C48.6,10.6,14.1-3.1,4.2,19.5z"/>
			</g>
			<path class="st29" d="M46,41.9L46,41.9l0-19c0-3.1,2.6-5.7,5.7-5.7l0,5.6c0.8-1.9,1.9-3.4,3.3-4.5c1.4-1.1,3.2-1.6,5.4-1.5l0,6
				l-0.3,0c-1.2,0-2.4,0.2-3.4,0.6c-1,0.4-1.9,1-2.7,1.8c-0.7,0.8-1.3,1.8-1.7,3.1c-0.4,1.2-0.6,2.7-0.6,4.3l0,3.7
				C51.7,39.4,49.2,41.9,46,41.9L46,41.9z"/>
			<path class="st29" d="M89.9,35.1c-0.6,1.6-1.5,2.9-2.6,4c-1.1,1.1-2.3,1.9-3.7,2.5c-1.4,0.6-2.8,0.8-4.3,0.8c-2,0-3.7-0.4-5-1.3
				c-1.3-0.9-2.4-1.9-3.3-3l0,5.6c0,3.1-2.5,5.7-5.7,5.7l0-26.4c0-3.1,2.6-5.7,5.7-5.7l0,4.1c0.9-1.3,2-2.4,3.4-3.3
				c1.3-0.9,3-1.3,5-1.3c1.5,0,2.9,0.3,4.2,0.8c1.4,0.6,2.6,1.4,3.7,2.5c1.1,1.1,1.9,2.5,2.6,4c0.7,1.6,1,3.4,1,5.5
				C90.9,31.7,90.5,33.5,89.9,35.1L89.9,35.1z M84.6,26.3c-0.4-1-0.9-1.8-1.5-2.5c-0.6-0.7-1.4-1.2-2.2-1.6
				c-0.9-0.4-1.8-0.6-2.7-0.6c-1,0-1.9,0.2-2.8,0.6c-0.9,0.4-1.6,0.9-2.3,1.6c-0.7,0.7-1.2,1.5-1.6,2.5c-0.4,1-0.6,2.1-0.6,3.3
				c0,1.2,0.2,2.3,0.6,3.3c0.4,1,0.9,1.8,1.6,2.5c0.7,0.7,1.4,1.2,2.3,1.6c0.9,0.4,1.8,0.6,2.8,0.6c1,0,1.9-0.2,2.7-0.6
				c0.9-0.4,1.6-0.9,2.2-1.6c0.6-0.7,1.1-1.5,1.5-2.5c0.4-1,0.6-2.1,0.6-3.3C85.2,28.4,85,27.3,84.6,26.3L84.6,26.3z"/>
			<path class="st29" d="M120.6,34.7c-0.7,1.6-1.6,2.9-2.8,4.1c-1.2,1.2-2.6,2.1-4.2,2.8c-1.6,0.7-3.4,1-5.3,1c-1.9,0-3.6-0.3-5.2-1
				c-1.6-0.7-3-1.6-4.2-2.8c-1.2-1.2-2.1-2.5-2.7-4.1c-0.7-1.5-1-3.2-1-5c0-1.8,0.3-3.4,1-5c0.7-1.6,1.6-2.9,2.8-4.1
				c1.2-1.2,2.6-2.1,4.2-2.8c1.6-0.7,3.4-1,5.3-1c1.9,0,3.7,0.3,5.3,1c1.6,0.7,3,1.6,4.2,2.8c1.2,1.2,2.1,2.5,2.7,4.1
				c0.7,1.6,1,3.2,1,5C121.6,31.5,121.3,33.1,120.6,34.7L120.6,34.7z M115.3,26.7c-0.4-1-0.9-1.8-1.6-2.5c-0.7-0.7-1.5-1.3-2.4-1.7
				c-0.9-0.4-1.9-0.6-3-0.6c-1.1,0-2.1,0.2-3,0.6c-0.9,0.4-1.7,1-2.3,1.7c-0.7,0.7-1.1,1.5-1.5,2.5c-0.3,1-0.5,2-0.5,3.1
				c0,1.1,0.2,2.1,0.6,3.1c0.4,1,0.9,1.8,1.6,2.5c0.7,0.7,1.5,1.3,2.4,1.7c0.9,0.4,1.9,0.6,3,0.6c1.1,0,2.2-0.2,3.1-0.6
				c0.9-0.4,1.7-1,2.3-1.7c0.7-0.7,1.1-1.5,1.5-2.5c0.3-0.9,0.5-2,0.5-3.1C115.9,28.7,115.7,27.7,115.3,26.7L115.3,26.7z"/>
			<path class="st29" d="M127.3,42L127.3,42l0-19c0-3.1,2.6-5.7,5.7-5.7l0,3.9c0.4-0.6,0.8-1.2,1.3-1.7c0.5-0.5,1-1,1.7-1.4
				c0.6-0.4,1.3-0.7,2.1-1c0.8-0.2,1.6-0.4,2.6-0.3c2.8,0,5,0.9,6.5,2.6c1.5,1.7,2.3,4,2.3,6.9l0,15.7l-5.7,0l0-14
				c0-1.9-0.4-3.4-1.4-4.5c-0.9-1-2.2-1.6-3.9-1.6c-1.6,0-3,0.5-4,1.6c-1,1.1-1.5,2.6-1.5,4.5l0,8.2C133,39.5,130.5,42,127.3,42
				L127.3,42z"/>
			<path class="st8" d="M180.8,35.3c-0.6,1.6-1.5,2.9-2.6,4c-1.1,1.1-2.3,1.9-3.7,2.5c-1.4,0.6-2.8,0.8-4.3,0.8c-2,0-3.7-0.4-5-1.3
				c-1.3-0.9-2.4-1.9-3.3-3c0,2.1-1.7,3.8-3.8,3.8l-1.9,0l0-28.4c0-3.1,2.6-5.7,5.7-5.7l0,13.5c0.9-1.3,2-2.4,3.4-3.3
				c1.3-0.9,3-1.3,5-1.3c1.5,0,2.9,0.3,4.2,0.8c1.4,0.6,2.6,1.4,3.7,2.5c1.1,1.1,1.9,2.5,2.6,4c0.7,1.6,1,3.4,1,5.5
				C181.8,31.8,181.5,33.7,180.8,35.3 M175.6,26.5c-0.4-1-0.9-1.8-1.5-2.5c-0.6-0.7-1.4-1.2-2.2-1.6c-0.9-0.4-1.8-0.6-2.7-0.6
				c-1,0-1.9,0.2-2.8,0.6c-0.9,0.4-1.6,0.9-2.3,1.6c-0.7,0.7-1.2,1.5-1.6,2.5c-0.4,1-0.6,2.1-0.6,3.3c0,1.2,0.2,2.3,0.6,3.3
				c0.4,1,0.9,1.8,1.6,2.5c0.7,0.7,1.4,1.2,2.3,1.6c0.9,0.4,1.8,0.6,2.8,0.6c1,0,1.9-0.2,2.7-0.6c0.9-0.4,1.6-0.9,2.2-1.6
				c0.6-0.7,1.1-1.5,1.5-2.5c0.4-1,0.6-2.1,0.6-3.3C176.1,28.6,175.9,27.5,175.6,26.5"/>
			<path class="st8" d="M187.3,35.3c-0.6-1.6-1-3.4-1-5.5c0-2.1,0.3-3.9,1-5.5c0.7-1.6,1.5-2.9,2.6-4c1.1-1.1,2.3-1.9,3.7-2.5
				c1.4-0.6,2.8-0.8,4.2-0.8c2,0,3.7,0.4,5,1.3c1.3,0.9,2.5,2,3.4,3.3l0-13.5c3.1,0,5.7,2.5,5.7,5.7l0,28.4l-1.9,0
				c-2.1,0-3.8-1.7-3.8-3.8c-0.9,1.2-2,2.2-3.3,3c-1.3,0.9-3,1.3-5,1.3c-1.5,0-2.9-0.3-4.3-0.8c-1.4-0.6-2.6-1.4-3.7-2.5
				C188.8,38.2,188,36.8,187.3,35.3 M192.6,26.5c-0.4,1-0.6,2.1-0.6,3.3c0,1.2,0.2,2.3,0.6,3.3c0.4,1,0.9,1.8,1.5,2.5
				c0.6,0.7,1.4,1.2,2.2,1.6c0.9,0.4,1.8,0.6,2.7,0.6c1,0,1.9-0.2,2.8-0.6c0.9-0.4,1.6-0.9,2.3-1.6c0.7-0.7,1.2-1.5,1.6-2.5
				c0.4-1,0.6-2.1,0.6-3.3c0-1.2-0.2-2.3-0.6-3.3c-0.4-1-0.9-1.8-1.6-2.5c-0.7-0.7-1.4-1.2-2.3-1.6c-0.9-0.4-1.8-0.6-2.8-0.6
				c-1,0-1.9,0.2-2.7,0.6c-0.9,0.4-1.6,0.9-2.2,1.6C193.5,24.7,193,25.5,192.6,26.5"/>
		</g>
		<g>
			<g>
				<path class="st29" d="M218.3,10.3l-1.3,0l0-6.3l-2.4,0l0-1.2l6.1,0l0,1.2l-2.4,0L218.3,10.3z"/>
				<path class="st29" d="M225.5,8.5L225.5,8.5L223.2,5l0,5.3l-1.3,0l0-7.5l1.4,0l2.3,3.5l2.3-3.5l1.4,0l0,7.5l-1.3,0l0-5.4
					L225.5,8.5z"/>
			</g>
		</g>
	</g>
	<g>
		<g>
			<path class="st29" d="M7.5,60v3.2H6V60l-3.4-5h1.3c0.1,0,0.2,0,0.3,0.1c0.1,0.1,0.1,0.1,0.2,0.2l1.9,3c0.1,0.1,0.2,0.3,0.2,0.4
				c0.1,0.1,0.1,0.3,0.2,0.4c0-0.1,0.1-0.3,0.2-0.4c0.1-0.1,0.1-0.3,0.2-0.4l1.9-3c0-0.1,0.1-0.1,0.2-0.2C9.4,55.1,9.5,55,9.6,55
				h1.3L7.5,60z"/>
			<path class="st29" d="M13.2,57.3c0.5,0,0.9,0.1,1.3,0.2c0.4,0.1,0.7,0.3,1,0.6c0.3,0.3,0.5,0.6,0.6,0.9c0.2,0.4,0.2,0.8,0.2,1.3
				c0,0.5-0.1,0.9-0.2,1.3c-0.2,0.4-0.4,0.7-0.6,0.9c-0.3,0.3-0.6,0.5-1,0.6c-0.4,0.1-0.8,0.2-1.3,0.2c-0.5,0-0.9-0.1-1.3-0.2
				c-0.4-0.1-0.7-0.3-1-0.6c-0.3-0.3-0.5-0.6-0.6-0.9c-0.2-0.4-0.2-0.8-0.2-1.3c0-0.5,0.1-0.9,0.2-1.3c0.2-0.4,0.4-0.7,0.6-0.9
				s0.6-0.5,1-0.6C12.2,57.4,12.7,57.3,13.2,57.3z M13.2,62.4c0.6,0,1-0.2,1.3-0.5s0.4-0.9,0.4-1.5c0-0.7-0.1-1.2-0.4-1.5
				c-0.3-0.4-0.7-0.5-1.3-0.5c-0.6,0-1.1,0.2-1.3,0.5c-0.3,0.4-0.4,0.9-0.4,1.5c0,0.7,0.1,1.2,0.4,1.5
				C12.1,62.2,12.6,62.4,13.2,62.4z"/>
			<path class="st29" d="M23.3,57.4v5.9h-0.8c-0.2,0-0.3-0.1-0.4-0.2L22,62.5c-0.1,0.1-0.3,0.2-0.4,0.4c-0.2,0.1-0.3,0.2-0.5,0.3
				c-0.2,0.1-0.4,0.1-0.6,0.2c-0.2,0-0.4,0.1-0.6,0.1c-0.4,0-0.7-0.1-1-0.2c-0.3-0.1-0.5-0.3-0.7-0.5c-0.2-0.2-0.3-0.4-0.4-0.7
				c-0.1-0.3-0.1-0.6-0.1-0.9v-3.7H19v3.7c0,0.4,0.1,0.7,0.3,0.9s0.5,0.3,0.9,0.3c0.3,0,0.6-0.1,0.9-0.2c0.3-0.1,0.5-0.3,0.7-0.5
				v-4.3H23.3z"/>
			<path class="st29" d="M26.3,58.5c0.2-0.4,0.5-0.7,0.8-0.9c0.3-0.2,0.6-0.3,1.1-0.3c0.1,0,0.3,0,0.4,0c0.1,0,0.2,0.1,0.3,0.1
				l-0.1,0.9c0,0.1,0,0.1-0.1,0.1c0,0-0.1,0-0.1,0c-0.1,0-0.2,0-0.3,0c-0.1,0-0.2,0-0.4,0c-0.2,0-0.4,0-0.5,0.1
				c-0.1,0-0.3,0.1-0.4,0.2c-0.1,0.1-0.2,0.2-0.3,0.3c-0.1,0.1-0.2,0.3-0.3,0.5v3.6H25v-5.9h0.8c0.1,0,0.2,0,0.3,0.1
				c0.1,0,0.1,0.1,0.1,0.2L26.3,58.5z"/>
			<path class="st29" d="M36.1,55c0.6,0,1.1,0.1,1.5,0.2c0.4,0.1,0.8,0.2,1,0.4s0.5,0.4,0.6,0.7c0.1,0.3,0.2,0.6,0.2,0.9
				c0,0.2,0,0.4-0.1,0.6s-0.2,0.4-0.3,0.5c-0.1,0.2-0.3,0.3-0.5,0.4c-0.2,0.1-0.5,0.2-0.8,0.3c1.3,0.2,2,0.9,2,1.9
				c0,0.4-0.1,0.7-0.2,1c-0.2,0.3-0.4,0.5-0.6,0.8c-0.3,0.2-0.6,0.4-1,0.5c-0.4,0.1-0.9,0.2-1.4,0.2H33V55H36.1z M34.5,56.1v2.6H36
				c0.6,0,1.1-0.1,1.5-0.3c0.3-0.2,0.5-0.5,0.5-1c0-0.5-0.2-0.8-0.5-1c-0.3-0.2-0.8-0.3-1.4-0.3H34.5z M36.4,62.2
				c0.3,0,0.6,0,0.9-0.1c0.2-0.1,0.4-0.2,0.6-0.3c0.1-0.1,0.3-0.3,0.3-0.4c0.1-0.2,0.1-0.3,0.1-0.5c0-0.4-0.2-0.7-0.5-0.9
				c-0.3-0.2-0.8-0.3-1.4-0.3h-1.9v2.6H36.4z"/>
			<path class="st29" d="M42.1,60.5c0,0.3,0.1,0.6,0.2,0.9c0.1,0.2,0.2,0.4,0.4,0.6c0.2,0.2,0.4,0.3,0.6,0.4
				c0.2,0.1,0.5,0.1,0.8,0.1c0.3,0,0.5,0,0.7-0.1c0.2-0.1,0.4-0.1,0.5-0.2c0.1-0.1,0.3-0.1,0.4-0.2c0.1-0.1,0.2-0.1,0.3-0.1
				c0.1,0,0.2,0,0.3,0.1l0.4,0.5c-0.2,0.2-0.4,0.3-0.6,0.4c-0.2,0.1-0.4,0.2-0.7,0.3c-0.2,0.1-0.5,0.1-0.7,0.2c-0.2,0-0.5,0-0.7,0
				c-0.5,0-0.9-0.1-1.3-0.2c-0.4-0.1-0.7-0.3-1-0.6c-0.3-0.3-0.5-0.6-0.7-1c-0.2-0.4-0.2-0.8-0.2-1.3c0-0.4,0.1-0.8,0.2-1.1
				c0.1-0.4,0.4-0.7,0.6-0.9c0.3-0.3,0.6-0.5,1-0.6c0.4-0.2,0.8-0.2,1.3-0.2c0.4,0,0.8,0.1,1.1,0.2c0.3,0.1,0.6,0.3,0.9,0.5
				c0.3,0.2,0.4,0.5,0.6,0.8c0.1,0.3,0.2,0.7,0.2,1.1c0,0.2,0,0.3-0.1,0.4c0,0.1-0.1,0.1-0.3,0.1H42.1z M45.4,59.7
				c0-0.2,0-0.4-0.1-0.6c-0.1-0.2-0.2-0.3-0.3-0.5c-0.1-0.1-0.3-0.2-0.5-0.3c-0.2-0.1-0.4-0.1-0.7-0.1c-0.5,0-0.9,0.1-1.2,0.4
				c-0.3,0.3-0.5,0.6-0.6,1.1H45.4z"/>
			<path class="st29" d="M51.9,58.5c0,0.1-0.1,0.1-0.1,0.1c0,0-0.1,0-0.2,0c-0.1,0-0.2,0-0.2-0.1c-0.1,0-0.2-0.1-0.3-0.1
				c-0.1,0-0.3-0.1-0.4-0.1s-0.3-0.1-0.6-0.1c-0.2,0-0.3,0-0.5,0.1c-0.1,0-0.3,0.1-0.4,0.2c-0.1,0.1-0.2,0.1-0.2,0.2
				C49,58.8,49,58.9,49,59c0,0.1,0,0.3,0.1,0.3s0.2,0.2,0.4,0.2s0.3,0.1,0.5,0.2c0.2,0.1,0.4,0.1,0.6,0.2c0.2,0.1,0.4,0.1,0.6,0.2
				c0.2,0.1,0.4,0.2,0.5,0.3c0.2,0.1,0.3,0.3,0.4,0.4c0.1,0.2,0.1,0.4,0.1,0.6c0,0.3-0.1,0.5-0.2,0.8c-0.1,0.2-0.3,0.4-0.5,0.6
				c-0.2,0.2-0.5,0.3-0.8,0.4c-0.3,0.1-0.7,0.1-1.1,0.1c-0.2,0-0.5,0-0.7-0.1c-0.2,0-0.4-0.1-0.6-0.1c-0.2-0.1-0.4-0.1-0.5-0.2
				c-0.2-0.1-0.3-0.2-0.4-0.3l0.3-0.5c0-0.1,0.1-0.1,0.1-0.1c0.1,0,0.1,0,0.2,0c0.1,0,0.2,0,0.3,0.1c0.1,0.1,0.2,0.1,0.3,0.2
				s0.3,0.1,0.4,0.2c0.2,0.1,0.4,0.1,0.6,0.1c0.2,0,0.4,0,0.5-0.1c0.2,0,0.3-0.1,0.4-0.2c0.1-0.1,0.2-0.2,0.2-0.3
				c0-0.1,0.1-0.2,0.1-0.3c0-0.1,0-0.3-0.1-0.4s-0.2-0.2-0.4-0.2s-0.3-0.1-0.5-0.2c-0.2-0.1-0.4-0.1-0.6-0.2
				c-0.2-0.1-0.4-0.1-0.6-0.2c-0.2-0.1-0.4-0.2-0.5-0.3c-0.2-0.1-0.3-0.3-0.4-0.5c-0.1-0.2-0.1-0.4-0.1-0.7c0-0.2,0.1-0.5,0.2-0.7
				c0.1-0.2,0.3-0.4,0.5-0.6c0.2-0.2,0.5-0.3,0.8-0.4c0.3-0.1,0.6-0.1,1-0.1c0.4,0,0.8,0.1,1.2,0.2c0.4,0.1,0.7,0.3,0.9,0.5
				L51.9,58.5z"/>
			<path class="st29" d="M55.8,63.4c-0.5,0-1-0.1-1.3-0.4c-0.3-0.3-0.4-0.7-0.4-1.2v-3.4h-0.7c-0.1,0-0.1,0-0.2-0.1
				c-0.1,0-0.1-0.1-0.1-0.2v-0.5l1.1-0.1l0.3-1.7c0-0.1,0.1-0.1,0.1-0.2c0.1,0,0.1-0.1,0.2-0.1h0.7v1.9h1.8v0.9h-1.8v3.3
				c0,0.2,0.1,0.4,0.2,0.5c0.1,0.1,0.3,0.2,0.5,0.2c0.1,0,0.2,0,0.3,0c0.1,0,0.1-0.1,0.2-0.1c0.1,0,0.1-0.1,0.1-0.1c0,0,0.1,0,0.1,0
				c0.1,0,0.1,0,0.2,0.1l0.4,0.6c-0.2,0.2-0.5,0.3-0.8,0.4C56.4,63.3,56.1,63.4,55.8,63.4z"/>
			<path class="st29" d="M70.6,59.2c0,0.6-0.1,1.2-0.3,1.7c-0.2,0.5-0.5,1-1,1.3c-0.4,0.4-0.9,0.7-1.5,0.9c-0.6,0.2-1.2,0.3-1.9,0.3
				c-0.7,0-1.3-0.1-1.9-0.3c-0.6-0.2-1.1-0.5-1.5-0.9c-0.4-0.4-0.7-0.8-1-1.3c-0.2-0.5-0.3-1.1-0.3-1.7c0-0.6,0.1-1.2,0.3-1.7
				c0.2-0.5,0.5-1,1-1.3c0.4-0.4,0.9-0.7,1.5-0.9c0.6-0.2,1.2-0.3,1.9-0.3c0.7,0,1.3,0.1,1.9,0.3c0.6,0.2,1.1,0.5,1.5,0.9
				c0.4,0.4,0.7,0.8,1,1.3C70.5,58,70.6,58.5,70.6,59.2z M69.1,59.2c0-0.5-0.1-0.9-0.2-1.3c-0.1-0.4-0.4-0.7-0.6-1
				c-0.3-0.3-0.6-0.5-1-0.6c-0.4-0.1-0.8-0.2-1.3-0.2c-0.5,0-0.9,0.1-1.3,0.2c-0.4,0.1-0.7,0.3-1,0.6c-0.3,0.3-0.5,0.6-0.6,1
				c-0.1,0.4-0.2,0.8-0.2,1.3c0,0.5,0.1,0.9,0.2,1.3c0.1,0.4,0.4,0.7,0.6,1c0.3,0.3,0.6,0.5,1,0.6c0.4,0.1,0.8,0.2,1.3,0.2
				c0.5,0,0.9-0.1,1.3-0.2c0.4-0.1,0.7-0.3,1-0.6c0.3-0.3,0.5-0.6,0.6-1C69,60.1,69.1,59.6,69.1,59.2z"/>
			<path class="st29" d="M73.2,58.2c0.1-0.1,0.3-0.2,0.4-0.4c0.2-0.1,0.3-0.2,0.5-0.3c0.2-0.1,0.4-0.1,0.6-0.2
				c0.2,0,0.4-0.1,0.6-0.1c0.4,0,0.7,0.1,1,0.2c0.3,0.1,0.5,0.3,0.7,0.5s0.3,0.4,0.4,0.7c0.1,0.3,0.1,0.6,0.1,0.9v3.7h-1.4v-3.7
				c0-0.4-0.1-0.7-0.3-0.9c-0.2-0.2-0.5-0.3-0.9-0.3c-0.3,0-0.6,0.1-0.9,0.2c-0.3,0.1-0.5,0.3-0.7,0.5v4.3h-1.4v-5.9h0.8
				c0.2,0,0.3,0.1,0.4,0.2L73.2,58.2z"/>
			<path class="st29" d="M80.6,54.8v8.5h-1.4v-8.5H80.6z"/>
			<path class="st29" d="M84,55.7c0,0.1,0,0.2-0.1,0.3c0,0.1-0.1,0.2-0.2,0.3c-0.1,0.1-0.2,0.1-0.3,0.2c-0.1,0-0.2,0.1-0.4,0.1
				c-0.1,0-0.2,0-0.4-0.1c-0.1,0-0.2-0.1-0.3-0.2c-0.1-0.1-0.1-0.2-0.2-0.3c0-0.1-0.1-0.2-0.1-0.3c0-0.1,0-0.2,0.1-0.3
				c0.1-0.1,0.1-0.2,0.2-0.3c0.1-0.1,0.2-0.1,0.3-0.2c0.1,0,0.2-0.1,0.4-0.1c0.1,0,0.3,0,0.4,0.1c0.1,0,0.2,0.1,0.3,0.2
				c0.1,0.1,0.2,0.2,0.2,0.3C84,55.4,84,55.6,84,55.7z M83.8,57.4v5.9h-1.4v-5.9H83.8z"/>
			<path class="st29" d="M86.9,58.2c0.1-0.1,0.3-0.2,0.4-0.4c0.2-0.1,0.3-0.2,0.5-0.3c0.2-0.1,0.4-0.1,0.6-0.2
				c0.2,0,0.4-0.1,0.6-0.1c0.4,0,0.7,0.1,1,0.2c0.3,0.1,0.5,0.3,0.7,0.5s0.3,0.4,0.4,0.7c0.1,0.3,0.1,0.6,0.1,0.9v3.7h-1.4v-3.7
				c0-0.4-0.1-0.7-0.3-0.9c-0.2-0.2-0.5-0.3-0.9-0.3c-0.3,0-0.6,0.1-0.9,0.2c-0.3,0.1-0.5,0.3-0.7,0.5v4.3h-1.4v-5.9h0.8
				c0.2,0,0.3,0.1,0.4,0.2L86.9,58.2z"/>
			<path class="st29" d="M93.8,60.5c0,0.3,0.1,0.6,0.2,0.9c0.1,0.2,0.2,0.4,0.4,0.6c0.2,0.2,0.4,0.3,0.6,0.4
				c0.2,0.1,0.5,0.1,0.8,0.1c0.3,0,0.5,0,0.7-0.1s0.4-0.1,0.5-0.2c0.1-0.1,0.3-0.1,0.4-0.2c0.1-0.1,0.2-0.1,0.3-0.1
				c0.1,0,0.2,0,0.3,0.1l0.4,0.5c-0.2,0.2-0.4,0.3-0.6,0.4c-0.2,0.1-0.4,0.2-0.7,0.3c-0.2,0.1-0.5,0.1-0.7,0.2c-0.2,0-0.5,0-0.7,0
				c-0.5,0-0.9-0.1-1.3-0.2c-0.4-0.1-0.7-0.3-1-0.6c-0.3-0.3-0.5-0.6-0.7-1c-0.2-0.4-0.2-0.8-0.2-1.3c0-0.4,0.1-0.8,0.2-1.1
				c0.1-0.4,0.4-0.7,0.6-0.9c0.3-0.3,0.6-0.5,1-0.6c0.4-0.2,0.8-0.2,1.3-0.2c0.4,0,0.8,0.1,1.1,0.2c0.3,0.1,0.6,0.3,0.9,0.5
				c0.3,0.2,0.4,0.5,0.6,0.8c0.1,0.3,0.2,0.7,0.2,1.1c0,0.2,0,0.3-0.1,0.4c0,0.1-0.1,0.1-0.3,0.1H93.8z M97.2,59.7
				c0-0.2,0-0.4-0.1-0.6c-0.1-0.2-0.2-0.3-0.3-0.5c-0.1-0.1-0.3-0.2-0.5-0.3c-0.2-0.1-0.4-0.1-0.7-0.1c-0.5,0-0.9,0.1-1.2,0.4
				c-0.3,0.3-0.5,0.6-0.6,1.1H97.2z"/>
			<path class="st29" d="M108.1,56.4c0,0.1-0.1,0.1-0.1,0.2c-0.1,0-0.1,0-0.2,0c-0.1,0-0.2,0-0.3-0.1c-0.1-0.1-0.2-0.1-0.4-0.2
				c-0.2-0.1-0.3-0.1-0.5-0.2c-0.2-0.1-0.4-0.1-0.7-0.1c-0.3,0-0.5,0-0.7,0.1c-0.2,0.1-0.4,0.1-0.5,0.2c-0.1,0.1-0.2,0.2-0.3,0.4
				c-0.1,0.1-0.1,0.3-0.1,0.5c0,0.2,0.1,0.4,0.2,0.5s0.3,0.3,0.5,0.4c0.2,0.1,0.4,0.2,0.7,0.3c0.3,0.1,0.5,0.2,0.8,0.2
				c0.3,0.1,0.5,0.2,0.8,0.3c0.3,0.1,0.5,0.2,0.7,0.4c0.2,0.2,0.4,0.4,0.5,0.6c0.1,0.2,0.2,0.5,0.2,0.9c0,0.4-0.1,0.7-0.2,1
				c-0.1,0.3-0.3,0.6-0.6,0.8c-0.3,0.2-0.6,0.4-1,0.6c-0.4,0.1-0.8,0.2-1.4,0.2c-0.3,0-0.6,0-0.9-0.1c-0.3-0.1-0.6-0.1-0.8-0.2
				s-0.5-0.2-0.7-0.3c-0.2-0.1-0.4-0.3-0.6-0.4l0.4-0.6c0-0.1,0.1-0.1,0.1-0.1c0.1,0,0.1,0,0.2,0c0.1,0,0.2,0,0.3,0.1
				c0.1,0.1,0.3,0.2,0.4,0.3c0.2,0.1,0.4,0.2,0.6,0.3c0.2,0.1,0.5,0.1,0.9,0.1c0.5,0,1-0.1,1.3-0.4c0.3-0.2,0.5-0.6,0.5-1
				c0-0.2-0.1-0.4-0.2-0.6c-0.1-0.1-0.3-0.3-0.5-0.4c-0.2-0.1-0.4-0.2-0.7-0.3c-0.3-0.1-0.5-0.1-0.8-0.2c-0.3-0.1-0.5-0.2-0.8-0.3
				c-0.3-0.1-0.5-0.2-0.7-0.4c-0.2-0.2-0.4-0.4-0.5-0.6c-0.1-0.2-0.2-0.6-0.2-0.9c0-0.3,0.1-0.6,0.2-0.9c0.1-0.3,0.3-0.5,0.6-0.7
				c0.3-0.2,0.6-0.4,0.9-0.5c0.4-0.1,0.8-0.2,1.3-0.2c0.5,0,1,0.1,1.5,0.2c0.4,0.1,0.8,0.4,1.2,0.6L108.1,56.4z"/>
			<path class="st29" d="M111.3,58.1c0.3-0.2,0.6-0.4,0.9-0.6c0.3-0.1,0.7-0.2,1.1-0.2c0.4,0,0.7,0.1,1,0.2c0.3,0.1,0.5,0.3,0.7,0.5
				s0.3,0.4,0.4,0.7c0.1,0.3,0.1,0.6,0.1,0.9v3.7h-1.4v-3.7c0-0.4-0.1-0.7-0.3-0.9c-0.2-0.2-0.5-0.3-0.9-0.3c-0.3,0-0.6,0.1-0.9,0.2
				c-0.3,0.1-0.5,0.3-0.7,0.5v4.3h-1.4v-8.5h1.4V58.1z"/>
			<path class="st29" d="M120.1,57.3c0.5,0,0.9,0.1,1.3,0.2c0.4,0.1,0.7,0.3,1,0.6c0.3,0.3,0.5,0.6,0.6,0.9c0.2,0.4,0.2,0.8,0.2,1.3
				c0,0.5-0.1,0.9-0.2,1.3c-0.2,0.4-0.4,0.7-0.6,0.9c-0.3,0.3-0.6,0.5-1,0.6c-0.4,0.1-0.8,0.2-1.3,0.2c-0.5,0-0.9-0.1-1.3-0.2
				c-0.4-0.1-0.7-0.3-1-0.6c-0.3-0.3-0.5-0.6-0.6-0.9c-0.2-0.4-0.2-0.8-0.2-1.3c0-0.5,0.1-0.9,0.2-1.3c0.2-0.4,0.4-0.7,0.6-0.9
				c0.3-0.3,0.6-0.5,1-0.6C119.1,57.4,119.6,57.3,120.1,57.3z M120.1,62.4c0.6,0,1-0.2,1.3-0.5c0.3-0.4,0.4-0.9,0.4-1.5
				c0-0.7-0.1-1.2-0.4-1.5c-0.3-0.4-0.7-0.5-1.3-0.5c-0.6,0-1.1,0.2-1.3,0.5c-0.3,0.4-0.4,0.9-0.4,1.5c0,0.7,0.1,1.2,0.4,1.5
				C119,62.2,119.5,62.4,120.1,62.4z"/>
			<path class="st29" d="M125.9,58.3c0.3-0.3,0.6-0.5,0.9-0.7c0.4-0.2,0.8-0.3,1.2-0.3c0.4,0,0.7,0.1,1,0.2c0.3,0.1,0.6,0.3,0.8,0.6
				c0.2,0.3,0.4,0.6,0.5,0.9c0.1,0.4,0.2,0.8,0.2,1.3c0,0.4-0.1,0.8-0.2,1.2c-0.1,0.4-0.3,0.7-0.6,1c-0.2,0.3-0.5,0.5-0.9,0.6
				c-0.4,0.2-0.7,0.2-1.2,0.2c-0.4,0-0.7-0.1-1-0.2c-0.3-0.1-0.5-0.3-0.7-0.5v2.5h-1.4v-7.8h0.8c0.2,0,0.3,0.1,0.4,0.2L125.9,58.3z
				 M126,61.8c0.2,0.2,0.4,0.4,0.6,0.5c0.2,0.1,0.5,0.1,0.8,0.1c0.5,0,1-0.2,1.3-0.5c0.3-0.4,0.5-0.9,0.5-1.6c0-0.4,0-0.7-0.1-0.9
				c-0.1-0.3-0.2-0.5-0.3-0.6c-0.1-0.2-0.3-0.3-0.5-0.3c-0.2-0.1-0.4-0.1-0.6-0.1c-0.4,0-0.7,0.1-0.9,0.2c-0.3,0.1-0.5,0.3-0.7,0.6
				V61.8z"/>
			<path class="st29" d="M133.2,58.3c0.3-0.3,0.6-0.5,0.9-0.7c0.4-0.2,0.8-0.3,1.2-0.3c0.4,0,0.7,0.1,1,0.2c0.3,0.1,0.6,0.3,0.8,0.6
				c0.2,0.3,0.4,0.6,0.5,0.9c0.1,0.4,0.2,0.8,0.2,1.3c0,0.4-0.1,0.8-0.2,1.2c-0.1,0.4-0.3,0.7-0.6,1c-0.2,0.3-0.5,0.5-0.9,0.6
				c-0.4,0.2-0.7,0.2-1.2,0.2c-0.4,0-0.7-0.1-1-0.2c-0.3-0.1-0.5-0.3-0.7-0.5v2.5h-1.4v-7.8h0.8c0.2,0,0.3,0.1,0.4,0.2L133.2,58.3z
				 M133.3,61.8c0.2,0.2,0.4,0.4,0.6,0.5c0.2,0.1,0.5,0.1,0.8,0.1c0.5,0,1-0.2,1.3-0.5c0.3-0.4,0.5-0.9,0.5-1.6c0-0.4,0-0.7-0.1-0.9
				c-0.1-0.3-0.2-0.5-0.3-0.6c-0.1-0.2-0.3-0.3-0.5-0.3c-0.2-0.1-0.4-0.1-0.6-0.1c-0.4,0-0.7,0.1-0.9,0.2c-0.3,0.1-0.5,0.3-0.7,0.6
				V61.8z"/>
			<path class="st29" d="M140.9,55.7c0,0.1,0,0.2-0.1,0.3c0,0.1-0.1,0.2-0.2,0.3c-0.1,0.1-0.2,0.1-0.3,0.2c-0.1,0-0.2,0.1-0.4,0.1
				c-0.1,0-0.2,0-0.4-0.1c-0.1,0-0.2-0.1-0.3-0.2c-0.1-0.1-0.1-0.2-0.2-0.3c0-0.1-0.1-0.2-0.1-0.3c0-0.1,0-0.2,0.1-0.3
				c0.1-0.1,0.1-0.2,0.2-0.3c0.1-0.1,0.2-0.1,0.3-0.2c0.1,0,0.2-0.1,0.4-0.1c0.1,0,0.3,0,0.4,0.1c0.1,0,0.2,0.1,0.3,0.2
				c0.1,0.1,0.2,0.2,0.2,0.3C140.9,55.4,140.9,55.6,140.9,55.7z M140.7,57.4v5.9h-1.4v-5.9H140.7z"/>
			<path class="st29" d="M143.8,58.2c0.1-0.1,0.3-0.2,0.4-0.4c0.2-0.1,0.3-0.2,0.5-0.3c0.2-0.1,0.4-0.1,0.6-0.2
				c0.2,0,0.4-0.1,0.6-0.1c0.4,0,0.7,0.1,1,0.2c0.3,0.1,0.5,0.3,0.7,0.5c0.2,0.2,0.3,0.4,0.4,0.7c0.1,0.3,0.1,0.6,0.1,0.9v3.7h-1.4
				v-3.7c0-0.4-0.1-0.7-0.3-0.9c-0.2-0.2-0.5-0.3-0.9-0.3c-0.3,0-0.6,0.1-0.9,0.2c-0.3,0.1-0.5,0.3-0.7,0.5v4.3h-1.4v-5.9h0.8
				c0.2,0,0.3,0.1,0.4,0.2L143.8,58.2z"/>
			<path class="st29" d="M155.4,57.6v0.5c0,0.2-0.1,0.2-0.3,0.3l-0.7,0.1c0.1,0.2,0.2,0.5,0.2,0.7c0,0.3-0.1,0.5-0.2,0.8
				c-0.1,0.2-0.3,0.4-0.5,0.6c-0.2,0.2-0.5,0.3-0.8,0.4s-0.6,0.1-1,0.1c-0.1,0-0.3,0-0.4,0c-0.1,0-0.3,0-0.4-0.1
				c-0.1,0.1-0.2,0.1-0.3,0.2c-0.1,0.1-0.1,0.1-0.1,0.2c0,0.1,0.1,0.2,0.2,0.3s0.3,0.1,0.5,0.1c0.2,0,0.4,0,0.7,0.1
				c0.3,0,0.5,0,0.8,0c0.3,0,0.5,0.1,0.8,0.1c0.3,0,0.5,0.1,0.7,0.2c0.2,0.1,0.4,0.2,0.5,0.4c0.1,0.2,0.2,0.4,0.2,0.7
				c0,0.3-0.1,0.5-0.2,0.7c-0.1,0.2-0.3,0.5-0.6,0.6c-0.3,0.2-0.6,0.3-1,0.5c-0.4,0.1-0.8,0.2-1.3,0.2c-0.5,0-0.9,0-1.3-0.1
				c-0.4-0.1-0.7-0.2-0.9-0.3c-0.2-0.1-0.4-0.3-0.5-0.5s-0.2-0.4-0.2-0.6c0-0.3,0.1-0.5,0.3-0.7c0.2-0.2,0.5-0.3,0.8-0.5
				c-0.2-0.1-0.3-0.2-0.4-0.3c-0.1-0.1-0.2-0.3-0.2-0.5c0-0.2,0.1-0.4,0.2-0.5c0.1-0.2,0.4-0.3,0.6-0.5c-0.3-0.2-0.6-0.4-0.8-0.6
				c-0.2-0.3-0.3-0.6-0.3-0.9c0-0.3,0.1-0.6,0.2-0.8c0.1-0.2,0.3-0.4,0.5-0.6c0.2-0.2,0.5-0.3,0.8-0.4c0.3-0.1,0.7-0.1,1-0.1
				c0.6,0,1.1,0.1,1.5,0.3H155.4z M154,63.6c0-0.1,0-0.2-0.1-0.3c-0.1-0.1-0.2-0.1-0.3-0.2c-0.1,0-0.3-0.1-0.5-0.1
				c-0.2,0-0.4,0-0.6,0c-0.2,0-0.4,0-0.7,0c-0.2,0-0.4,0-0.6-0.1c-0.2,0.1-0.4,0.2-0.5,0.3c-0.1,0.1-0.2,0.3-0.2,0.5
				c0,0.1,0,0.2,0.1,0.3c0.1,0.1,0.2,0.2,0.3,0.3c0.1,0.1,0.3,0.1,0.5,0.2c0.2,0,0.5,0.1,0.8,0.1c0.6,0,1.1-0.1,1.4-0.3
				C153.9,64.1,154,63.8,154,63.6z M152.1,60.3c0.4,0,0.8-0.1,1-0.3c0.2-0.2,0.3-0.4,0.3-0.8c0-0.3-0.1-0.6-0.3-0.8
				c-0.2-0.2-0.5-0.3-1-0.3c-0.4,0-0.8,0.1-1,0.3s-0.3,0.4-0.3,0.8c0,0.2,0,0.3,0.1,0.4c0.1,0.1,0.1,0.2,0.2,0.3
				c0.1,0.1,0.2,0.2,0.4,0.2C151.7,60.3,151.9,60.3,152.1,60.3z"/>
			<path class="st29" d="M164.9,56.4c0,0.1-0.1,0.1-0.1,0.2c-0.1,0-0.1,0-0.2,0c-0.1,0-0.2,0-0.3-0.1c-0.1-0.1-0.2-0.1-0.4-0.2
				c-0.2-0.1-0.3-0.1-0.5-0.2c-0.2-0.1-0.4-0.1-0.7-0.1c-0.3,0-0.5,0-0.7,0.1c-0.2,0.1-0.4,0.1-0.5,0.2c-0.1,0.1-0.2,0.2-0.3,0.4
				c-0.1,0.1-0.1,0.3-0.1,0.5c0,0.2,0.1,0.4,0.2,0.5s0.3,0.3,0.5,0.4c0.2,0.1,0.4,0.2,0.7,0.3c0.3,0.1,0.5,0.2,0.8,0.2
				c0.3,0.1,0.5,0.2,0.8,0.3c0.3,0.1,0.5,0.2,0.7,0.4c0.2,0.2,0.4,0.4,0.5,0.6c0.1,0.2,0.2,0.5,0.2,0.9c0,0.4-0.1,0.7-0.2,1
				c-0.1,0.3-0.3,0.6-0.6,0.8c-0.3,0.2-0.6,0.4-1,0.6c-0.4,0.1-0.8,0.2-1.4,0.2c-0.3,0-0.6,0-0.9-0.1c-0.3-0.1-0.6-0.1-0.8-0.2
				c-0.3-0.1-0.5-0.2-0.7-0.3c-0.2-0.1-0.4-0.3-0.6-0.4l0.4-0.6c0-0.1,0.1-0.1,0.1-0.1c0.1,0,0.1,0,0.2,0c0.1,0,0.2,0,0.3,0.1
				c0.1,0.1,0.3,0.2,0.4,0.3c0.2,0.1,0.4,0.2,0.6,0.3c0.2,0.1,0.5,0.1,0.9,0.1c0.5,0,1-0.1,1.3-0.4c0.3-0.2,0.5-0.6,0.5-1
				c0-0.2-0.1-0.4-0.2-0.6c-0.1-0.1-0.3-0.3-0.5-0.4c-0.2-0.1-0.4-0.2-0.7-0.3c-0.3-0.1-0.5-0.1-0.8-0.2c-0.3-0.1-0.5-0.2-0.8-0.3
				c-0.3-0.1-0.5-0.2-0.7-0.4c-0.2-0.2-0.4-0.4-0.5-0.6c-0.1-0.2-0.2-0.6-0.2-0.9c0-0.3,0.1-0.6,0.2-0.9c0.1-0.3,0.3-0.5,0.6-0.7
				c0.3-0.2,0.6-0.4,0.9-0.5c0.4-0.1,0.8-0.2,1.3-0.2c0.5,0,1,0.1,1.5,0.2c0.4,0.1,0.8,0.4,1.2,0.6L164.9,56.4z"/>
			<path class="st29" d="M169.7,57.3c0.5,0,0.9,0.1,1.3,0.2c0.4,0.1,0.7,0.3,1,0.6c0.3,0.3,0.5,0.6,0.6,0.9c0.2,0.4,0.2,0.8,0.2,1.3
				c0,0.5-0.1,0.9-0.2,1.3c-0.2,0.4-0.4,0.7-0.6,0.9c-0.3,0.3-0.6,0.5-1,0.6c-0.4,0.1-0.8,0.2-1.3,0.2c-0.5,0-0.9-0.1-1.3-0.2
				c-0.4-0.1-0.7-0.3-1-0.6c-0.3-0.3-0.5-0.6-0.6-0.9c-0.2-0.4-0.2-0.8-0.2-1.3c0-0.5,0.1-0.9,0.2-1.3c0.2-0.4,0.4-0.7,0.6-0.9
				c0.3-0.3,0.6-0.5,1-0.6C168.7,57.4,169.2,57.3,169.7,57.3z M169.7,62.4c0.6,0,1-0.2,1.3-0.5c0.3-0.4,0.4-0.9,0.4-1.5
				c0-0.7-0.1-1.2-0.4-1.5c-0.3-0.4-0.7-0.5-1.3-0.5c-0.6,0-1.1,0.2-1.3,0.5c-0.3,0.4-0.4,0.9-0.4,1.5c0,0.7,0.1,1.2,0.4,1.5
				C168.6,62.2,169.1,62.4,169.7,62.4z"/>
			<path class="st29" d="M175.6,54.8v8.5h-1.4v-8.5H175.6z"/>
			<path class="st29" d="M182.9,57.4v5.9h-0.8c-0.2,0-0.3-0.1-0.4-0.2l-0.1-0.5c-0.1,0.1-0.3,0.2-0.4,0.4c-0.2,0.1-0.3,0.2-0.5,0.3
				c-0.2,0.1-0.4,0.1-0.6,0.2c-0.2,0-0.4,0.1-0.6,0.1c-0.4,0-0.7-0.1-1-0.2c-0.3-0.1-0.5-0.3-0.7-0.5c-0.2-0.2-0.3-0.4-0.4-0.7
				c-0.1-0.3-0.1-0.6-0.1-0.9v-3.7h1.4v3.7c0,0.4,0.1,0.7,0.3,0.9s0.5,0.3,0.9,0.3c0.3,0,0.6-0.1,0.9-0.2c0.3-0.1,0.5-0.3,0.7-0.5
				v-4.3H182.9z"/>
			<path class="st29" d="M191.1,63.3h-1.4v-4.9h-3.2v3.3c0,0.2,0.1,0.4,0.2,0.5c0.1,0.1,0.3,0.2,0.5,0.2c0.1,0,0.2,0,0.3,0
				c0.1,0,0.1-0.1,0.2-0.1c0.1,0,0.1-0.1,0.1-0.1c0,0,0.1,0,0.1,0c0.1,0,0.1,0,0.2,0.1l0.4,0.6c-0.2,0.2-0.5,0.3-0.8,0.4
				c-0.3,0.1-0.6,0.1-0.9,0.1c-0.5,0-1-0.1-1.3-0.4c-0.3-0.3-0.4-0.7-0.4-1.2v-3.4h-0.7c-0.1,0-0.1,0-0.2-0.1
				c-0.1,0-0.1-0.1-0.1-0.2v-0.5l1.1-0.1l0.3-1.7c0-0.1,0.1-0.1,0.1-0.2c0.1,0,0.1-0.1,0.2-0.1h0.7v1.9h4.6V63.3z M191.3,55.6
				c0,0.1,0,0.2-0.1,0.3c0,0.1-0.1,0.2-0.2,0.3c-0.1,0.1-0.2,0.1-0.3,0.2c-0.1,0-0.2,0.1-0.4,0.1c-0.1,0-0.2,0-0.4-0.1
				c-0.1,0-0.2-0.1-0.3-0.2c-0.1-0.1-0.2-0.2-0.2-0.3c0-0.1-0.1-0.2-0.1-0.3c0-0.1,0-0.2,0.1-0.3c0.1-0.1,0.1-0.2,0.2-0.3
				c0.1-0.1,0.2-0.1,0.3-0.2c0.1,0,0.2-0.1,0.4-0.1c0.1,0,0.2,0,0.4,0.1c0.1,0,0.2,0.1,0.3,0.2c0.1,0.1,0.2,0.2,0.2,0.3
				C191.3,55.4,191.3,55.5,191.3,55.6z"/>
			<path class="st29" d="M195.7,57.3c0.5,0,0.9,0.1,1.3,0.2c0.4,0.1,0.7,0.3,1,0.6c0.3,0.3,0.5,0.6,0.6,0.9c0.2,0.4,0.2,0.8,0.2,1.3
				c0,0.5-0.1,0.9-0.2,1.3c-0.2,0.4-0.4,0.7-0.6,0.9c-0.3,0.3-0.6,0.5-1,0.6c-0.4,0.1-0.8,0.2-1.3,0.2c-0.5,0-0.9-0.1-1.3-0.2
				c-0.4-0.1-0.7-0.3-1-0.6c-0.3-0.3-0.5-0.6-0.6-0.9c-0.2-0.4-0.2-0.8-0.2-1.3c0-0.5,0.1-0.9,0.2-1.3c0.2-0.4,0.4-0.7,0.6-0.9
				c0.3-0.3,0.6-0.5,1-0.6C194.7,57.4,195.2,57.3,195.7,57.3z M195.7,62.4c0.6,0,1-0.2,1.3-0.5s0.4-0.9,0.4-1.5
				c0-0.7-0.1-1.2-0.4-1.5c-0.3-0.4-0.7-0.5-1.3-0.5c-0.6,0-1.1,0.2-1.3,0.5c-0.3,0.4-0.4,0.9-0.4,1.5c0,0.7,0.1,1.2,0.4,1.5
				C194.6,62.2,195.1,62.4,195.7,62.4z"/>
			<path class="st29" d="M201.5,58.2c0.1-0.1,0.3-0.2,0.4-0.4c0.2-0.1,0.3-0.2,0.5-0.3c0.2-0.1,0.4-0.1,0.6-0.2
				c0.2,0,0.4-0.1,0.6-0.1c0.4,0,0.7,0.1,1,0.2c0.3,0.1,0.5,0.3,0.7,0.5c0.2,0.2,0.3,0.4,0.4,0.7c0.1,0.3,0.1,0.6,0.1,0.9v3.7h-1.4
				v-3.7c0-0.4-0.1-0.7-0.3-0.9c-0.2-0.2-0.5-0.3-0.9-0.3c-0.3,0-0.6,0.1-0.9,0.2c-0.3,0.1-0.5,0.3-0.7,0.5v4.3h-1.4v-5.9h0.8
				c0.2,0,0.3,0.1,0.4,0.2L201.5,58.2z"/>
			<path class="st29" d="M211.4,58.5c0,0.1-0.1,0.1-0.1,0.1c0,0-0.1,0-0.2,0c-0.1,0-0.2,0-0.2-0.1c-0.1,0-0.2-0.1-0.3-0.1
				c-0.1,0-0.3-0.1-0.4-0.1c-0.2,0-0.3-0.1-0.6-0.1c-0.2,0-0.3,0-0.5,0.1c-0.1,0-0.3,0.1-0.4,0.2c-0.1,0.1-0.2,0.1-0.2,0.2
				c-0.1,0.1-0.1,0.2-0.1,0.3c0,0.1,0,0.3,0.1,0.3s0.2,0.2,0.4,0.2c0.2,0.1,0.3,0.1,0.5,0.2c0.2,0.1,0.4,0.1,0.6,0.2
				c0.2,0.1,0.4,0.1,0.6,0.2c0.2,0.1,0.4,0.2,0.5,0.3c0.2,0.1,0.3,0.3,0.4,0.4c0.1,0.2,0.1,0.4,0.1,0.6c0,0.3-0.1,0.5-0.2,0.8
				c-0.1,0.2-0.3,0.4-0.5,0.6c-0.2,0.2-0.5,0.3-0.8,0.4c-0.3,0.1-0.7,0.1-1.1,0.1c-0.2,0-0.5,0-0.7-0.1c-0.2,0-0.4-0.1-0.6-0.1
				c-0.2-0.1-0.4-0.1-0.5-0.2c-0.2-0.1-0.3-0.2-0.4-0.3l0.3-0.5c0-0.1,0.1-0.1,0.1-0.1c0.1,0,0.1,0,0.2,0c0.1,0,0.2,0,0.3,0.1
				c0.1,0.1,0.2,0.1,0.3,0.2s0.3,0.1,0.4,0.2c0.2,0.1,0.4,0.1,0.6,0.1c0.2,0,0.4,0,0.5-0.1c0.2,0,0.3-0.1,0.4-0.2
				c0.1-0.1,0.2-0.2,0.2-0.3c0-0.1,0.1-0.2,0.1-0.3c0-0.1,0-0.3-0.1-0.4c-0.1-0.1-0.2-0.2-0.4-0.2s-0.3-0.1-0.5-0.2
				c-0.2-0.1-0.4-0.1-0.6-0.2c-0.2-0.1-0.4-0.1-0.6-0.2c-0.2-0.1-0.4-0.2-0.5-0.3c-0.2-0.1-0.3-0.3-0.4-0.5
				c-0.1-0.2-0.1-0.4-0.1-0.7c0-0.2,0.1-0.5,0.2-0.7c0.1-0.2,0.3-0.4,0.5-0.6c0.2-0.2,0.5-0.3,0.8-0.4c0.3-0.1,0.6-0.1,1-0.1
				c0.4,0,0.8,0.1,1.2,0.2s0.7,0.3,0.9,0.5L211.4,58.5z"/>
		</g>
	</g>
</g>
</svg>
