<?xml version="1.0" standalone="no"?>
<!DOCTYPE svg PUBLIC "-//W3C//DTD SVG 20010904//EN"
 "http://www.w3.org/TR/2001/REC-SVG-20010904/DTD/svg10.dtd">
<svg version="1.0" xmlns="http://www.w3.org/2000/svg"
 width="200.000000pt" height="40.000000pt" viewBox="0 0 200.000000 40.000000"
 preserveAspectRatio="xMidYMid meet">
<metadata>
Created by potrace 1.10, written by Peter Selinger 2001-2011
</metadata>
<g transform="translate(0.000000,40.000000) scale(0.050000,-0.050000)"
fill="#eeeeee" stroke="none">
<path d="M2960 760 c-36 -36 -40 -67 -40 -330 0 -310 12 -340 101 -259 30 27
36 27 59 0 44 -54 205 -41 267 21 195 196 -41 552 -263 397 l-44 -31 0 121 c0
129 -16 145 -80 81z m305 -276 c36 -31 48 -154 20 -196 -92 -138 -291 -8 -227
148 41 98 126 118 207 48z"/>
<path d="M3884 672 l8 -128 -49 38 c-137 108 -343 -13 -343 -202 0 -186 215
-323 335 -214 35 31 42 32 65 5 14 -17 40 -31 57 -31 51 0 42 597 -10 634 -61
46 -72 29 -63 -102z m-33 -199 c61 -88 17 -213 -86 -243 -58 -16 -145 67 -145
140 0 147 152 215 231 103z"/>
<path d="M148 715 c-118 -103 -163 -280 -108 -424 33 -88 114 3 104 118 -14
169 197 319 330 235 30 -19 -39 -144 -79 -144 -23 0 -86 -78 -71 -89 62 -50
153 -23 157 47 0 7 19 34 41 61 84 100 112 -103 31 -222 -37 -56 -93 -180 -93
-209 0 -63 196 101 242 202 154 332 -281 666 -554 425z"/>
<path d="M1060 626 c-16 -6 -52 -30 -78 -54 l-48 -42 11 45 c13 51 -19 60 -69
20 -40 -31 -63 -455 -25 -455 58 0 89 54 97 166 9 125 46 187 119 198 32 4 45
22 49 71 7 65 0 71 -56 51z"/>
<path d="M1430 624 c-22 -4 -56 -22 -75 -39 -32 -28 -35 -28 -35 2 0 44 -46
42 -87 -4 -38 -42 -51 -583 -13 -583 42 0 100 82 100 141 0 59 1 60 44 30 77
-53 191 -40 256 29 162 173 29 469 -190 424z m101 -133 c92 -92 45 -251 -76
-251 -136 0 -191 173 -82 259 68 53 98 52 158 -8z"/>
<path d="M1947 617 c-259 -71 -206 -477 62 -477 120 0 198 41 238 127 100 210
-74 413 -300 350z m173 -137 c52 -52 53 -162 2 -208 -56 -50 -159 -35 -208 31
-100 135 87 296 206 177z"/>
<path d="M2555 609 c-32 -18 -55 -22 -55 -10 0 34 -51 24 -87 -16 -46 -50 -49
-443 -4 -443 55 0 91 84 91 210 0 135 21 170 103 170 76 0 97 -49 97 -229 0
-148 1 -151 50 -151 54 0 78 330 30 419 -36 69 -145 93 -225 50z"/>
<path d="M160 260 c-37 -76 -63 -143 -59 -148 50 -47 262 -107 273 -76 7 19
29 77 49 130 52 133 48 148 -47 194 -127 61 -141 55 -216 -100z"/>
</g>
</svg>
