<svg xmlns="http://www.w3.org/2000/svg" width="62.245" height="38.896" viewBox="0 0 62.245 38.896">
  <g id="UnionPay_logo" data-name="UnionPay logo" transform="translate(0 0)">
    <path id="Path_640" data-name="Path 640" d="M443.518,436.4h15.517a3.021,3.021,0,0,1,3.008,3.939l-7.224,31.018a5.272,5.272,0,0,1-4.846,3.932H434.457a3.021,3.021,0,0,1-3.008-3.932l7.228-31.018a5.259,5.259,0,0,1,4.843-3.939" transform="translate(-431.307 -436.397)" fill="#d70028"/>
    <path id="Path_641" data-name="Path 641" d="M455.912,436.4h17.846c2.166,0,1.19,1.765.68,3.939l-7.224,31.018c-.506,2.165-.349,3.932-2.519,3.932H446.85a3.014,3.014,0,0,1-3-3.932l7.223-31.018a5.268,5.268,0,0,1,4.842-3.939" transform="translate(-429.475 -436.397)" fill="#003668"/>
    <path id="Path_642" data-name="Path 642" d="M470.844,436.4h15.518a3.02,3.02,0,0,1,3.007,3.939l-7.223,31.018a5.274,5.274,0,0,1-4.855,3.933H461.785a3.017,3.017,0,0,1-3.007-3.932L466,440.34a5.257,5.257,0,0,1,4.842-3.939" transform="translate(-427.268 -436.397)" fill="#086971"/>
    <path id="Path_643" data-name="Path 643" d="M446.665,445.069a16.648,16.648,0,0,1-2.219-.037c-.057.275-1.134,5.243-1.137,5.248a3.634,3.634,0,0,1-.973,2.183,1.733,1.733,0,0,1-1.144.4,1.058,1.058,0,0,1-1.182-.917.961.961,0,0,1-.008-.1l-.014-.228s.216-1.346.216-1.354,1.13-4.526,1.333-5.125a.425.425,0,0,0,.016-.069,16.59,16.59,0,0,1-2.616-.036c-.015.049-.069.329-.069.329l-1.155,5.1-.1.433-.192,1.416a2.083,2.083,0,0,0,.247,1.057c.529.918,2.026,1.057,2.874,1.057a5.571,5.571,0,0,0,2.812-.661,4.164,4.164,0,0,0,1.8-2.809l.132-.506s1.165-4.7,1.362-5.313A.186.186,0,0,1,446.665,445.069Zm3.966,3.792a3.064,3.064,0,0,0-1.255.294c-.166.085-.325.185-.491.284l.15-.543-.083-.092c-.977.2-1.189.225-2.1.352l-.076.049a26.763,26.763,0,0,1-.585,3.23c-.148.629-.3,1.265-.455,1.893l.04.08c.926-.049,1.206-.049,2.01-.037l.064-.071c.1-.528.116-.645.342-1.706.106-.5.327-1.606.437-2a1.48,1.48,0,0,1,.588-.185c.451,0,.4.4.379.55-.021.264-.184,1.121-.352,1.858l-.112.476c-.078.351-.163.692-.241,1.041l.034.07c.911-.048,1.189-.048,1.968-.036l.091-.071c.14-.817.183-1.035.43-2.224l.133-.546c.245-1.07.366-1.611.183-2.055A1.058,1.058,0,0,0,450.631,448.861Zm4.425,1.119c-.486.093-.793.155-1.1.2s-.6.092-1.069.158l-.038.033-.033.026c-.049.349-.084.651-.148,1s-.139.783-.277,1.382a5.43,5.43,0,0,1-.223.778,6.926,6.926,0,0,0-.243.768l.029.041.023.038c.438-.021.725-.036,1.018-.038s.6,0,1.07,0l.041-.033.044-.037c.069-.406.078-.515.119-.714s.112-.506.287-1.292c.083-.37.174-.738.265-1.115s.181-.745.264-1.115l-.013-.045Zm.01-1.509a1.776,1.776,0,0,0-1.733.181c-.518.351-.577.852-.132,1.115a1.771,1.771,0,0,0,1.718-.185c.514-.359.58-.853.145-1.111Zm2.659,6.02a3.3,3.3,0,0,0,2.492-.974,4.411,4.411,0,0,0,.856-1.832,2.331,2.331,0,0,0-.208-2.1A2.292,2.292,0,0,0,459,448.9a3.435,3.435,0,0,0-2.347.813,3.846,3.846,0,0,0-1.042,2.027c-.168.735-.362,2.057.854,2.548A3.571,3.571,0,0,0,457.725,454.491Zm-.07-2.7c.205-.908.449-1.671,1.068-1.671.484,0,.521.568.3,1.479a4.053,4.053,0,0,1-.456,1.276.749.749,0,0,1-.582.379c-.065,0-.452,0-.459-.575a3.944,3.944,0,0,1,.126-.89Zm5.642,2.584.07-.071c.1-.529.115-.647.333-1.706.11-.5.336-1.607.442-2a1.49,1.49,0,0,1,.591-.185c.446,0,.4.4.375.55a17.926,17.926,0,0,1-.352,1.859l-.106.475c-.08.352-.169.693-.248,1.042l.034.07c.915-.049,1.181-.049,1.964-.036l.1-.071c.132-.817.174-1.036.433-2.226l.123-.548c.246-1.069.369-1.612.187-2.052a1.072,1.072,0,0,0-1.095-.615,3.058,3.058,0,0,0-1.255.294c-.164.086-.328.185-.49.284l.141-.543-.076-.093c-.977.2-1.2.225-2.1.352l-.069.05a27.739,27.739,0,0,1-.586,3.229c-.148.629-.3,1.265-.456,1.894l.041.079c.925-.051,1.2-.051,2-.038Zm6.719.036.4-1.944s.29-1.22.309-1.266a.742.742,0,0,1,.182-.177h.132a6.255,6.255,0,0,0,3.834-.827,4.085,4.085,0,0,0,1.522-2.423,3.672,3.672,0,0,0,.106-.844,1.77,1.77,0,0,0-.3-1.077c-.574-.8-1.718-.817-3.034-.824h-.65c-1.686.021-2.363.015-2.643-.019-.024.123-.068.341-.068.341l-.6,2.805-1.513,6.242c1.477-.017,2.081-.017,2.335.011Zm1.12-4.976.639-2.786.022-.142.009-.11.256.026,1.357.116a1.106,1.106,0,0,1,.588,1.406,2.046,2.046,0,0,1-1.057,1.4,3.35,3.35,0,0,1-1.489.232h-.349Zm4,2.413c-.169.724-.365,2.045.845,2.511a2.356,2.356,0,0,0,1.082.2,1.786,1.786,0,0,0,1.034-.474l-.086.331.055.071c.87-.037,1.141-.037,2.084-.029l.085-.065c.133-.809.265-1.6.626-3.144.174-.742.349-1.476.529-2.215l-.028-.081c-.973.179-1.234.219-2.17.351l-.072.059c-.009.075-.02.148-.029.219a1.342,1.342,0,0,0-.682-.562,2.608,2.608,0,0,0-2.236.814A3.793,3.793,0,0,0,475.139,451.848Zm2.045.044c.209-.893.448-1.647,1.067-1.647.4,0,.6.362.557.979-.032.154-.069.316-.112.5-.062.265-.132.529-.194.793a1.912,1.912,0,0,1-.228.462,1.073,1.073,0,0,1-.759.367c-.062,0-.444,0-.458-.565a3.922,3.922,0,0,1,.127-.9Zm10.677-2.952-.075-.086c-.964.2-1.139.226-2.022.347l-.065.064a.069.069,0,0,1-.01.041v-.015c-.661,1.521-.641,1.19-1.177,2.389v-.147l-.132-2.594-.085-.086c-1.009.2-1.033.226-1.965.347l-.072.064a.77.77,0,0,0-.016.1v.013a12.858,12.858,0,0,1,.206,1.4c.054.461.132.925.181,1.381.092.762.143,1.136.255,2.3-.629,1.039-.778,1.431-1.384,2.344v.009l-.427.674a.323.323,0,0,1-.155.14.656.656,0,0,1-.279.04H480.4l-.351,1.169,1.205.021a1.485,1.485,0,0,0,1.392-.778l.759-1.3H483.4l.079-.092C483.984,455.594,487.861,448.939,487.861,448.939Zm-12.722,15.35h-.512l1.894-6.261h.628l.2-.645.02.716c-.024.443.325.837,1.241.771h1.058l.365-1.206h-.4c-.228,0-.335-.057-.323-.183l-.02-.729h-1.959a27.38,27.38,0,0,0-2.908.162,3.407,3.407,0,0,0-.953.473l.192-.646h-1.842l-.381,1.281-1.919,6.356h-.372l-.365,1.2h3.658l-.124.4h1.8l.121-.4h.505Zm-1.5-4.988a8.1,8.1,0,0,0-.84.328l.486-1.6h1.454l-.351,1.166A4.712,4.712,0,0,0,473.64,459.3Zm.028,2.286s-.457.057-.759.125a7.527,7.527,0,0,0-.854.374l.5-1.664h1.471Zm-.817,2.717h-1.466l.425-1.4h1.454Zm3.524-3.882h2.108l-.3.98h-2.137l-.321,1.073h1.869l-1.415,1.993a.583.583,0,0,1-.287.24.848.848,0,0,1-.38.109h-.518l-.356,1.175h1.357a1.649,1.649,0,0,0,1.429-.741l.97-1.322.209,1.349a.637.637,0,0,0,.349.458,1.274,1.274,0,0,0,.475.2c.212.009.366.016.467.016h.661l.4-1.315h-.265a1.1,1.1,0,0,1-.455-.073.692.692,0,0,1-.067-.28l-.212-1.352h-.865l.379-.452H481.6l.328-1.072h-1.965l.308-.981h1.967l.365-1.209h-5.866Zm-17.812,4.155.492-1.637h2.022l.368-1.218h-2.018l.309-1.007h1.983l.366-1.18h-4.955l-.358,1.18H457.9l-.3,1.007h-1.127l-.374,1.239h1.124l-.661,2.166a.518.518,0,0,0,.124.529.545.545,0,0,0,.363.264,2.131,2.131,0,0,0,.518.071h2.281l.405-1.349-1.011.139C459.049,464.781,458.508,464.759,458.562,464.577Zm.232-7.837-.513.926a1.073,1.073,0,0,1-.3.386,1,1,0,0,1-.459.069h-.264l-.357,1.189h.888a2.012,2.012,0,0,0,.912-.235c.168-.089.212-.038.342-.164l.3-.264h2.776l.367-1.233h-2.03l.355-.675Zm4.1,7.86c-.047-.068-.013-.187.06-.437l.758-2.511h2.7c.4,0,.676-.01.86-.024a1.754,1.754,0,0,0,.65-.218,1.2,1.2,0,0,0,.472-.435,3.685,3.685,0,0,0,.465-1.057l.954-3.172-2.8.016a8.651,8.651,0,0,0-1.242.264,5.119,5.119,0,0,0-.925.593l.253-.87h-1.732l-2.418,8.032a4.879,4.879,0,0,0-.158.674c0,.147.186.292.308.4a1.1,1.1,0,0,0,.564.11c.216.015.529.026.948.026h1.322l.407-1.377-1.19.111a.312.312,0,0,1-.25-.122Zm1.306-4.64h2.833l-.179.565a2.049,2.049,0,0,0-.374,0h-2.453Zm.567-1.894h2.857l-.205.68s-1.346-.013-1.562.028a3.168,3.168,0,0,0-1.5.672Zm2.149,4.347a.3.3,0,0,1-.112.174.559.559,0,0,1-.289.051h-.4l.024-.687h-1.678l-.069,3.361c0,.242.021.383.2.5a3.38,3.38,0,0,0,1.454.158h1.058l.379-1.257-.916.05-.3.017a.356.356,0,0,1-.125-.078c-.039-.039-.1-.015-.093-.258l.007-.862.96-.04a1.243,1.243,0,0,0,.925-.328,1.033,1.033,0,0,0,.309-.572l.161-.762h-1.322Z" transform="translate(-430.403 -435.125)" fill="#fff"/>
  </g>
</svg>
