<svg id="g4158" xmlns="http://www.w3.org/2000/svg" width="82.59" height="26.731" viewBox="0 0 82.59 26.731">
  <path id="polygon9" d="M454.935,405.794h-6.69l4.185-25.876h6.689Z" transform="translate(-419.145 -379.441)" fill="#004790"/>
  <path id="path11" d="M477.79,380.606a16.487,16.487,0,0,0-6-1.1c-6.61,0-11.261,3.525-11.288,8.561-.055,3.716,3.331,5.78,5.863,7.021,2.589,1.265,3.469,2.092,3.469,3.22-.026,1.734-2.091,2.533-4.017,2.533a13.318,13.318,0,0,1-6.278-1.376l-.881-.414-.935,5.809a20.355,20.355,0,0,0,7.462,1.377c7.021,0,11.591-3.469,11.645-8.837.026-2.945-1.761-5.2-5.616-7.047-2.34-1.183-3.774-1.983-3.774-3.194.028-1.1,1.212-2.228,3.854-2.228a11.36,11.36,0,0,1,4.985.991l.6.274.911-5.586Z" transform="translate(-417.745 -379.503)" fill="#004790"/>
  <path id="path13" d="M484.286,396.627c.55-1.486,2.671-7.24,2.671-7.24-.028.056.55-1.514.88-2.477l.468,2.23s1.266,6.193,1.54,7.487Zm8.258-16.709h-5.175a3.3,3.3,0,0,0-3.5,2.147l-9.939,23.728h7.021l1.4-3.881h8.592c.192.908.793,3.881.793,3.881h6.195l-5.4-25.875Z" transform="translate(-415.349 -379.445)" fill="#004790"/>
  <path id="path15" d="M445.5,379.915l-6.552,17.646-.716-3.579a19.8,19.8,0,0,0-9.253-10.846l6,22.628h7.075l10.516-25.849Z" transform="translate(-421.992 -379.442)" fill="#004790"/>
  <path id="path17" d="M433.766,379.917H423l-.109.529c8.4,2.148,13.958,7.323,16.242,13.545l-2.34-11.9a2.767,2.767,0,0,0-3.028-2.175Z" transform="translate(-422.892 -379.444)" fill="#fd9300"/>
</svg>
