<svg id="layer1" xmlns="http://www.w3.org/2000/svg" width="43.991" height="34.127" viewBox="0 0 43.991 34.127">
  <g id="g13" transform="translate(0)">
    <g id="g15" transform="translate(2.243 28.987)">
      <path id="Path_538" data-name="Path 538" d="M238.584,468.8v-2.265a1.322,1.322,0,0,0-1.2-1.435,1.341,1.341,0,0,0-.235,0,1.488,1.488,0,0,0-1.283.642,1.321,1.321,0,0,0-1.206-.642,1.22,1.22,0,0,0-1.058.529v-.453h-.793V468.8h.793v-2c0-.642.34-.943.869-.943s.793.34.793.943v2h.793v-2a.835.835,0,0,1,.719-.938.817.817,0,0,1,.15-.006c.528,0,.793.34.793.943v2Zm11.741-3.623h-1.281v-1.1h-.793v1.1h-.717v.717h.717v1.661c0,.83.34,1.321,1.247,1.321a2.111,2.111,0,0,0,.98-.264l-.226-.679a1.255,1.255,0,0,1-.68.188c-.378,0-.528-.226-.528-.6V465.89h1.283Zm6.719-.076a1.058,1.058,0,0,0-.945.529v-.453h-.793V468.8h.793v-2.038c0-.6.265-.943.755-.943a2.2,2.2,0,0,1,.49.076l.226-.755a2.467,2.467,0,0,0-.528-.038Zm-10.156.378a2.59,2.59,0,0,0-1.471-.378c-.907,0-1.51.453-1.51,1.17,0,.6.453.945,1.246,1.058l.376.037c.415.076.643.189.643.378,0,.265-.3.452-.83.452a2.076,2.076,0,0,1-1.209-.376l-.378.6a2.669,2.669,0,0,0,1.547.452c1.058,0,1.661-.49,1.661-1.17,0-.642-.49-.981-1.245-1.095l-.376-.037c-.34-.038-.6-.114-.6-.34,0-.264.265-.415.679-.415a2.72,2.72,0,0,1,1.132.3l.34-.642Zm21.064-.378a1.055,1.055,0,0,0-.943.529v-.453h-.793V468.8h.793v-2.038c0-.6.264-.943.754-.943a2.2,2.2,0,0,1,.49.076l.228-.755a2.551,2.551,0,0,0-.529-.038Zm-10.117,1.888a1.812,1.812,0,0,0,1.733,1.888,1.781,1.781,0,0,0,.192,0,1.867,1.867,0,0,0,1.283-.416l-.376-.64a1.537,1.537,0,0,1-.945.34,1.073,1.073,0,0,1-1.1-1.044.91.91,0,0,1,0-.125,1.114,1.114,0,0,1,1.055-1.17h.039a1.528,1.528,0,0,1,.945.339l.376-.64a1.878,1.878,0,0,0-1.283-.416,1.815,1.815,0,0,0-1.924,1.7,1.747,1.747,0,0,0,0,.191Zm7.323,0v-1.812h-.793v.453a1.363,1.363,0,0,0-1.132-.529,1.889,1.889,0,0,0,0,3.774,1.269,1.269,0,0,0,1.132-.529v.452h.793v-1.809Zm-2.908,0a1.1,1.1,0,0,1,2.19-.153,1.138,1.138,0,0,1,0,.153,1.1,1.1,0,0,1-2.19.151A1.11,1.11,0,0,1,262.25,466.985Zm-9.474-1.888a1.888,1.888,0,0,0,.037,3.774,2.309,2.309,0,0,0,1.473-.49l-.378-.566a1.794,1.794,0,0,1-1.057.376,1.019,1.019,0,0,1-1.095-.867h2.679v-.3a1.667,1.667,0,0,0-1.389-1.905,1.642,1.642,0,0,0-.271-.02Zm0,.68a.882.882,0,0,1,.906.857v.011h-1.888A.958.958,0,0,1,252.776,465.776Zm19.666,1.209v-3.251h-.793v1.887a1.362,1.362,0,0,0-1.132-.528,1.889,1.889,0,0,0,0,3.774,1.269,1.269,0,0,0,1.132-.529v.452h.793v-1.805Zm-2.909,0a1.1,1.1,0,0,1,2.19-.153,1.138,1.138,0,0,1,0,.153,1.1,1.1,0,0,1-2.19.151A1.12,1.12,0,0,1,269.533,466.985Zm-26.5,0v-1.812h-.793v.453a1.365,1.365,0,0,0-1.133-.529,1.889,1.889,0,0,0,0,3.774,1.271,1.271,0,0,0,1.133-.529v.452h.793v-1.809Zm-2.945,0a1.1,1.1,0,0,1,2.19-.133.859.859,0,0,1,0,.133,1.1,1.1,0,0,1-2.19.132A1.269,1.269,0,0,1,240.091,466.985Z" transform="translate(-232.808 -463.734)" fill="#030504"/>
    </g>
    <g id="Group_600" data-name="Group 600">
      <rect id="rect19" width="11.891" height="21.365" transform="translate(16.059 2.907)" fill="#ed4715"/>
      <path id="Path_539" data-name="Path 539" d="M247.669,452.068a13.613,13.613,0,0,1,5.171-10.682,13.588,13.588,0,1,0,0,21.365A13.563,13.563,0,0,1,247.669,452.068Z" transform="translate(-230.854 -438.479)" fill="#e0001a"/>
      <path id="path22" d="M272.01,452.069a13.576,13.576,0,0,1-21.97,10.682,13.615,13.615,0,0,0,0-21.365,13.575,13.575,0,0,1,21.97,10.682Z" transform="translate(-228.018 -438.479)" fill="#f88a09"/>
    </g>
  </g>
</svg>
