<svg xmlns="http://www.w3.org/2000/svg" width="74.873" height="33.056" viewBox="0 0 74.873 33.056">
  <g id="Group_594" data-name="Group 594" transform="translate(-215.138 -374.623)">
    <g id="Group_592" data-name="Group 592">
      <path id="Path_471" data-name="Path 471" d="M215.766,388.871a4.821,4.821,0,0,0-.123-1.116,1.382,1.382,0,0,0-.505-.806l2.034-.308v6a.086.086,0,0,0,.073.1.1.1,0,0,0,.024,0c.038,0,.128-.079.267-.241a4.791,4.791,0,0,1,.545-.521,4.264,4.264,0,0,1,.806-.523,2.272,2.272,0,0,1,1.061-.243,2.473,2.473,0,0,1,1.453.414,3.089,3.089,0,0,1,.947,1.06,5.1,5.1,0,0,1,.516,1.426,7.415,7.415,0,0,1,.162,1.529,6.81,6.81,0,0,1-.238,1.83,4.539,4.539,0,0,1-.724,1.523,3.484,3.484,0,0,1-1.25,1.036,3.942,3.942,0,0,1-1.809.386,6.73,6.73,0,0,1-.84-.047c-.255-.032-.506-.068-.753-.106s-.508-.074-.781-.106a7.891,7.891,0,0,0-.922-.048q.031-1.213.048-2.419t.016-2.418Zm5.6,5.864a4.56,4.56,0,0,0-.381-1.167,2.376,2.376,0,0,0-.691-.847,1.646,1.646,0,0,0-1.021-.328,1.77,1.77,0,0,0-1.556.8,3.838,3.838,0,0,0-.545,2.188v1.483a10.089,10.089,0,0,0,.057,1.1,2.556,2.556,0,0,0,.258.9,1.537,1.537,0,0,0,.576.615,2.014,2.014,0,0,0,1.052.231,1.92,1.92,0,0,0,1.193-.356,2.422,2.422,0,0,0,.726-.907,4.247,4.247,0,0,0,.353-1.2,8.762,8.762,0,0,0,.1-1.253,6.7,6.7,0,0,0-.115-1.257Z" fill="#d5005b"/>
      <path id="Path_472" data-name="Path 472" d="M225.366,390.368q0-.652-.049-1.333a2.44,2.44,0,0,0-.371-1.181h2.565a2.444,2.444,0,0,0-.372,1.178q-.045.681-.047,1.332v2.989a1.729,1.729,0,0,0,.714-.326,6.866,6.866,0,0,0,.763-.651q.39-.384.771-.834t.744-.872q.781-.921,1.237-1.513a1.775,1.775,0,0,0,.461-.939v-.211a.5.5,0,0,0-.02-.153h2.363q-.666.594-1.249,1.092a13.809,13.809,0,0,0-1.208,1.187l-2.954,3.219,3.162,4.556q.381.555.839,1.122t.9,1.068h-2a.582.582,0,0,1-.418-.144,2.158,2.158,0,0,1-.3-.375l-3.429-5.226a2.039,2.039,0,0,0-.144-.2c-.057-.07-.1-.106-.141-.106a.062.062,0,0,0-.068.056h0a.641.641,0,0,0-.01.116v3.361q0,.654.048,1.336a2.455,2.455,0,0,0,.372,1.182h-2.565a2.44,2.44,0,0,0,.371-1.182q.048-.679.048-1.332Z" fill="#191717"/>
      <path id="Path_473" data-name="Path 473" d="M239.4,400.23a5.935,5.935,0,0,1-.161-.867c-.02-.217-.066-.324-.141-.324a.116.116,0,0,0-.077.018c-.013.014-.026.025-.038.038q-.192.27-.374.51a2.054,2.054,0,0,1-.431.422,1.954,1.954,0,0,1-.593.288,2.935,2.935,0,0,1-.844.106,2.66,2.66,0,0,1-1.685-.538,1.9,1.9,0,0,1-.691-1.6,1.7,1.7,0,0,1,.352-1.086,3.636,3.636,0,0,1,.879-.8,7.269,7.269,0,0,1,1.127-.605q.6-.26,1.08-.491c.268-.129.49-.237.668-.327a1.4,1.4,0,0,0,.421-.31.972.972,0,0,0,.21-.444,3.776,3.776,0,0,0,.057-.735,2.156,2.156,0,0,0-.323-1.207,1.285,1.285,0,0,0-1.164-.493,1.263,1.263,0,0,0-.951.288,2.1,2.1,0,0,0-.41.634,4.917,4.917,0,0,1-.314.634.671.671,0,0,1-.629.288.761.761,0,0,1-.515-.164.632.632,0,0,1-.19-.509,1.128,1.128,0,0,1,.324-.815,2.45,2.45,0,0,1,.818-.549,4.489,4.489,0,0,1,1.1-.3,8.067,8.067,0,0,1,1.152-.086,6.7,6.7,0,0,1,.97.068,2.606,2.606,0,0,1,.8.241,1.364,1.364,0,0,1,.541.481,1.392,1.392,0,0,1,.2.771v4.236q0,.864.048,1.683a2.588,2.588,0,0,0,.487,1.416ZM236.373,399a1.626,1.626,0,0,0,1.062.337,1.506,1.506,0,0,0,.746-.182,1.732,1.732,0,0,0,.546-.479,2.033,2.033,0,0,0,.325-.68,2.977,2.977,0,0,0,.106-.785v-1.935l-1.037.518c-.357.177-.67.345-.937.487a3.968,3.968,0,0,0-.68.461,1.549,1.549,0,0,0-.411.538,1.67,1.67,0,0,0-.134.7,1.236,1.236,0,0,0,.414,1.022Z" fill="#191717"/>
      <path id="Path_474" data-name="Path 474" d="M244.211,393.928a3.186,3.186,0,0,0,.734.685,8.486,8.486,0,0,0,.954.558,6.058,6.058,0,0,1,.952.6,3.283,3.283,0,0,1,.734.781,1.978,1.978,0,0,1,.295,1.117,2.377,2.377,0,0,1-.295,1.2,2.732,2.732,0,0,1-.783.857,3.515,3.515,0,0,1-1.089.52,4.35,4.35,0,0,1-1.211.174,5.3,5.3,0,0,1-1.08-.106,6.359,6.359,0,0,1-1.036-.318.7.7,0,0,1-.237-.135.377.377,0,0,1-.087-.288q0-.347.038-.691c.026-.23.045-.47.059-.714.151.243.3.461.438.652a2.3,2.3,0,0,0,.478.487,1.947,1.947,0,0,0,.6.306,2.685,2.685,0,0,0,.812.106,1.969,1.969,0,0,0,1.329-.4,1.538,1.538,0,0,0,.469-1.231,1.649,1.649,0,0,0-.277-.971,2.834,2.834,0,0,0-.691-.691,7.609,7.609,0,0,0-.914-.557,5.639,5.639,0,0,1-.915-.6,2.9,2.9,0,0,1-.691-.806,2.306,2.306,0,0,1-.277-1.184,1.714,1.714,0,0,1,.771-1.577,4.008,4.008,0,0,1,2.124-.481,5.461,5.461,0,0,1,.867.068c.286.044.576.1.867.163a.913.913,0,0,0,.142.048.124.124,0,0,1,.1.126c0,.18,0,.393-.01.636s-.016.467-.028.674c-.191-.231-.36-.421-.505-.571a1.972,1.972,0,0,0-.447-.345,1.656,1.656,0,0,0-.477-.174,3.008,3.008,0,0,0-.576-.048,1.8,1.8,0,0,0-.992.28.978.978,0,0,0-.437.894A1.54,1.54,0,0,0,244.211,393.928Z" fill="#191717"/>
      <path id="Path_475" data-name="Path 475" d="M256.166,398.024c0,.359.014.728.038,1.107a2.294,2.294,0,0,0,.267.971H254.76v-5.281a8.85,8.85,0,0,0-.048-.921,2.374,2.374,0,0,0-.231-.83,1.561,1.561,0,0,0-.518-.6,1.587,1.587,0,0,0-.913-.231,1.509,1.509,0,0,0-1.47.849,2.63,2.63,0,0,0-.269.869,6.886,6.886,0,0,0-.067.963v3.1c0,.36.013.729.039,1.109a1.933,1.933,0,0,0,.313.974h-2.11a1.964,1.964,0,0,0,.3-.971c.026-.378.038-.747.038-1.106v-9.161a10.141,10.141,0,0,0-.056-1.115,1.122,1.122,0,0,0-.439-.806l1.9-.307v5.437a1.721,1.721,0,0,0,.008.209c.008.064.023.1.055.1s.115-.061.221-.183a3.013,3.013,0,0,1,.471-.4,3.542,3.542,0,0,1,.759-.4,2.83,2.83,0,0,1,1.066-.183,2.431,2.431,0,0,1,1.718.576,2.516,2.516,0,0,1,.624,1.922Z" fill="#191717"/>
    </g>
    <g id="Group_593" data-name="Group 593">
      <path id="Path_476" data-name="Path 476" d="M254.334,374.623l16.176,2.11-3.836,13.427Z" fill="#cb2056"/>
      <path id="Path_477" data-name="Path 477" d="M271.085,376.8l12.02,15.983-13.873,6.65L267.5,392.4a10.5,10.5,0,0,1,.256-4.539Z" fill="#cb2056"/>
      <path id="Path_478" data-name="Path 478" d="M283.552,392.653l-4.475-6.265,7.544-1.278Z" fill="#9e0c1a"/>
      <path id="Path_479" data-name="Path 479" d="M287.2,385.11l2.814,3.005h-4.092Z" fill="#9e0c1a"/>
      <path id="Path_480" data-name="Path 480" d="M271.661,398.983l11.444-5.69-.383,1.343Z" fill="#cc241d"/>
      <path id="Path_481" data-name="Path 481" d="M266.674,391.567l-4.8,16.112,7.289-5.759Z" fill="#890c17"/>
      <path id="Path_482" data-name="Path 482" d="M260.6,383.255l-4.667-5.946-1.789.064Z" fill="#9e0c1a"/>
      <path id="Path_483" data-name="Path 483" d="M267.4,391.51c.041.539.1.888.1.888l1.728,7.033,13.873-6.65-.126-.168Z" fill="#b30a1b"/>
    </g>
  </g>
</svg>
