<svg xmlns="http://www.w3.org/2000/svg" width="31.263" height="36.846" viewBox="0 0 31.263 36.846">
  <path id="shield-check-solid" d="M34.426,8.088a48.893,48.893,0,0,1-7.392-2.624A50.245,50.245,0,0,1,20.246,1.88l-.614-.38-.6.391A50.244,50.244,0,0,1,12.24,5.475a48.893,48.893,0,0,1-7.4,2.613L4,8.3v9.312c0,14.951,15.107,20.544,15.252,20.6l.38.134.38-.134c.156,0,15.252-5.639,15.252-20.6V8.3Zm-5.1,7.425L16.851,27.627,9.795,20.559a1.579,1.579,0,1,1,2.233-2.233l4.857,4.946L27.146,13.224a1.579,1.579,0,0,1,2.233,2.233Z" transform="translate(-4 -1.5)" fill="#23e70e"/>
</svg>
