<svg xmlns="http://www.w3.org/2000/svg" width="25" height="20.202" viewBox="0 0 25 20.202">
  <path id="add-shopping-cart" d="M4.385,7.875a1.01,1.01,0,0,0,0,2.02H6.628L9.278,20.5a2,2,0,0,0,1.956,1.516h12.6a1.988,1.988,0,0,0,1.926-1.485l2.618-9.627H26.26L23.829,20h-12.6L8.584,9.391A2,2,0,0,0,6.627,7.875ZM22.567,22.016a3.03,3.03,0,1,0,3.03,3.03A3.045,3.045,0,0,0,22.567,22.016Zm-9.091,0a3.03,3.03,0,1,0,3.03,3.03A3.045,3.045,0,0,0,13.476,22.016Zm3.03-14.141v3.03h-3.03v2.02h3.03v3.03h2.02v-3.03h3.03v-2.02h-3.03V7.875Zm-3.03,16.161a1.01,1.01,0,1,1-1.01,1.01A1,1,0,0,1,13.476,24.036Zm9.091,0a1.01,1.01,0,1,1-1.01,1.01A1,1,0,0,1,22.567,24.036Z" transform="translate(-3.375 -7.875)" fill="#fff"/>
</svg>
