<svg xmlns="http://www.w3.org/2000/svg" width="35.965" height="35.965" viewBox="0 0 35.965 35.965">
  <path id="dotlist" d="M33.732,20.23H15.75a2.144,2.144,0,0,1-1.6-.667,2.209,2.209,0,0,1-.65-1.6,2.149,2.149,0,0,1,.65-1.58,2.177,2.177,0,0,1,1.6-.65H33.732a2.22,2.22,0,0,1,2.248,2.23,2.211,2.211,0,0,1-.65,1.6A2.139,2.139,0,0,1,33.732,20.23Zm0-13.487H15.75a2.144,2.144,0,0,1-1.6-.667,2.209,2.209,0,0,1-.65-1.6,2.149,2.149,0,0,1,.65-1.58,2.177,2.177,0,0,1,1.6-.65H33.732a2.22,2.22,0,0,1,2.248,2.23,2.211,2.211,0,0,1-.65,1.6A2.139,2.139,0,0,1,33.732,6.743ZM4.511,35.964a4.334,4.334,0,0,1-3.179-1.317,4.494,4.494,0,0,1,0-6.357,4.325,4.325,0,0,1,3.179-1.317A4.335,4.335,0,0,1,7.69,28.29a4.5,4.5,0,0,1,0,6.358,4.339,4.339,0,0,1-3.179,1.317Zm0-13.487A4.334,4.334,0,0,1,1.332,21.16a4.494,4.494,0,0,1,0-6.357,4.325,4.325,0,0,1,3.179-1.317A4.335,4.335,0,0,1,7.69,14.8a4.5,4.5,0,0,1,0,6.358,4.339,4.339,0,0,1-3.179,1.317Zm0-13.487A4.334,4.334,0,0,1,1.332,7.673,4.324,4.324,0,0,1,.015,4.5,4.341,4.341,0,0,1,1.332,1.317,4.319,4.319,0,0,1,4.511,0,4.34,4.34,0,0,1,7.69,1.317,4.333,4.333,0,0,1,9.007,4.5,4.322,4.322,0,0,1,7.69,7.675,4.344,4.344,0,0,1,4.511,8.992ZM15.75,29.22H33.732a2.248,2.248,0,1,1,0,4.5H15.75a2.248,2.248,0,1,1,0-4.5Z" transform="translate(-0.015)" fill="#9a9fad"/>
</svg>
