<svg xmlns="http://www.w3.org/2000/svg" width="35.407" height="28.738" viewBox="0 0 35.407 28.738">
  <g id="layer1" transform="translate(0 -1038.362)">
    <path id="path4907" d="M24.342,2a6.6,6.6,0,0,0-4.184,11.743,13.8,13.8,0,0,0-2.5,1.081A6.622,6.622,0,1,0,6.9,20.4,14.215,14.215,0,0,0,.255,24.925L0,25.232v5.506H22.129V25.214l-.255-.307c-.227-.274-.478-.522-.722-.778H35.407V18.575l-.255-.307a14.966,14.966,0,0,0-1.163-1.253,14.091,14.091,0,0,0-5.459-3.276A6.6,6.6,0,0,0,24.342,2Zm0,2.213a4.426,4.426,0,1,1-4.426,4.426A4.409,4.409,0,0,1,24.342,4.213ZM11.065,10.852a4.426,4.426,0,1,1-4.426,4.426A4.409,4.409,0,0,1,11.065,10.852Zm13.693,4.417c.023,0,.046.008.069.009h-.221C24.657,15.279,24.707,15.267,24.757,15.269Zm-1.521.086V19.7h2.213V15.36a11.687,11.687,0,0,1,7.006,3.255c.26.25.5.522.739.8v2.507H18.5a13.794,13.794,0,0,0-3.259-1.526,6.663,6.663,0,0,0,1.954-2.585A11.618,11.618,0,0,1,23.236,15.355ZM9.958,21.964v4.378h2.213V21.964a11.754,11.754,0,0,1,7.006,3.289c.26.25.5.522.739.8v2.477H2.213v-2.4A11.87,11.87,0,0,1,9.958,21.964Z" transform="translate(0 1036.362)" fill="#fff"/>
  </g>
</svg>
