<svg xmlns="http://www.w3.org/2000/svg" width="31.756" height="24.956" viewBox="0 0 31.756 24.956">
  <path id="XMLID_1732_" d="M31.687,16.626,27.994,28.259a1.957,1.957,0,0,1-1.864,1.381H11.874a2.035,2.035,0,0,1-1.9-1.277l-5.454-14.6H1.381a1.381,1.381,0,1,1,0-2.761H5.488a1.413,1.413,0,0,1,1.312.932l5.626,14.946H25.543l2.934-9.32H12.219a1.381,1.381,0,0,1,0-2.761H30.375a1.372,1.372,0,0,1,1.1.587A1.339,1.339,0,0,1,31.687,16.626ZM12.564,31.469a2.239,2.239,0,1,0,1.588.656A2.276,2.276,0,0,0,12.564,31.469Zm12.392,0a2.239,2.239,0,1,0,1.588.656A2.276,2.276,0,0,0,24.956,31.469Z" transform="translate(0 -11)" fill="#fff"/>
</svg>
