<svg xmlns="http://www.w3.org/2000/svg" xmlns:xlink="http://www.w3.org/1999/xlink" width="246.215" height="67.956" viewBox="0 0 246.215 67.956">
  <defs>
    <linearGradient id="linear-gradient" x1="-345.761" y1="128.036" x2="-346.384" y2="126.928" gradientUnits="objectBoundingBox">
      <stop offset="0" stop-color="#f4c29d"/>
      <stop offset="1" stop-color="#f6cca8"/>
    </linearGradient>
  </defs>
  <g id="Group_90" data-name="Group 90" transform="translate(-308.999 -439.821)">
    <g id="Group_87" data-name="Group 87" transform="translate(309.001 439.821)">
      <g id="Group_84" data-name="Group 84" transform="translate(0 5.591)">
        <g id="Group_83" data-name="Group 83">
          <g id="Group_82" data-name="Group 82" transform="translate(4.778 8.929)">
            <path id="Path_112" data-name="Path 112" d="M325.338,454.559a1.669,1.669,0,0,0-.818-.528,14.629,14.629,0,0,0-1.981-.233,1.048,1.048,0,0,0-.536.094,1.239,1.239,0,0,0-.379.371c-.18.223-.276.361-.437.584a6.36,6.36,0,0,0-.518.756,1.213,1.213,0,0,0-.166.473,1.92,1.92,0,0,0,.038.4,3.2,3.2,0,0,1,.036.551.611.611,0,0,1,.02.214,1.62,1.62,0,0,1-.038.207c-.055.245-.1.293-.083.391a.29.29,0,0,0,.055.111.6.6,0,0,0,.637-.061c.073-.086.25-.321.184-1.016-.031-.329-.175-.635-.124-.821a.9.9,0,0,1,.295-.364,1.937,1.937,0,0,0,.563-.679c.129-.27.086-.409.242-.52a.541.541,0,0,1,.338-.078,5.787,5.787,0,0,1,1.084.127c.147.026.535.093.935.177a1.731,1.731,0,0,1,.4.131,1.8,1.8,0,0,1,.26.159.982.982,0,0,1,.238.637c0-.07,0-.139-.005-.207A1.56,1.56,0,0,0,325.338,454.559Z" transform="translate(-306.264 -445.186)" fill="#f6cca8"/>
            <path id="Path_113" data-name="Path 113" d="M323.251,455.212h0Z" transform="translate(-304.444 -444.26)" fill="#90d0d3"/>
            <path id="Path_114" data-name="Path 114" d="M325.618,454.619c-.074.063-.354.556-.536.8a1.862,1.862,0,0,1-.379.356c-.139.065-.083.055-.283.021-.286-.05-.252,0-.591-.043a8.8,8.8,0,0,0-.935-.177,1.048,1.048,0,0,0-.536.094,1.239,1.239,0,0,0-.379.371c-.18.223-.276.361-.437.584a6.36,6.36,0,0,0-.518.756,1.213,1.213,0,0,0-.166.473,1.92,1.92,0,0,0,.038.4c.065.535.036.622-.005.684-.071.1-.156.093-.321.175a1.081,1.081,0,0,0-.639.924.615.615,0,0,0,.319.487.719.719,0,0,0,.439.008,1.043,1.043,0,0,0,.594-.21c.023-.023.058-.06.086-.05.051.018.017.167.043.334a.718.718,0,0,0,.273.482.6.6,0,0,0,.48.078c.167-.048.222-.161.318-.131s.073.124.18.255a.633.633,0,0,0,.381.225c.225.023.3-.165.493-.119.114.028.1.1.27.217a.921.921,0,0,0,.54.17c.344-.051.467-.366.632-.526a.642.642,0,0,1,.362-.151,3.525,3.525,0,0,0,.958-.462,3.072,3.072,0,0,0,1.061-1.268,12.594,12.594,0,0,0,.723-1.822c.164-.42.367-.95.637-1.518.429-.9.639-1.094,1.233-2.138.159-.281.253-.46.339-.634l-1.6-2.185A32.018,32.018,0,0,1,325.618,454.619Z" transform="translate(-306.62 -446.966)" fill="#f4c29d"/>
            <path id="Path_115" data-name="Path 115" d="M325.688,457.45a1.984,1.984,0,0,1-.257-.44,1.228,1.228,0,0,1-.053-.415c-.058-.551-.819-.867-3.772-2.216l-.065.089a6.36,6.36,0,0,0-.518.756,1.213,1.213,0,0,0-.166.473,1.92,1.92,0,0,0,.038.4c.065.535.036.622-.005.684-.071.1-.156.093-.321.175a1.081,1.081,0,0,0-.639.924.615.615,0,0,0,.319.487.719.719,0,0,0,.439.008,1.043,1.043,0,0,0,.594-.21c.023-.023.058-.06.086-.05.051.018.017.167.043.334a.718.718,0,0,0,.273.482.6.6,0,0,0,.48.078c.167-.048.222-.161.318-.131s.073.124.18.255a.633.633,0,0,0,.381.225c.225.023.3-.165.493-.119.114.028.1.1.27.217a.921.921,0,0,0,.54.17c.344-.051.467-.366.632-.526a.614.614,0,0,1,.348-.147,2.606,2.606,0,0,0,.235-.45A1.306,1.306,0,0,0,325.688,457.45Z" transform="translate(-306.62 -444.806)" fill="#efbb97"/>
            <path id="Path_116" data-name="Path 116" d="M325.542,457.738h0a.536.536,0,0,0-.051-.293.811.811,0,0,0-.079-.117,1.118,1.118,0,0,1-.189-.346,1.287,1.287,0,0,1-.06-.439v-.013c-.051-.432-.793-.77-3.231-1.882l-.336-.154-.152.209a3.757,3.757,0,0,0-.346.52,1.035,1.035,0,0,0-.147.414l0,.012a.713.713,0,0,0,.013.165c.007.046.015.106.025.189a3.239,3.239,0,0,1,.038.571.4.4,0,0,1-.068.217.449.449,0,0,1-.25.174.93.93,0,0,0-.129.053,1,1,0,0,0-.554.7.557.557,0,0,0,0,.073.464.464,0,0,0,.23.359c.076.036.146.028.353,0a.923.923,0,0,0,.51-.171l.007,0a.231.231,0,0,1,.235-.078c.134.045.136.187.136.29a.953.953,0,0,0,.01.166.562.562,0,0,0,.207.379.447.447,0,0,0,.351.058.44.44,0,0,0,.131-.066.3.3,0,0,1,.275-.065.3.3,0,0,1,.184.187.588.588,0,0,0,.071.118.485.485,0,0,0,.276.169.262.262,0,0,0,.17-.05.45.45,0,0,1,.344-.065.358.358,0,0,1,.2.129.492.492,0,0,0,.122.109.785.785,0,0,0,.429.147.641.641,0,0,0,.4-.31c.046-.061.026.144.081.091a.99.99,0,0,1,.357-.266,4.928,4.928,0,0,0,.255-.544A2.272,2.272,0,0,0,325.542,457.738Z" transform="translate(-306.558 -444.73)" fill="#e8b18b"/>
            <g id="Group_67" data-name="Group 67" transform="translate(14.193 11.867)">
              <path id="Path_117" data-name="Path 117" d="M321.113,455.777c-.036-.02-.076-.012-.149,0a.6.6,0,0,0-.19.07.429.429,0,0,1-.17.043h-.013v.015l0,.043a1.466,1.466,0,0,1-.036.205c-.022.1-.041.161-.058.212a.333.333,0,0,0-.025.185l.005.013,0,0,0,.005,0,0a.349.349,0,0,0,.131.061.388.388,0,0,0,.291-.071.567.567,0,0,0,.223-.266.828.828,0,0,0,.066-.268C321.2,455.916,321.178,455.81,321.113,455.777Zm-.227.768a.369.369,0,0,1-.27.066.312.312,0,0,1-.114-.053l0,0,0-.007a.3.3,0,0,1,.025-.169c.015-.05.036-.118.06-.215.008-.041.03-.137.036-.209l0-.031a.437.437,0,0,0,.172-.048.587.587,0,0,1,.177-.065c.069-.013.1-.02.131-.007.084.045.083.295,0,.488A.553.553,0,0,1,320.887,456.545Z" transform="translate(-320.463 -455.765)"/>
            </g>
            <g id="Group_68" data-name="Group 68" transform="translate(16.732 12.784)">
              <path id="Path_118" data-name="Path 118" d="M322,456.544l0,.007h0l0,.012,0,.015.015-.005.01-.008.007-.012c.017-.03.06-.108.116-.218l-.026-.015C322.078,456.4,322.037,456.47,322,456.544Z" transform="translate(-321.997 -456.319)"/>
            </g>
            <g id="Group_71" data-name="Group 71" transform="translate(10.632 10.46)">
              <g id="Group_70" data-name="Group 70">
                <g id="Group_69" data-name="Group 69">
                  <path id="Path_119" data-name="Path 119" d="M324.611,455.094a2.51,2.51,0,0,0-2.547.468,9.657,9.657,0,0,0-2.732,3.394,19.516,19.516,0,0,0-1,2.243.221.221,0,1,0,.414.154,19,19,0,0,1,.978-2.185c1.721-3.242,3.636-4.167,4.689-3.653,1.263.616,1.7,3.4-.266,8.071a.227.227,0,0,0,.111.3h0a.227.227,0,0,0,.3-.131C326.647,458.778,326.1,455.822,324.611,455.094Z" transform="translate(-318.311 -454.915)" fill="#fff"/>
                </g>
              </g>
              <path id="Path_120" data-name="Path 120" d="M325.1,460.857a12.354,12.354,0,0,0,.391-2.153,6.779,6.779,0,0,0-.008-1.455,3.425,3.425,0,0,0-.314-1.15,1.756,1.756,0,0,0-.579-.733,1.557,1.557,0,0,0-.884-.258,1.967,1.967,0,0,0-.573.1,3.087,3.087,0,0,0-.69.293,4.075,4.075,0,0,0-.554.389,7.089,7.089,0,0,0-.571.515,8.929,8.929,0,0,0-.72.829,12.351,12.351,0,0,0-.768,1.109,14.1,14.1,0,0,0-1.016,2.042c-.118.29-.242.624-.362,1a.239.239,0,0,0,.2-.156,19,19,0,0,1,.978-2.185c1.721-3.242,3.636-4.167,4.689-3.653,1.263.616,1.7,3.4-.266,8.071a.231.231,0,0,0,.05.258c.129-.328.268-.693.414-1.091C324.789,461.872,324.94,461.457,325.1,460.857Z" transform="translate(-318.221 -454.788)" fill="#fff"/>
            </g>
            <path id="Path_121" data-name="Path 121" d="M317.38,456.51l-1.361,3.239,13.171,5.534,1.345-3.322Z" transform="translate(-309.181 -443.409)" fill="#ed5448"/>
            <path id="Path_122" data-name="Path 122" d="M319.189,457.258l-7.3,15.457,15.059,6.326,5.928-16.033Z" transform="translate(-311.887 -442.92)" fill="tomato"/>
            <path id="Path_123" data-name="Path 123" d="M330.222,460.058c-.189.9-.409,1.731-.612,2.426-.316,1.076-.632,1.893-1.264,3.53a11.032,11.032,0,0,1-1.178,2.415,4.145,4.145,0,0,1-1.615,1.625,3.622,3.622,0,0,1-1.839.326c-.97-.056-2.7-.766-6.853-2.5-.8-.334-1.8-.763-2.953-1.279l-2.019,4.273,15.059,6.327,5.928-16.034Z" transform="translate(-311.887 -441.086)" fill="#ed5448"/>
            <path id="Path_124" data-name="Path 124" d="M327.085,461.415l3.269.546L317.2,456.51l2.689,1.968s-3.54-.842-3.588-.73c-.073.172,13.629,5.887,13.685,5.749A31.4,31.4,0,0,0,327.085,461.415Z" transform="translate(-308.998 -443.41)" fill="tomato"/>
            <g id="Group_72" data-name="Group 72" transform="translate(10.007 16.785)">
              <path id="Path_125" data-name="Path 125" d="M318.814,458.786a.636.636,0,1,0,.338.831A.636.636,0,0,0,318.814,458.786Zm-.359.852a.289.289,0,1,1,.377-.154A.287.287,0,0,1,318.455,459.638Z" transform="translate(-317.934 -458.736)" fill="#9b9d9e"/>
            </g>
            <path id="Path_126" data-name="Path 126" d="M327.895,462.02l-1.819-1.195c-.113-.073-6.438-2.7-6.57-2.727l-2.087-.468c-.154-.033-.185.116-.038.18,2.994,1.284,7.49,3.168,10.413,4.363C327.941,462.233,328.026,462.106,327.895,462.02Z" transform="translate(-308.352 -442.68)" fill="#ce4741"/>
            <path id="Path_127" data-name="Path 127" d="M318.557,458.912a.326.326,0,1,0,.174.425A.325.325,0,0,0,318.557,458.912Z" transform="translate(-307.814 -441.853)" fill="#0d3d4c"/>
            <g id="Group_73" data-name="Group 73" transform="translate(15.93 19.285)">
              <path id="Path_128" data-name="Path 128" d="M322.4,460.3a.63.63,0,1,0,.349.831A.638.638,0,0,0,322.4,460.3Zm-.356.846a.287.287,0,1,1,.382-.152A.29.29,0,0,1,322.043,461.144Z" transform="translate(-321.513 -460.247)" fill="#9b9d9e"/>
            </g>
            <circle id="Ellipse_10" data-name="Ellipse 10" cx="0.325" cy="0.325" r="0.325" transform="translate(16.216 19.522)" fill="#0d3d4c"/>
            <g id="Group_74" data-name="Group 74" transform="translate(10.028 16.772)">
              <path id="Path_129" data-name="Path 129" d="M318.768,458.775a.592.592,0,1,0,.318.776A.593.593,0,0,0,318.768,458.775Zm-.334.794a.27.27,0,1,1,.354-.144A.272.272,0,0,1,318.434,459.57Z" transform="translate(-317.946 -458.729)" fill="#bababa"/>
            </g>
            <g id="Group_75" data-name="Group 75" transform="translate(15.951 19.261)">
              <path id="Path_130" data-name="Path 130" d="M322.347,460.278a.593.593,0,1,0,.318.776A.6.6,0,0,0,322.347,460.278Zm-.334.8a.27.27,0,1,1,.354-.144A.273.273,0,0,1,322.013,461.074Z" transform="translate(-321.525 -460.232)" fill="#bababa"/>
            </g>
            <g id="Group_77" data-name="Group 77" transform="translate(8.198 13.1)">
              <g id="Group_76" data-name="Group 76">
                <path id="Path_131" data-name="Path 131" d="M316.843,456.51c-.045-.018.515.391.559.41l11.909,4.922c.046.018.731.137.687.119Z" transform="translate(-316.84 -456.51)" fill="#f05f53"/>
              </g>
            </g>
            <path id="Path_132" data-name="Path 132" d="M318.215,459.191a.148.148,0,0,0-.19-.07.146.146,0,0,0-.01.2.126.126,0,1,0,.2-.132Z" transform="translate(-307.897 -441.709)" fill="#d6d6d6"/>
            <path id="Path_133" data-name="Path 133" d="M321.777,460.655a.126.126,0,1,0-.2.132.148.148,0,0,0,.19.07A.145.145,0,0,0,321.777,460.655Z" transform="translate(-305.563 -440.751)" fill="#d6d6d6"/>
            <g id="Group_80" data-name="Group 80" transform="translate(10.383 11.158)">
              <g id="Group_79" data-name="Group 79">
                <g id="Group_78" data-name="Group 78">
                  <path id="Path_134" data-name="Path 134" d="M324.468,455.529a2.614,2.614,0,0,0-2.6.4,8.967,8.967,0,0,0-2.721,3.265,17.832,17.832,0,0,0-.976,2.176.227.227,0,0,0,.136.293h0a.226.226,0,0,0,.29-.134,17.378,17.378,0,0,1,.953-2.118c1.688-3.14,3.626-4.005,4.715-3.477,1.3.632,1.816,3.37-.1,7.9a.227.227,0,0,0,.119.3h0a.228.228,0,0,0,.3-.121C326.631,459.185,326.009,456.276,324.468,455.529Z" transform="translate(-318.161 -455.336)" fill="#fff"/>
                </g>
                <path id="Path_135" data-name="Path 135" d="M325.094,461.19a11.432,11.432,0,0,0,.352-2.1,6.251,6.251,0,0,0-.041-1.425,3.347,3.347,0,0,0-.348-1.134,1.834,1.834,0,0,0-.607-.732,1.7,1.7,0,0,0-.909-.271,2.044,2.044,0,0,0-.584.084,3.166,3.166,0,0,0-.7.271,3.936,3.936,0,0,0-.558.371,6.307,6.307,0,0,0-.573.49,8.847,8.847,0,0,0-.718.8,10.981,10.981,0,0,0-.76,1.071,12.683,12.683,0,0,0-1,1.978c-.114.281-.233.606-.349.97a.227.227,0,0,0,.2-.147,17.378,17.378,0,0,1,.953-2.118c1.688-3.14,3.626-4.005,4.715-3.477,1.3.632,1.816,3.37-.1,7.9a.226.226,0,0,0,.056.255c.126-.319.26-.674.4-1.059A16.954,16.954,0,0,0,325.094,461.19Z" transform="translate(-318.068 -455.212)" fill="#fff"/>
              </g>
            </g>
            <path id="Path_136" data-name="Path 136" d="M322.008,456.462l0,0Z" transform="translate(-305.26 -443.441)" fill="#f4c29d"/>
            <path id="Path_137" data-name="Path 137" d="M325.451,457.144c-.018-.222-.03-.351-.131-.429s-.212-.06-.24-.142c-.013-.041.01-.068.033-.144a.679.679,0,0,0,.01-.338.518.518,0,0,0-.237-.288.455.455,0,0,0-.351-.04.481.481,0,0,0-.169.112c-.113.108-.1.184-.217.265a.94.94,0,0,0-.116.071.586.586,0,0,0-.121.161c-.074.126-.116.2-.134.233a3.238,3.238,0,0,1-.2.273c-.035.05-.066.1-.093.142-.068.131-.116.215-.122.228l0,0,0,0a2.162,2.162,0,0,1,.122-.228c.068-.132.156-.311.237-.515.035-.086.071-.2.141-.424a1.007,1.007,0,0,0,.065-.392.419.419,0,0,0-.02-.132.515.515,0,0,0-.405-.295.67.67,0,0,0-.551.212,1.512,1.512,0,0,0-.21.374,4.373,4.373,0,0,0-.227.52c-.046.149-.079.306-.17.326-.031.007-.053-.007-.126,0s-.106.035-.126.022c-.036-.026,0-.132.012-.175a2.8,2.8,0,0,1,.146-.291.847.847,0,0,0,.06-.209c.01-.06.083-.473-.152-.65a.345.345,0,0,0-.185-.071c-.261-.013-.445.334-.611.53a1.328,1.328,0,0,1-.468.341l-.005.007c-.071.1-.156.093-.321.175a1.081,1.081,0,0,0-.639.924.615.615,0,0,0,.319.487.719.719,0,0,0,.439.008,1.043,1.043,0,0,0,.594-.21c.023-.023.058-.06.086-.05.051.018.017.167.043.334a.718.718,0,0,0,.273.482.6.6,0,0,0,.48.078c.167-.048.222-.161.318-.131s.073.124.18.255a.633.633,0,0,0,.381.225c.225.023.3-.165.493-.119.114.028.1.1.27.217a.921.921,0,0,0,.54.17c.344-.051.467-.366.632-.526a.434.434,0,0,1,.055-.045c.031-.058.065-.118.1-.18a2.628,2.628,0,0,0,.263-.495A1.541,1.541,0,0,0,325.451,457.144Z" transform="translate(-306.62 -444.23)" fill="#f4c29d"/>
            <path id="Path_138" data-name="Path 138" d="M323.126,456.006c0-.177-.218-.357-.44-.4a.565.565,0,0,0-.462.132c-.129.141-.04.26-.192.616a.561.561,0,0,1-.209.3.881.881,0,0,1-.295.106.282.282,0,0,0-.129.04.268.268,0,0,0-.089.093c-.1.161-.228.3-.324.462a1.9,1.9,0,0,1-.164.233l.007.048a.718.718,0,0,0,.273.482.6.6,0,0,0,.48.078c.154-.043.212-.141.295-.134a.483.483,0,0,1,.121-.139,2.262,2.262,0,0,0,.21-.167,1.406,1.406,0,0,0,.149-.149,1.012,1.012,0,0,0,.147-.3c.043-.1.1-.21.212-.42.1-.18.109-.185.2-.356a3.133,3.133,0,0,0,.142-.314A.75.75,0,0,0,323.126,456.006Z" transform="translate(-306.035 -444.003)" fill="#f4c8a6"/>
            <path id="Path_139" data-name="Path 139" d="M321.86,456.3a.856.856,0,0,0,.121-.324.833.833,0,0,0-.1-.6,4.382,4.382,0,0,0-1.263.715,1.086,1.086,0,0,0-.136.865c.262.42.877-.008.937-.056a1.929,1.929,0,0,0,.361-.367S321.736,456.488,321.86,456.3Z" transform="translate(-306.287 -444.156)" fill="#f2bc97"/>
            <path id="Path_140" data-name="Path 140" d="M322.271,455.264a.553.553,0,0,0-.253.023,1.533,1.533,0,0,0-.111.2c-.068.154-.121.273-.071.391a.393.393,0,0,0,.139.161.378.378,0,0,0,.162.081.268.268,0,0,0,.207-.018,1.956,1.956,0,0,0,.218-.374c.028-.058.061-.129.094-.214A.54.54,0,0,0,322.271,455.264Z" transform="translate(-305.384 -444.229)" fill="#efd3bf"/>
            <path id="Path_141" data-name="Path 141" d="M322.149,455.712a.24.24,0,0,0-.166-.048.26.26,0,0,0-.121.04.652.652,0,0,0,.081.071.378.378,0,0,0,.162.081.363.363,0,0,0,.129.01A.249.249,0,0,0,322.149,455.712Z" transform="translate(-305.353 -443.964)" fill="#f9ebe1"/>
            <path id="Path_142" data-name="Path 142" d="M322.223,455.264a.553.553,0,0,0-.253.023c-.031.048-.058.094-.079.136a.589.589,0,0,1,.369.01.579.579,0,0,1,.288.228c.02-.043.04-.091.061-.146A.54.54,0,0,0,322.223,455.264Z" transform="translate(-305.336 -444.229)" fill="#f9ebe1"/>
            <path id="Path_143" data-name="Path 143" d="M323.182,455.731c-.108-.156-.161-.235-.23-.233-.04,0-.048.025-.263.3a.886.886,0,0,0-.132.212.32.32,0,0,0-.038.166.285.285,0,0,0,.106.18.3.3,0,0,0,.258.069,1.5,1.5,0,0,0,.424-.435C323.315,455.923,323.27,455.859,323.182,455.731Z" transform="translate(-304.925 -444.073)" fill="#efd3bf"/>
            <path id="Path_144" data-name="Path 144" d="M322.518,455.879a.188.188,0,0,0,0,.043.285.285,0,0,0,.106.18.372.372,0,0,0,.116.065.216.216,0,0,0-.01-.179A.228.228,0,0,0,322.518,455.879Z" transform="translate(-304.925 -443.823)" fill="#f9ebe1"/>
            <path id="Path_145" data-name="Path 145" d="M323.043,455.731c-.108-.156-.161-.235-.23-.233-.023,0-.035.008-.083.068a1.327,1.327,0,0,1,.235.273,1.274,1.274,0,0,1,.129.263.282.282,0,0,0,.073-.116C323.175,455.923,323.13,455.859,323.043,455.731Z" transform="translate(-304.785 -444.073)" fill="#f9ebe1"/>
            <path id="Path_146" data-name="Path 146" d="M323.1,456.179c-.083.142-.076.147-.121.212-.073.107-.106.116-.1.16a.2.2,0,0,0,.222.159c.051-.01.081-.045.132-.109a.528.528,0,0,0,.137-.26C323.387,456.177,323.2,456,323.1,456.179Z" transform="translate(-304.691 -443.674)" fill="#efd3bf"/>
            <path id="Path_147" data-name="Path 147" d="M323.015,456.164a.609.609,0,0,1,.113.084.641.641,0,0,1,.126.167.483.483,0,0,0,.02-.075C323.295,456.182,323.119,456.015,323.015,456.164Z" transform="translate(-304.599 -443.674)" fill="#f4eae4"/>
            <path id="Path_148" data-name="Path 148" d="M321.557,456.144v-.074l-.053.053a2.008,2.008,0,0,0-.2.225c-.01.015-.056.078-.114.157l-.079.114c-.041.058-.06.084-.094.126a.743.743,0,0,1-.076.081l-.084.084a1.264,1.264,0,0,1-.083.1c.061-.035.061.035.066.068l0,.046c.028-.025.07-.07.089-.089a.891.891,0,0,0,.089-.1,1.45,1.45,0,0,0,.132-.184l.01-.015c.066-.1.1-.147.111-.167a2.215,2.215,0,0,1,.184-.242c.033-.038.073-.079.114-.119l.046-.046-.065-.007A.13.13,0,0,1,321.557,456.144Z" transform="translate(-306.065 -443.698)" fill="#efb892"/>
            <path id="Path_149" data-name="Path 149" d="M321.528,456.161a.052.052,0,0,1-.015-.046,1.936,1.936,0,0,0-.2.222l-.113.157c-.106.147-.124.179-.175.24s-.068.071-.162.169l-.069.073h0c.02.007.026.035.03.074.023-.02.048-.041.069-.063a1.158,1.158,0,0,0,.088-.094,1.684,1.684,0,0,0,.139-.2c.065-.1.1-.147.111-.169a2.68,2.68,0,0,1,.187-.243c.03-.035.07-.076.116-.121Z" transform="translate(-306.051 -443.668)" fill="#e5b28f"/>
            <path id="Path_150" data-name="Path 150" d="M322.343,456.45l-.03.041-.04.061-.018.036-.016.031-.1.2h0c-.02.04-.038.079-.058.121l-.005.012c-.017.036-.033.071-.051.1l-.008.012c-.018.033-.038.068-.058.1s-.025.035-.036.05a.359.359,0,0,1-.041.045.4.4,0,0,1-.045.038l-.056.038c-.041.03-.076.056-.109.084l-.015.013c-.012.012-.025.021-.036.035l-.045.05a1.244,1.244,0,0,0-.086.106l.046.04c.033-.031.066-.06.1-.088l.05-.041.026-.023.023-.022c.03-.025.063-.051.1-.078l.056-.038a.461.461,0,0,0,.056-.048c.017-.017.033-.035.048-.053a.383.383,0,0,0,.041-.056c.023-.035.043-.07.063-.1l.007-.013c.022-.036.038-.074.056-.111l0-.012c.018-.04.038-.078.058-.119l.1-.194.017-.033.015-.028.04-.061c.008-.013.086-.225.086-.225C322.454,456.345,322.348,456.443,322.343,456.45Z" transform="translate(-305.6 -443.538)" fill="#efb892"/>
            <path id="Path_151" data-name="Path 151" d="M322.329,456.5l-.04.063-.018.033-.015.033-.033.065-.068.131v0c-.02.04-.04.079-.058.121s-.036.079-.058.117-.043.076-.068.113a.616.616,0,0,1-.038.053c-.013.017-.028.031-.043.048a.6.6,0,0,1-.05.041l-.055.036c-.036.026-.071.053-.106.083a.639.639,0,0,0-.05.045l-.045.05c-.028.035-.058.068-.084.1l.1-.089.051-.041c.017-.015.031-.031.048-.045.033-.028.068-.055.1-.081l.055-.036a.453.453,0,0,0,.053-.045c.015-.015.031-.033.046-.05l.04-.055c.025-.038.046-.078.068-.116a1.014,1.014,0,0,0,.06-.121c.018-.04.038-.079.058-.117v0l.066-.127.035-.065.015-.033.016-.03.04-.061.035-.065.07-.129c-.03.04-.06.078-.088.117C322.358,456.461,322.343,456.48,322.329,456.5Z" transform="translate(-305.59 -443.532)" fill="#e5b28f"/>
            <path id="Path_152" data-name="Path 152" d="M323.51,456.332l-.061.1a1.964,1.964,0,0,1-.118.185l-.033.045-.106.129,0,0c-.025.03-.05.056-.075.081l-.051.048-.031.028a1.084,1.084,0,0,0-.081.088c-.02.028-.04.058-.065.1s-.065.112-.094.167l-.017.03c-.025.045-.048.091-.071.136l-.033.065c-.033.063-.068.122-.109.194a1.053,1.053,0,0,1-.06.089c-.021.025-.046.051-.073.078a.91.91,0,0,1-.084.066,1.056,1.056,0,0,1-.088.061.761.761,0,0,1-.1.048c-.03.015-.113.063-.159.094a.255.255,0,0,1,.179-.023,1.152,1.152,0,0,0,.116-.046c.036-.018.071-.038.1-.058a.738.738,0,0,0,.093-.076.65.65,0,0,0,.081-.086.68.68,0,0,0,.066-.1c.036-.058.076-.127.113-.2l.035-.068c.023-.043.046-.088.07-.132l.016-.03c.03-.055.061-.111.093-.166.023-.036.041-.064.06-.089a.815.815,0,0,1,.071-.078l.028-.026.055-.051c.026-.025.051-.053.079-.084h0l.073-.089.038-.045.035-.048c.045-.061.084-.127.122-.19l.061-.108.132-.329C323.679,456.112,323.51,456.332,323.51,456.332Z" transform="translate(-305.262 -443.713)" fill="#efb892"/>
            <path id="Path_153" data-name="Path 153" d="M323.51,456.343l-.058.1c-.04.066-.078.131-.122.192l-.033.046-.036.043-.071.088,0,0c-.025.028-.05.055-.076.081s-.055.051-.083.076a.944.944,0,0,0-.078.084c-.023.031-.043.065-.063.1-.038.066-.074.132-.109.2s-.071.134-.1.2-.075.131-.113.2a.815.815,0,0,1-.061.093.933.933,0,0,1-.161.149,1.12,1.12,0,0,1-.093.063.777.777,0,0,1-.1.05.808.808,0,0,1-.106.041,1.053,1.053,0,0,0,.109-.03.853.853,0,0,0,.106-.043.734.734,0,0,0,.1-.056.759.759,0,0,0,.089-.071.945.945,0,0,0,.079-.084.867.867,0,0,0,.063-.094c.04-.066.076-.131.112-.2s.068-.134.1-.2.071-.132.109-.2a.983.983,0,0,1,.061-.093.574.574,0,0,1,.075-.081c.026-.026.055-.051.083-.078s.053-.055.078-.083l0,0,.074-.089.036-.046.035-.046c.046-.063.084-.129.124-.2l.058-.1.053-.1.108-.2-.126.194Z" transform="translate(-305.236 -443.709)" fill="#e5b28f"/>
            <path id="Path_154" data-name="Path 154" d="M322.315,456.153a.379.379,0,0,0-.323-.035c-.118.066-.075.207-.225.309a.648.648,0,0,1-.172.076,1.429,1.429,0,0,0-.214.061.424.424,0,0,0-.086.05c-.055.046-.06.091-.1.164-.051.094-.073.079-.146.194a.444.444,0,0,0-.091.185c-.008.151.165.271.237.319a.723.723,0,0,0,.252.113.547.547,0,0,0,.268.018.834.834,0,0,0,.253-.147,1.035,1.035,0,0,0,.222-.187.791.791,0,0,0,.093-.147c.061-.121.041-.146.1-.27s.073-.109.126-.233a.426.426,0,0,0,.058-.189C322.553,456.27,322.351,456.169,322.315,456.153Z" transform="translate(-305.946 -443.683)" fill="#f7d0b0"/>
            <path id="Path_155" data-name="Path 155" d="M322.807,456.83c-.081-.293-.1-.338-.142-.391-.012-.013-.113-.126-.18-.1-.025.01-.033.033-.068.094s-.068.109-.1.164c-.093.162-.089.139-.137.227-.06.113-.051.122-.124.261a.892.892,0,0,1-.111.18.881.881,0,0,1-.142.127c-.132.1-.2.119-.2.167,0,.018.008.045.1.106a.683.683,0,0,0,.319.144.661.661,0,0,0,.439-.122.865.865,0,0,0,.331-.4.578.578,0,0,0,.061-.238A.713.713,0,0,0,322.807,456.83Z" transform="translate(-305.523 -443.524)" fill="#f4c8a6"/>
            <path id="Path_156" data-name="Path 156" d="M323.245,457.1c-.03-.074-.114-.068-.232-.154s-.137-.18-.192-.172-.051.071-.146.275a1.8,1.8,0,0,1-.159.286.8.8,0,0,1-.126.151c-.108.094-.189.1-.194.152-.007.068.131.132.139.136a.556.556,0,0,0,.42-.013.85.85,0,0,0,.472-.518A.191.191,0,0,0,323.245,457.1Z" transform="translate(-305.135 -443.236)" fill="#f4c8a6"/>
            <path id="Path_157" data-name="Path 157" d="M324.655,454.56a1.669,1.669,0,0,0-.818-.528.769.769,0,0,1-.455-.013c-.286-.05-.252,0-.591-.043a8.8,8.8,0,0,0-.935-.177,1.457,1.457,0,0,0-.329.022.131.131,0,0,0,0,.1c.031.056.129.055.223.06a4.986,4.986,0,0,1,.579.114c.526.091.465.1.725.132.182.025.349.048.576.063a2.182,2.182,0,0,1,.516.074,1.79,1.79,0,0,1,.237.089,1.231,1.231,0,0,1,.42.389A1.054,1.054,0,0,0,324.655,454.56Z" transform="translate(-305.582 -445.186)" fill="#f9d5b4"/>
            <path id="Path_158" data-name="Path 158" d="M323.474,453.975a8.8,8.8,0,0,0-.935-.177,1.048,1.048,0,0,0-.536.094,1.239,1.239,0,0,0-.379.371c-.18.223-.276.361-.437.584a6.36,6.36,0,0,0-.518.756,1.213,1.213,0,0,0-.166.473,1.92,1.92,0,0,0,.038.4,3.2,3.2,0,0,1,.036.551.611.611,0,0,1,.02.214,1.62,1.62,0,0,1-.038.207c-.055.245-.1.293-.083.391a.351.351,0,0,0,.194.223A.551.551,0,0,0,321.1,458a.736.736,0,0,0,.265-.146c.088-.079.084-.121.235-.357.113-.179.119-.162.172-.263a.871.871,0,0,0,.137-.387c.01-.218-.116-.313-.045-.444.023-.045.035-.03.117-.113.122-.124.111-.167.243-.324.084-.1.074-.066.19-.2.066-.074.086-.1.129-.111.066-.012.114.043.2.1a1.936,1.936,0,0,0,.288.131,4.7,4.7,0,0,0,.783.319,1.017,1.017,0,0,1,.391.083c.084.045.106.081.22.147a1.063,1.063,0,0,0,.31.132.766.766,0,0,0,.664-.338,1.159,1.159,0,0,0,.167-.8,1.56,1.56,0,0,0-.235-.875,1.669,1.669,0,0,0-.818-.528.769.769,0,0,1-.455-.013C323.779,453.969,323.813,454.018,323.474,453.975Z" transform="translate(-306.264 -445.186)" fill="url(#linear-gradient)"/>
            <path id="Path_159" data-name="Path 159" d="M321.228,456.786a1.725,1.725,0,0,0-.041-.333c-.025-.083-.058-.157-.119-.351a.378.378,0,0,1-.033-.157c.013-.114.114-.182.2-.25.015-.012.121-.136.336-.384a3.094,3.094,0,0,0,.415-.588c.144-.273.25-.472.164-.6a.4.4,0,0,0-.321-.182c-.051.055-.114.126-.2.233-.18.223-.276.361-.437.584a6.36,6.36,0,0,0-.518.756,1.213,1.213,0,0,0-.166.473,1.92,1.92,0,0,0,.038.4,3.2,3.2,0,0,1,.036.551.611.611,0,0,1,.02.214,1.62,1.62,0,0,1-.038.207c-.055.245-.1.293-.083.391a.3.3,0,0,0,.058.116.606.606,0,0,0,.212.058.455.455,0,0,0,.381-.237.887.887,0,0,0,.109-.379A2.206,2.206,0,0,0,321.228,456.786Z" transform="translate(-306.264 -445.094)" fill="#f7d0b0"/>
            <path id="Path_160" data-name="Path 160" d="M321.792,455.063l-.005-.075a1.449,1.449,0,0,0-.02-.164,2.423,2.423,0,0,0-.068-.3c-.025-.079-.045-.131-.045-.131s.017.053.036.134a2.07,2.07,0,0,1,.05.3c.007.056.008.111.01.162,0,.026,0,.05,0,.074l0,.066c0,.083-.013.156-.013.156l.069-.017-.008-.139Z" transform="translate(-305.49 -444.794)" fill="#dda885"/>
            <path id="Path_161" data-name="Path 161" d="M321.667,454.971Z" transform="translate(-305.482 -444.418)" fill="#dda885"/>
            <path id="Path_162" data-name="Path 162" d="M321.727,455.1l-.031-.084c-.012-.031-.023-.066-.036-.1-.051-.134-.116-.26-.116-.26s.06.129.1.263c.01.033.021.068.031.1l.025.088c.007.025.01.046.013.061l.007.035.025-.028,0-.013A.452.452,0,0,0,321.727,455.1Z" transform="translate(-305.563 -444.623)" fill="#dda885"/>
            <path id="Path_163" data-name="Path 163" d="M321.56,455.278a.935.935,0,0,0-.065-.162,1.43,1.43,0,0,0-.086-.149l-.046-.063s.018.027.041.066a1.165,1.165,0,0,1,.079.152.769.769,0,0,1,.051.161.482.482,0,0,1,.008.055c0,.013,0,.045,0,.045l.027-.041A.432.432,0,0,0,321.56,455.278Z" transform="translate(-305.681 -444.462)" fill="#dda885"/>
            <path id="Path_164" data-name="Path 164" d="M321.831,454.8a1.4,1.4,0,0,0-.008-.207.911.911,0,0,0-.041-.175.755.755,0,0,0-.046-.117l-.02-.045.02.045a1.1,1.1,0,0,1,.043.119.929.929,0,0,1,.036.175,1.38,1.38,0,0,1,0,.2c0,.071-.005.141-.008.207s-.007.126-.01.179c-.008.1-.016.174-.016.174l.033.015s0-.083.007-.189S321.831,454.943,321.831,454.8Z" transform="translate(-305.45 -444.884)" fill="#dda885"/>
            <path id="Path_165" data-name="Path 165" d="M320.946,455.785a.881.881,0,0,1-.346.109,1.164,1.164,0,0,1-.04.214,1.618,1.618,0,0,0-.089.344.125.125,0,0,0,.023.084c.017.017.038.021.1.028a.6.6,0,0,0,.175,0,.38.38,0,0,0,.124-.079c.175-.137.164-.116.172-.129A1.515,1.515,0,0,0,320.946,455.785Z" transform="translate(-306.265 -443.885)" fill="#efd3bf"/>
            <path id="Path_166" data-name="Path 166" d="M320.734,455.85a.422.422,0,0,1-.177.045l0,.045c0,.025-.013.053-.018.081a.41.41,0,0,0,.164-.03.394.394,0,0,0,.2-.205A.667.667,0,0,0,320.734,455.85Z" transform="translate(-306.222 -443.885)" fill="#f9ebe1"/>
            <path id="Path_167" data-name="Path 167" d="M320.843,456.24a.578.578,0,0,1-.242.031.553.553,0,0,1-.127-.03.189.189,0,0,0,0,.068l.007.017a.333.333,0,0,0,.124.06.376.376,0,0,0,.281-.07.534.534,0,0,0,.179-.185A.946.946,0,0,1,320.843,456.24Z" transform="translate(-306.264 -443.658)" fill="#f9ebe1"/>
            <path id="Path_168" data-name="Path 168" d="M321.945,456.58a1.251,1.251,0,0,1-.187-.1l-.046-.031-.045-.035c-.028-.023-.053-.046-.074-.066s-.038-.036-.05-.05l-.018-.02a.533.533,0,0,0,.056.081.685.685,0,0,0,.068.075l.045.038.048.035a.687.687,0,0,0,.1.056.741.741,0,0,0,.094.035.557.557,0,0,0,.1.02l-.025-.008Z" transform="translate(-305.575 -443.562)" fill="#e8b795"/>
            <path id="Path_169" data-name="Path 169" d="M321.946,456.449c-.04-.028-.093-.065-.147-.1l-.041-.025-.043-.021-.075-.036-.053-.025-.022-.008.018.013.048.035.07.045.04.023.041.026c.055.033.111.065.154.086l.053.026.022.008-.018-.013Z" transform="translate(-305.548 -443.589)" fill="#e8b795"/>
            <path id="Path_170" data-name="Path 170" d="M322.027,456.367a.539.539,0,0,0-.07-.068.547.547,0,0,0-.094-.063l-.051-.023a.332.332,0,0,0-.053-.018.427.427,0,0,0-.094-.018.416.416,0,0,0-.094,0l.025,0a.525.525,0,0,1,.066.013.867.867,0,0,1,.089.026l.05.02.05.025a.834.834,0,0,1,.164.114l.05.046.017.018-.013-.022A.465.465,0,0,0,322.027,456.367Z" transform="translate(-305.545 -443.63)" fill="#e8b795"/>
            <path id="Path_171" data-name="Path 171" d="M322.387,456.741a1.142,1.142,0,0,1-.144-.132c-.025-.026-.046-.055-.068-.081s-.036-.051-.051-.074l-.035-.056-.012-.022a.543.543,0,0,0,.03.086.882.882,0,0,0,.046.083l.031.043.035.041a.557.557,0,0,0,.079.074.481.481,0,0,0,.078.051.511.511,0,0,0,.081.04l-.02-.015Z" transform="translate(-305.212 -443.498)" fill="#e8b795"/>
            <path id="Path_172" data-name="Path 172" d="M322.448,456.639c-.035-.038-.084-.088-.134-.134s-.1-.091-.144-.122l-.051-.038-.018-.015.015.018.041.046c.036.038.084.086.136.134s.1.091.144.124l.05.038.02.013-.017-.018Z" transform="translate(-305.198 -443.528)" fill="#e8b795"/>
            <path id="Path_173" data-name="Path 173" d="M322.522,456.565a.545.545,0,0,0-.048-.081.385.385,0,0,0-.035-.04.291.291,0,0,0-.04-.038.285.285,0,0,0-.045-.033c-.015-.01-.03-.018-.045-.026a.491.491,0,0,0-.088-.033.344.344,0,0,0-.089-.012l.023.007c.015,0,.036.012.06.022a.618.618,0,0,1,.081.04l.041.028a.391.391,0,0,1,.041.031.591.591,0,0,1,.073.071.619.619,0,0,1,.053.073.487.487,0,0,1,.033.055l.012.022A.444.444,0,0,0,322.522,456.565Z" transform="translate(-305.176 -443.546)" fill="#e8b795"/>
            <path id="Path_174" data-name="Path 174" d="M322.778,456.856l-.06-.04-.05-.036-.051-.036a.345.345,0,0,0,.04.05.376.376,0,0,0,.045.045c.018.015.04.03.06.043a.519.519,0,0,0,.126.058.267.267,0,0,0,.061.013l-.055-.03C322.86,456.905,322.819,456.88,322.778,456.856Z" transform="translate(-304.859 -443.257)" fill="#e8b795"/>
            <path id="Path_175" data-name="Path 175" d="M322.722,456.92c-.038-.026-.073-.055-.1-.076l-.046-.035a.337.337,0,0,0,.035.046.535.535,0,0,0,.093.089.7.7,0,0,0,.111.066.543.543,0,0,0,.055.02l-.046-.036C322.8,456.975,322.757,456.948,322.722,456.92Z" transform="translate(-304.887 -443.214)" fill="#e8b795"/>
            <path id="Path_176" data-name="Path 176" d="M322.008,456.462l0,0Z" transform="translate(-305.26 -443.441)" fill="#f4c29d"/>
            <g id="Group_81" data-name="Group 81" transform="translate(18.967)">
              <path id="Path_177" data-name="Path 177" d="M326.287,458.1l6.45-7.422-4.948-2.079-4.441,7.69Z" transform="translate(-323.348 -448.594)" fill="#f4c29d"/>
            </g>
          </g>
          <path id="Path_178" data-name="Path 178" d="M310.695,455.714c-3.168,8-1.614,14.959,2.339,19.969l3.823-8.7a13.252,13.252,0,0,1,.684-8.444c6.9-15.742,30.968-6.19,24.525,10.1a13.59,13.59,0,0,1-4.507,5.736l-2.792,8.884a20.1,20.1,0,0,0,14.144-11.8C358.946,446.069,321.455,431.189,310.695,455.714Z" transform="translate(-309 -443.199)" fill="#fff"/>
        </g>
        <path id="Path_179" data-name="Path 179" d="M337.507,476.285h0l.033-20.608a6.192,6.192,0,0,1,6.2-6.183l-.01,6.041a11.8,11.8,0,0,1,3.611-4.867,8.633,8.633,0,0,1,5.89-1.667l-.01,6.5-.356,0a10.031,10.031,0,0,0-3.706.655,7.772,7.772,0,0,0-2.9,1.974,8.95,8.95,0,0,0-1.883,3.322,14.939,14.939,0,0,0-.669,4.644l-.005,4.01a6.193,6.193,0,0,1-6.2,6.183Z" transform="translate(-290.328 -439.407)" fill="#fff"/>
        <path id="Path_180" data-name="Path 180" d="M376.864,468.9a13.416,13.416,0,0,1-2.8,4.386A11.652,11.652,0,0,1,370.052,476a12.259,12.259,0,0,1-4.647.905,9.849,9.849,0,0,1-5.48-1.43,14.1,14.1,0,0,1-3.6-3.3l.015,6.09a6.168,6.168,0,0,1-6.176,6.183l.045-28.729a6.193,6.193,0,0,1,6.2-6.183L356.407,454a13.353,13.353,0,0,1,3.651-3.573,9.591,9.591,0,0,1,5.422-1.438,12.036,12.036,0,0,1,4.606.922,11.686,11.686,0,0,1,3.97,2.721,13.74,13.74,0,0,1,2.8,4.4,15.518,15.518,0,0,1,1.054,5.94,15.859,15.859,0,0,1-1.049,5.938Zm-5.746-9.526a8.259,8.259,0,0,0-1.645-2.719,7.325,7.325,0,0,0-5.4-2.343,7.527,7.527,0,0,0-2.994.6,7.311,7.311,0,0,0-2.491,1.748,8.689,8.689,0,0,0-1.7,2.713,10.264,10.264,0,0,0-.012,7.107,8.69,8.69,0,0,0,1.7,2.719,7.319,7.319,0,0,0,2.484,1.754,7.528,7.528,0,0,0,2.994.614,7.315,7.315,0,0,0,5.41-2.327,8.227,8.227,0,0,0,1.653-2.713,10.8,10.8,0,0,0,.012-7.156Z" transform="translate(-282.037 -439.409)" fill="#fff"/>
        <path id="Path_181" data-name="Path 181" d="M397.323,468.425a13.926,13.926,0,0,1-7.55,7.451,15.254,15.254,0,0,1-11.395.007,13.948,13.948,0,0,1-7.433-18.284,14.005,14.005,0,0,1,3-4.462,14.2,14.2,0,0,1,4.521-3.012,14.392,14.392,0,0,1,5.713-1.109,14.681,14.681,0,0,1,5.708,1.1,13.9,13.9,0,0,1,4.513,3,13.754,13.754,0,0,1,2.962,4.445A13.934,13.934,0,0,1,398.423,463a13.607,13.607,0,0,1-1.1,5.428Zm-5.693-8.687a8.73,8.73,0,0,0-1.686-2.77,7.93,7.93,0,0,0-2.569-1.882,7.938,7.938,0,0,0-9.159,1.84,8.033,8.033,0,0,0-1.619,2.711,9.8,9.8,0,0,0-.559,3.323,9.418,9.418,0,0,0,.6,3.378,8.309,8.309,0,0,0,1.685,2.769,8.093,8.093,0,0,0,2.57,1.857,7.7,7.7,0,0,0,3.252.69,7.931,7.931,0,0,0,3.355-.68,7.783,7.783,0,0,0,2.55-1.849,8,8,0,0,0,1.619-2.713,9.8,9.8,0,0,0,.561-3.325,9.279,9.279,0,0,0-.6-3.35Z" transform="translate(-269.147 -439.39)" fill="#fff"/>
        <path id="Path_182" data-name="Path 182" d="M390.872,476.384h0l.031-20.608a6.194,6.194,0,0,1,6.2-6.183L397.1,453.8a14.845,14.845,0,0,1,1.443-1.816,9.514,9.514,0,0,1,1.824-1.509,9.331,9.331,0,0,1,2.281-1.046,9.486,9.486,0,0,1,2.81-.379,8.916,8.916,0,0,1,7.03,2.8,10.9,10.9,0,0,1,2.469,7.517l-.026,17.055-6.193-.012.022-15.191a7.1,7.1,0,0,0-1.476-4.838,5.274,5.274,0,0,0-4.2-1.7,5.7,5.7,0,0,0-4.33,1.739,6.812,6.812,0,0,0-1.668,4.884l-.013,8.9a6.193,6.193,0,0,1-6.2,6.183Z" transform="translate(-255.375 -439.367)" fill="#fff"/>
        <path id="Path_183" data-name="Path 183" d="M436.572,472.837a13.38,13.38,0,0,1-2.8,4.386,11.637,11.637,0,0,1-4.013,2.709,12.292,12.292,0,0,1-4.647.905,9.842,9.842,0,0,1-5.478-1.43,14.057,14.057,0,0,1-3.6-3.3,4.111,4.111,0,0,1-4.118,4.156l-2.031,0,.05-30.861a6.189,6.189,0,0,1,6.2-6.181l-.023,14.719a13.359,13.359,0,0,1,3.653-3.573,9.589,9.589,0,0,1,5.42-1.438,12.063,12.063,0,0,1,4.606.92,11.68,11.68,0,0,1,3.97,2.722,13.726,13.726,0,0,1,2.805,4.4,15.516,15.516,0,0,1,1.053,5.94,15.856,15.856,0,0,1-1.049,5.938m-5.746-9.528a8.241,8.241,0,0,0-1.645-2.717,7.318,7.318,0,0,0-5.4-2.343,7.508,7.508,0,0,0-3,.606,7.3,7.3,0,0,0-2.491,1.746,8.683,8.683,0,0,0-1.7,2.713,10.276,10.276,0,0,0-.013,7.107,8.75,8.75,0,0,0,1.7,2.719,7.326,7.326,0,0,0,2.486,1.754,7.523,7.523,0,0,0,2.994.612,7.305,7.305,0,0,0,5.408-2.325,8.242,8.242,0,0,0,1.653-2.713,10.806,10.806,0,0,0,.012-7.158" transform="translate(-242.92 -443.19)" fill="tomato"/>
        <path id="Path_184" data-name="Path 184" d="M430.678,472.837a15.858,15.858,0,0,1-1.049-5.938,15.517,15.517,0,0,1,1.053-5.94,13.724,13.724,0,0,1,2.805-4.4,11.68,11.68,0,0,1,3.97-2.722,12.063,12.063,0,0,1,4.606-.92,9.589,9.589,0,0,1,5.42,1.438,13.381,13.381,0,0,1,3.653,3.573l-.023-14.719a6.19,6.19,0,0,1,6.2,6.181l.048,30.861-2.029,0a4.111,4.111,0,0,1-4.118-4.156,14.055,14.055,0,0,1-3.6,3.3,9.843,9.843,0,0,1-5.478,1.43,12.292,12.292,0,0,1-4.647-.905,11.636,11.636,0,0,1-4.013-2.709,13.379,13.379,0,0,1-2.8-4.386m5.746-9.528a10.807,10.807,0,0,0,.012,7.158,8.242,8.242,0,0,0,1.653,2.713,7.305,7.305,0,0,0,5.409,2.325,7.523,7.523,0,0,0,2.994-.612,7.3,7.3,0,0,0,2.484-1.754,8.723,8.723,0,0,0,1.7-2.719,10.277,10.277,0,0,0-.013-7.107,8.685,8.685,0,0,0-1.7-2.713,7.3,7.3,0,0,0-2.491-1.746,7.508,7.508,0,0,0-3-.606,7.318,7.318,0,0,0-5.4,2.343,8.241,8.241,0,0,0-1.645,2.717" transform="translate(-229.989 -443.19)" fill="tomato"/>
      </g>
      <g id="Group_86" data-name="Group 86" transform="translate(230.284)">
        <g id="Group_85" data-name="Group 85">
          <path id="Path_185" data-name="Path 185" d="M452.153,447.959l-1.443,0,.012-6.81-2.577,0,0-1.322,6.6.008,0,1.324-2.58-.005Z" transform="translate(-448.145 -439.821)" fill="#fff"/>
          <path id="Path_186" data-name="Path 186" d="M456.944,445.969H456.9l-2.537-3.813-.01,5.807-1.417,0,.013-8.133,1.523,0,2.468,3.849,2.481-3.841,1.523,0-.013,8.133-1.418,0,.01-5.832Z" transform="translate(-445.009 -439.817)" fill="#fff"/>
        </g>
      </g>
    </g>
    <g id="Group_89" data-name="Group 89" transform="translate(308.999 496.288)">
      <g id="Group_88" data-name="Group 88">
        <path id="Path_187" data-name="Path 187" d="M314.346,479.552v3.517H312.7v-3.517L309,474.09h1.443a.565.565,0,0,1,.346.094.783.783,0,0,1,.212.235l2.079,3.219c.094.161.179.314.257.46s.147.29.207.432a3.577,3.577,0,0,1,.192-.434c.074-.144.159-.3.253-.458l2.064-3.219a.765.765,0,0,1,.205-.225.543.543,0,0,1,.344-.1h1.451Z" transform="translate(-308.999 -473.842)" fill="#fff"/>
        <path id="Path_188" data-name="Path 188" d="M317.314,475.612a4.255,4.255,0,0,1,1.442.23,3.144,3.144,0,0,1,1.1.655,2.883,2.883,0,0,1,.7,1.029,3.891,3.891,0,0,1,0,2.717,2.89,2.89,0,0,1-.7,1.031,3.126,3.126,0,0,1-1.1.659,4.615,4.615,0,0,1-2.888,0,3.148,3.148,0,0,1-1.1-.659,2.832,2.832,0,0,1-.7-1.031,3.867,3.867,0,0,1,0-2.717,2.825,2.825,0,0,1,.7-1.029,3.166,3.166,0,0,1,1.1-.655A4.271,4.271,0,0,1,317.314,475.612Zm0,5.506a1.768,1.768,0,0,0,1.448-.578,2.531,2.531,0,0,0,.475-1.648,2.562,2.562,0,0,0-.475-1.657,1.766,1.766,0,0,0-1.448-.583,1.788,1.788,0,0,0-1.465.583,2.544,2.544,0,0,0-.48,1.657,2.513,2.513,0,0,0,.48,1.648A1.79,1.79,0,0,0,317.314,481.118Z" transform="translate(-305.845 -472.845)" fill="#fff"/>
        <path id="Path_189" data-name="Path 189" d="M325,475.672v6.36h-.915a.367.367,0,0,1-.389-.255l-.111-.594a4.252,4.252,0,0,1-.477.389,3.261,3.261,0,0,1-.531.3,3.042,3.042,0,0,1-.6.192,3.135,3.135,0,0,1-.687.07,2.9,2.9,0,0,1-1.044-.174,2.014,2.014,0,0,1-1.218-1.258,2.977,2.977,0,0,1-.156-.981v-4.046h1.516v4.046a1.407,1.407,0,0,0,.334,1,1.332,1.332,0,0,0,1.019.356,2.188,2.188,0,0,0,.932-.2,3.15,3.15,0,0,0,.814-.559v-4.639Z" transform="translate(-302.534 -472.806)" fill="#fff"/>
        <path id="Path_190" data-name="Path 190" d="M325.12,476.9a2.879,2.879,0,0,1,.818-.95,1.9,1.9,0,0,1,1.147-.346,2.034,2.034,0,0,1,.437.046,1.315,1.315,0,0,1,.367.141l-.106,1.01a.236.236,0,0,1-.088.146.269.269,0,0,1-.159.041,1.888,1.888,0,0,1-.3-.035,2.586,2.586,0,0,0-.415-.033,1.758,1.758,0,0,0-.561.081,1.373,1.373,0,0,0-.435.237,1.617,1.617,0,0,0-.343.381,3.412,3.412,0,0,0-.275.51v3.954H323.69v-6.36h.88a.527.527,0,0,1,.331.078.448.448,0,0,1,.126.271Z" transform="translate(-299.376 -472.852)" fill="#fff"/>
        <path id="Path_191" data-name="Path 191" d="M332.318,474.09a7.191,7.191,0,0,1,1.662.166,3.357,3.357,0,0,1,1.135.47,1.876,1.876,0,0,1,.652.745,2.289,2.289,0,0,1,.208.99,1.738,1.738,0,0,1-.449,1.168,2.407,2.407,0,0,1-.574.465,3.6,3.6,0,0,1-.818.343q2.155.4,2.156,2.027a2.277,2.277,0,0,1-.243,1.049,2.4,2.4,0,0,1-.7.824,3.5,3.5,0,0,1-1.139.538,5.615,5.615,0,0,1-1.542.194h-3.72V474.09Zm-1.726,1.142v2.805h1.648a2.783,2.783,0,0,0,1.579-.362,1.357,1.357,0,0,0,.031-2.113,2.788,2.788,0,0,0-1.532-.329Zm2.044,6.683a3.274,3.274,0,0,0,.94-.116,1.812,1.812,0,0,0,.627-.314,1.161,1.161,0,0,0,.351-.47,1.555,1.555,0,0,0,.111-.584,1.18,1.18,0,0,0-.49-1,2.612,2.612,0,0,0-1.547-.366h-2.036v2.85Z" transform="translate(-295.936 -473.842)" fill="#fff"/>
        <path id="Path_192" data-name="Path 192" d="M335.526,479a2.92,2.92,0,0,0,.19.94,1.875,1.875,0,0,0,.434.657,1.7,1.7,0,0,0,.647.391,2.642,2.642,0,0,0,.842.127,2.909,2.909,0,0,0,.768-.091,3.826,3.826,0,0,0,.564-.2c.159-.073.3-.141.409-.2a.666.666,0,0,1,.308-.091.344.344,0,0,1,.283.124l.43.493a2.58,2.58,0,0,1-.606.473,3.639,3.639,0,0,1-.72.316,4.408,4.408,0,0,1-.781.174,5.8,5.8,0,0,1-.783.055,4.2,4.2,0,0,1-1.384-.222,3.158,3.158,0,0,1-1.107-.652,2.986,2.986,0,0,1-.731-1.066,3.773,3.773,0,0,1-.263-1.465,3.172,3.172,0,0,1,.235-1.235,2.879,2.879,0,0,1,.675-1,3.207,3.207,0,0,1,1.072-.67,4.149,4.149,0,0,1,2.651-.056,2.747,2.747,0,0,1,.971.558,2.554,2.554,0,0,1,.639.9,3.047,3.047,0,0,1,.23,1.211.777.777,0,0,1-.078.419.332.332,0,0,1-.283.1Zm3.613-.823a1.762,1.762,0,0,0-.108-.626,1.415,1.415,0,0,0-.321-.5,1.486,1.486,0,0,0-.525-.338,1.992,1.992,0,0,0-.722-.122,1.885,1.885,0,0,0-1.3.419,1.944,1.944,0,0,0-.6,1.172Z" transform="translate(-292.606 -472.845)" fill="#fff"/>
        <path id="Path_193" data-name="Path 193" d="M343.287,476.865a.353.353,0,0,1-.127.126.4.4,0,0,1-.177.036.636.636,0,0,1-.26-.065c-.093-.043-.2-.094-.331-.147a3.313,3.313,0,0,0-.449-.147,2.473,2.473,0,0,0-.6-.065,2.085,2.085,0,0,0-.51.058,1.256,1.256,0,0,0-.389.17.789.789,0,0,0-.243.255.636.636,0,0,0-.084.316.5.5,0,0,0,.156.372,1.275,1.275,0,0,0,.409.258,4.566,4.566,0,0,0,.576.2c.217.058.439.119.664.185s.445.144.662.232a2.49,2.49,0,0,1,.578.321,1.51,1.51,0,0,1,.409.46,1.319,1.319,0,0,1,.156.659,1.89,1.89,0,0,1-.184.829,1.859,1.859,0,0,1-.536.66,2.554,2.554,0,0,1-.875.437,4.591,4.591,0,0,1-1.923.1,4.474,4.474,0,0,1-.664-.161,3.65,3.65,0,0,1-.584-.248,3.111,3.111,0,0,1-.483-.31l.353-.513a.461.461,0,0,1,.159-.146.482.482,0,0,1,.237-.053.567.567,0,0,1,.291.084c.1.056.21.117.339.184a2.879,2.879,0,0,0,.468.184,2.349,2.349,0,0,0,.682.084,2.044,2.044,0,0,0,.586-.073,1.218,1.218,0,0,0,.409-.2.8.8,0,0,0,.238-.285.767.767,0,0,0,.078-.339.541.541,0,0,0-.156-.4,1.317,1.317,0,0,0-.412-.268,4,4,0,0,0-.584-.2q-.328-.087-.665-.189c-.225-.066-.447-.142-.665-.23a2.334,2.334,0,0,1-.584-.333,1.539,1.539,0,0,1-.412-.493,1.474,1.474,0,0,1-.156-.708,1.565,1.565,0,0,1,.172-.722,1.775,1.775,0,0,1,.508-.606,2.6,2.6,0,0,1,.824-.415,3.829,3.829,0,0,1,1.13-.152,3.992,3.992,0,0,1,1.317.207,2.942,2.942,0,0,1,.993.559Z" transform="translate(-289.693 -472.845)" fill="#fff"/>
        <path id="Path_194" data-name="Path 194" d="M345.067,482.923a1.95,1.95,0,0,1-1.377-.445,1.623,1.623,0,0,1-.482-1.256v-3.7h-.791a.352.352,0,0,1-.218-.071.259.259,0,0,1-.089-.215v-.543l1.162-.151.331-1.839a.33.33,0,0,1,.344-.237h.776v2.089h1.994v.966h-1.994v3.61a.689.689,0,0,0,.19.525.71.71,0,0,0,.506.18,1.075,1.075,0,0,0,.3-.04,1.566,1.566,0,0,0,.218-.088c.061-.031.113-.061.159-.088a.257.257,0,0,1,.131-.041.23.23,0,0,1,.2.126l.45.655a2.55,2.55,0,0,1-.831.42A3.4,3.4,0,0,1,345.067,482.923Z" transform="translate(-287.312 -473.597)" fill="#fff"/>
        <path id="Path_195" data-name="Path 195" d="M357.681,478.618a4.542,4.542,0,0,1-.366,1.839,4.163,4.163,0,0,1-1.033,1.45,4.8,4.8,0,0,1-1.6.953,6.437,6.437,0,0,1-4.144,0,4.844,4.844,0,0,1-1.6-.953,4.15,4.15,0,0,1-1.036-1.45,4.784,4.784,0,0,1,0-3.677,4.2,4.2,0,0,1,1.036-1.451,4.791,4.791,0,0,1,1.6-.955,6.438,6.438,0,0,1,4.144,0,4.751,4.751,0,0,1,1.6.955,4.216,4.216,0,0,1,1.033,1.451A4.554,4.554,0,0,1,357.681,478.618Zm-1.681,0a3.84,3.84,0,0,0-.238-1.39,2.88,2.88,0,0,0-.675-1.048,3.022,3.022,0,0,0-1.067-.66,4.411,4.411,0,0,0-2.812,0,3.029,3.029,0,0,0-1.069.66,2.9,2.9,0,0,0-.684,1.048,4.17,4.17,0,0,0,0,2.789,2.857,2.857,0,0,0,.684,1.044,3.014,3.014,0,0,0,1.069.654,4.441,4.441,0,0,0,2.812,0,3.007,3.007,0,0,0,1.067-.654,2.841,2.841,0,0,0,.675-1.044A3.868,3.868,0,0,0,356,478.618Z" transform="translate(-283.758 -473.881)" fill="#fff"/>
        <path id="Path_196" data-name="Path 196" d="M355.924,476.554a4.72,4.72,0,0,1,.483-.384,3.407,3.407,0,0,1,.533-.3,3.04,3.04,0,0,1,.6-.192,3.246,3.246,0,0,1,.692-.07,2.905,2.905,0,0,1,1.039.174,2.091,2.091,0,0,1,.753.493,2.055,2.055,0,0,1,.462.765,2.992,2.992,0,0,1,.156.981v4.046h-1.508v-4.046a1.4,1.4,0,0,0-.334-1,1.337,1.337,0,0,0-1.018-.356,2.155,2.155,0,0,0-.942.207,3.156,3.156,0,0,0-.814.561v4.632h-1.514v-6.36h.917a.369.369,0,0,1,.394.255Z" transform="translate(-279.19 -472.845)" fill="#fff"/>
        <path id="Path_197" data-name="Path 197" d="M360.818,473.94v9.227H359.3V473.94Z" transform="translate(-276.051 -473.94)" fill="#fff"/>
        <path id="Path_198" data-name="Path 198" d="M363.256,474.867a.726.726,0,0,1-.081.343.915.915,0,0,1-.22.285,1.063,1.063,0,0,1-.329.192,1.091,1.091,0,0,1-.4.073,1.028,1.028,0,0,1-.384-.073,1.009,1.009,0,0,1-.314-.192,1.042,1.042,0,0,1-.215-.285.766.766,0,0,1-.079-.343.784.784,0,0,1,.079-.349,1.066,1.066,0,0,1,.215-.285,1.008,1.008,0,0,1,.314-.192,1.027,1.027,0,0,1,.384-.071,1.091,1.091,0,0,1,.4.071,1.062,1.062,0,0,1,.329.192.934.934,0,0,1,.22.285A.742.742,0,0,1,363.256,474.867Zm-.253,1.92v6.36h-1.514v-6.36Z" transform="translate(-274.785 -473.92)" fill="#fff"/>
        <path id="Path_199" data-name="Path 199" d="M364.874,476.554a4.388,4.388,0,0,1,.483-.384,3.387,3.387,0,0,1,.531-.3,3.04,3.04,0,0,1,.6-.192,3.246,3.246,0,0,1,.692-.07,2.892,2.892,0,0,1,1.039.174,2.028,2.028,0,0,1,1.216,1.258,3.036,3.036,0,0,1,.154.981v4.046h-1.508v-4.046a1.4,1.4,0,0,0-.334-1,1.337,1.337,0,0,0-1.018-.356,2.161,2.161,0,0,0-.942.207,3.214,3.214,0,0,0-.814.561v4.632h-1.514v-6.36h.917a.369.369,0,0,1,.394.255Z" transform="translate(-273.329 -472.845)" fill="#fff"/>
        <path id="Path_200" data-name="Path 200" d="M369.492,479a2.834,2.834,0,0,0,.19.94,1.875,1.875,0,0,0,.434.657,1.7,1.7,0,0,0,.647.391,2.634,2.634,0,0,0,.842.127,2.909,2.909,0,0,0,.768-.091,3.829,3.829,0,0,0,.564-.2c.157-.073.295-.141.409-.2a.666.666,0,0,1,.308-.091.346.346,0,0,1,.283.124l.43.493a2.613,2.613,0,0,1-.606.473,3.681,3.681,0,0,1-.72.316,4.4,4.4,0,0,1-.783.174,5.776,5.776,0,0,1-.781.055,4.2,4.2,0,0,1-1.384-.222,3.144,3.144,0,0,1-1.107-.652,2.965,2.965,0,0,1-.732-1.066,3.773,3.773,0,0,1-.265-1.465,3.174,3.174,0,0,1,.237-1.235,2.858,2.858,0,0,1,.675-1,3.208,3.208,0,0,1,1.072-.67,4.149,4.149,0,0,1,2.651-.056,2.747,2.747,0,0,1,.971.558,2.554,2.554,0,0,1,.639.9,3.048,3.048,0,0,1,.228,1.211.78.78,0,0,1-.076.419.333.333,0,0,1-.283.1Zm3.613-.823a1.761,1.761,0,0,0-.108-.626,1.419,1.419,0,0,0-.323-.5,1.479,1.479,0,0,0-.523-.338,1.992,1.992,0,0,0-.722-.122,1.882,1.882,0,0,0-1.3.419,1.944,1.944,0,0,0-.6,1.172Z" transform="translate(-270.36 -472.845)" fill="#fff"/>
        <path id="Path_201" data-name="Path 201" d="M380.673,475.663a.582.582,0,0,1-.161.164.392.392,0,0,1-.212.055.6.6,0,0,1-.3-.1c-.111-.066-.247-.141-.409-.222a4.2,4.2,0,0,0-.576-.223,2.692,2.692,0,0,0-.788-.1,2.662,2.662,0,0,0-.745.094,1.6,1.6,0,0,0-.538.261,1.081,1.081,0,0,0-.328.4,1.134,1.134,0,0,0-.108.495.824.824,0,0,0,.2.571,1.663,1.663,0,0,0,.538.389,4.586,4.586,0,0,0,.765.285c.288.081.579.167.877.258s.591.2.877.313a3.039,3.039,0,0,1,.765.442,2.049,2.049,0,0,1,.538.655,1.973,1.973,0,0,1,.205.94,2.733,2.733,0,0,1-.232,1.124,2.689,2.689,0,0,1-.672.914,3.238,3.238,0,0,1-1.087.614,4.471,4.471,0,0,1-1.468.223,5.411,5.411,0,0,1-.948-.083,5.55,5.55,0,0,1-.88-.238,4.574,4.574,0,0,1-.786-.371,3.879,3.879,0,0,1-.654-.485l.478-.7a.434.434,0,0,1,.162-.137.463.463,0,0,1,.218-.051.673.673,0,0,1,.359.134c.131.089.29.189.475.293a3.812,3.812,0,0,0,.674.293,2.9,2.9,0,0,0,.945.134,2.182,2.182,0,0,0,1.384-.386,1.286,1.286,0,0,0,.49-1.066.928.928,0,0,0-.2-.621,1.639,1.639,0,0,0-.54-.4,4.114,4.114,0,0,0-.765-.275c-.286-.075-.578-.156-.874-.24a9.2,9.2,0,0,1-.874-.3,2.827,2.827,0,0,1-.765-.449,2.081,2.081,0,0,1-.538-.687,2.243,2.243,0,0,1-.205-1.018,2.193,2.193,0,0,1,.215-.942,2.416,2.416,0,0,1,.627-.808,3.165,3.165,0,0,1,1.018-.566,4.23,4.23,0,0,1,1.382-.21,5,5,0,0,1,1.6.243,3.737,3.737,0,0,1,1.256.692Z" transform="translate(-266.063 -473.881)" fill="#fff"/>
        <path id="Path_202" data-name="Path 202" d="M380.965,477.561a3.919,3.919,0,0,1,.973-.621,3.029,3.029,0,0,1,1.233-.233,2.892,2.892,0,0,1,1.039.174,2.028,2.028,0,0,1,1.216,1.258,3.038,3.038,0,0,1,.154.981v4.046h-1.508V479.12a1.4,1.4,0,0,0-.334-1,1.337,1.337,0,0,0-1.018-.356,2.148,2.148,0,0,0-.94.207,3.193,3.193,0,0,0-.816.561v4.632h-1.514V473.94h1.514Z" transform="translate(-262.854 -473.94)" fill="#fff"/>
        <path id="Path_203" data-name="Path 203" d="M387.491,475.612a4.256,4.256,0,0,1,1.442.23,3.145,3.145,0,0,1,1.1.655,2.9,2.9,0,0,1,.7,1.029,3.891,3.891,0,0,1,0,2.717,2.912,2.912,0,0,1-.7,1.031,3.127,3.127,0,0,1-1.1.659,4.616,4.616,0,0,1-2.888,0,3.148,3.148,0,0,1-1.1-.659,2.811,2.811,0,0,1-.7-1.031,3.843,3.843,0,0,1,0-2.717,2.8,2.8,0,0,1,.7-1.029,3.167,3.167,0,0,1,1.1-.655A4.258,4.258,0,0,1,387.491,475.612Zm0,5.506a1.768,1.768,0,0,0,1.448-.578,2.532,2.532,0,0,0,.475-1.648,2.563,2.563,0,0,0-.475-1.657,1.766,1.766,0,0,0-1.448-.583,1.788,1.788,0,0,0-1.465.583,2.543,2.543,0,0,0-.48,1.657,2.513,2.513,0,0,0,.48,1.648A1.79,1.79,0,0,0,387.491,481.118Z" transform="translate(-259.881 -472.845)" fill="#fff"/>
        <path id="Path_204" data-name="Path 204" d="M390.526,476.642a3.748,3.748,0,0,1,1.026-.755,2.94,2.94,0,0,1,1.336-.286,2.714,2.714,0,0,1,1.1.215,2.352,2.352,0,0,1,.846.627,2.917,2.917,0,0,1,.546,1.018,4.655,4.655,0,0,1,.192,1.4,3.947,3.947,0,0,1-.214,1.312,3.1,3.1,0,0,1-.617,1.053,2.854,2.854,0,0,1-.971.7,3.151,3.151,0,0,1-1.289.253,2.833,2.833,0,0,1-1.076-.182,2.8,2.8,0,0,1-.8-.5v2.7h-1.514v-8.474h.917a.369.369,0,0,1,.394.255Zm.078,3.84a1.8,1.8,0,0,0,.7.51,2.311,2.311,0,0,0,.834.146,1.742,1.742,0,0,0,1.385-.573,2.55,2.55,0,0,0,.5-1.708,3.827,3.827,0,0,0-.114-1,1.809,1.809,0,0,0-.323-.675,1.211,1.211,0,0,0-.515-.381,1.885,1.885,0,0,0-.684-.119,2.108,2.108,0,0,0-1,.222,2.762,2.762,0,0,0-.779.634Z" transform="translate(-256.541 -472.852)" fill="#fff"/>
        <path id="Path_205" data-name="Path 205" d="M395.332,476.642a3.749,3.749,0,0,1,1.026-.755,2.935,2.935,0,0,1,1.336-.286,2.72,2.72,0,0,1,1.1.215,2.332,2.332,0,0,1,.844.627,2.919,2.919,0,0,1,.548,1.018,4.653,4.653,0,0,1,.192,1.4,3.947,3.947,0,0,1-.214,1.312,3.1,3.1,0,0,1-.617,1.053,2.869,2.869,0,0,1-.971.7,3.156,3.156,0,0,1-1.289.253,2.833,2.833,0,0,1-1.076-.182,2.755,2.755,0,0,1-.8-.5v2.7h-1.514v-8.474h.915a.371.371,0,0,1,.4.255Zm.078,3.84a1.785,1.785,0,0,0,.7.51,2.31,2.31,0,0,0,.834.146,1.738,1.738,0,0,0,1.384-.573,2.541,2.541,0,0,0,.5-1.708,3.835,3.835,0,0,0-.113-1,1.808,1.808,0,0,0-.323-.675,1.21,1.21,0,0,0-.515-.381,1.891,1.891,0,0,0-.683-.119,2.115,2.115,0,0,0-1,.222,2.735,2.735,0,0,0-.778.634Z" transform="translate(-253.393 -472.852)" fill="#fff"/>
        <path id="Path_206" data-name="Path 206" d="M400.607,474.867a.746.746,0,0,1-.081.343.9.9,0,0,1-.222.285,1.055,1.055,0,0,1-.328.192,1.091,1.091,0,0,1-.4.073,1.043,1.043,0,0,1-.386-.073,1.02,1.02,0,0,1-.313-.192.979.979,0,0,1-.215-.285.767.767,0,0,1-.081-.343.784.784,0,0,1,.081-.349,1,1,0,0,1,.215-.285,1.019,1.019,0,0,1,.313-.192,1.042,1.042,0,0,1,.386-.071,1.091,1.091,0,0,1,.4.071,1.053,1.053,0,0,1,.328.192.913.913,0,0,1,.222.285A.763.763,0,0,1,400.607,474.867Zm-.255,1.92v6.36h-1.514v-6.36Z" transform="translate(-250.321 -473.92)" fill="#fff"/>
        <path id="Path_207" data-name="Path 207" d="M402.223,476.554a4.72,4.72,0,0,1,.483-.384,3.407,3.407,0,0,1,.533-.3,3.039,3.039,0,0,1,.6-.192,3.235,3.235,0,0,1,.692-.07,2.9,2.9,0,0,1,1.039.174,2.106,2.106,0,0,1,.753.493,2.056,2.056,0,0,1,.462.765,2.992,2.992,0,0,1,.156.981v4.046H405.43v-4.046a1.41,1.41,0,0,0-.334-1,1.339,1.339,0,0,0-1.019-.356,2.153,2.153,0,0,0-.94.207,3.158,3.158,0,0,0-.814.561v4.632h-1.514v-6.36h.915a.371.371,0,0,1,.4.255Z" transform="translate(-248.865 -472.845)" fill="#fff"/>
        <path id="Path_208" data-name="Path 208" d="M411.989,475.948v.5c0,.164-.113.266-.338.3l-.718.106a1.853,1.853,0,0,1-.025,1.652,1.974,1.974,0,0,1-.576.649,2.677,2.677,0,0,1-.872.41,4.01,4.01,0,0,1-1.1.144,4.29,4.29,0,0,1-.442-.023c-.142-.013-.283-.033-.419-.058a.956.956,0,0,0-.3.225.381.381,0,0,0-.1.243.323.323,0,0,0,.205.3,1.793,1.793,0,0,0,.538.144c.223.03.48.046.765.056s.579.023.875.045.586.055.872.1a2.709,2.709,0,0,1,.765.238,1.429,1.429,0,0,1,.54.445,1.213,1.213,0,0,1,.2.73,1.568,1.568,0,0,1-.232.8,2.241,2.241,0,0,1-.674.7,3.642,3.642,0,0,1-1.074.49,5.254,5.254,0,0,1-1.443.182,6.227,6.227,0,0,1-1.4-.137,3.518,3.518,0,0,1-.991-.371,1.69,1.69,0,0,1-.593-.54,1.17,1.17,0,0,1-.194-.635,1.041,1.041,0,0,1,.319-.766,2.168,2.168,0,0,1,.87-.5,1.206,1.206,0,0,1-.475-.344.866.866,0,0,1-.18-.573.977.977,0,0,1,.233-.586,1.783,1.783,0,0,1,.7-.518,2.217,2.217,0,0,1-.846-.7,1.7,1.7,0,0,1-.31-1.013,1.755,1.755,0,0,1,.207-.856,1.954,1.954,0,0,1,.583-.647,2.8,2.8,0,0,1,.884-.412,4.111,4.111,0,0,1,1.117-.142,3.6,3.6,0,0,1,1.619.343Zm-1.523,6.44a.435.435,0,0,0-.137-.339.964.964,0,0,0-.369-.2,2.993,2.993,0,0,0-.541-.1c-.207-.023-.427-.041-.66-.051l-.71-.031c-.243-.01-.477-.03-.7-.058a1.817,1.817,0,0,0-.553.372.7.7,0,0,0-.215.506.611.611,0,0,0,.108.349.913.913,0,0,0,.339.28,2.121,2.121,0,0,0,.586.187,4.5,4.5,0,0,0,.854.07,3.209,3.209,0,0,0,1.5-.275A.805.805,0,0,0,410.466,482.387Zm-2.105-3.547a1.542,1.542,0,0,0,1.058-.319,1.065,1.065,0,0,0,.352-.829,1.05,1.05,0,0,0-.352-.829,1.983,1.983,0,0,0-2.112,0,1.042,1.042,0,0,0-.356.829,1.158,1.158,0,0,0,.093.463.991.991,0,0,0,.266.362,1.226,1.226,0,0,0,.442.238A1.991,1.991,0,0,0,408.361,478.841Z" transform="translate(-245.948 -472.849)" fill="#fff"/>
        <path id="Path_209" data-name="Path 209" d="M417.969,475.663a.565.565,0,0,1-.162.164.384.384,0,0,1-.212.055.6.6,0,0,1-.3-.1c-.113-.066-.248-.141-.409-.222a4.2,4.2,0,0,0-.576-.223,2.692,2.692,0,0,0-.788-.1,2.662,2.662,0,0,0-.745.094,1.584,1.584,0,0,0-.538.261,1.082,1.082,0,0,0-.328.4,1.134,1.134,0,0,0-.109.495.824.824,0,0,0,.2.571,1.689,1.689,0,0,0,.54.389,4.531,4.531,0,0,0,.765.285q.429.122.877.258c.3.093.591.2.877.313a3.04,3.04,0,0,1,.765.442,2.05,2.05,0,0,1,.538.655,1.973,1.973,0,0,1,.205.94,2.76,2.76,0,0,1-.232,1.124,2.671,2.671,0,0,1-.674.914,3.214,3.214,0,0,1-1.086.614,4.481,4.481,0,0,1-1.47.223,5.407,5.407,0,0,1-.947-.083,5.548,5.548,0,0,1-.88-.238,4.572,4.572,0,0,1-.786-.371,3.879,3.879,0,0,1-.654-.485l.478-.7a.435.435,0,0,1,.162-.137.462.462,0,0,1,.218-.051.673.673,0,0,1,.359.134c.131.089.29.189.475.293a3.812,3.812,0,0,0,.674.293,2.9,2.9,0,0,0,.945.134,2.185,2.185,0,0,0,1.384-.386,1.286,1.286,0,0,0,.49-1.066.928.928,0,0,0-.2-.621,1.629,1.629,0,0,0-.541-.4,4.055,4.055,0,0,0-.763-.275c-.286-.075-.578-.156-.874-.24a9.052,9.052,0,0,1-.874-.3,2.828,2.828,0,0,1-.765-.449,2.082,2.082,0,0,1-.538-.687,2.243,2.243,0,0,1-.205-1.018,2.193,2.193,0,0,1,.215-.942,2.417,2.417,0,0,1,.627-.808,3.166,3.166,0,0,1,1.018-.566,4.229,4.229,0,0,1,1.382-.21,4.979,4.979,0,0,1,1.6.243,3.745,3.745,0,0,1,1.258.692Z" transform="translate(-241.634 -473.881)" fill="#fff"/>
        <path id="Path_210" data-name="Path 210" d="M420.059,475.612a4.256,4.256,0,0,1,1.442.23,3.13,3.13,0,0,1,1.1.655,2.883,2.883,0,0,1,.7,1.029,3.891,3.891,0,0,1,0,2.717,2.89,2.89,0,0,1-.7,1.031,3.112,3.112,0,0,1-1.1.659,4.616,4.616,0,0,1-2.888,0,3.163,3.163,0,0,1-1.1-.659,2.832,2.832,0,0,1-.7-1.031,3.867,3.867,0,0,1,0-2.717,2.825,2.825,0,0,1,.7-1.029,3.181,3.181,0,0,1,1.1-.655A4.271,4.271,0,0,1,420.059,475.612Zm0,5.506a1.764,1.764,0,0,0,1.448-.578,2.531,2.531,0,0,0,.475-1.648,2.562,2.562,0,0,0-.475-1.657,1.761,1.761,0,0,0-1.448-.583,1.792,1.792,0,0,0-1.465.583,2.544,2.544,0,0,0-.48,1.657,2.513,2.513,0,0,0,.48,1.648A1.794,1.794,0,0,0,420.059,481.118Z" transform="translate(-238.548 -472.845)" fill="#fff"/>
        <path id="Path_211" data-name="Path 211" d="M423.191,473.94v9.227h-1.516V473.94Z" transform="translate(-235.197 -473.94)" fill="#fff"/>
        <path id="Path_212" data-name="Path 212" d="M429.81,475.672v6.36h-.917a.365.365,0,0,1-.387-.255l-.112-.594a3.979,3.979,0,0,1-.477.389,3.193,3.193,0,0,1-.531.3,2.994,2.994,0,0,1-.6.192,3.145,3.145,0,0,1-.687.07,2.9,2.9,0,0,1-1.044-.174,2.056,2.056,0,0,1-.756-.493,2.033,2.033,0,0,1-.462-.765,2.935,2.935,0,0,1-.156-.981v-4.046H425.2v4.046a1.4,1.4,0,0,0,.334,1,1.331,1.331,0,0,0,1.018.356,2.195,2.195,0,0,0,.933-.2,3.15,3.15,0,0,0,.814-.559v-4.639Z" transform="translate(-233.884 -472.806)" fill="#fff"/>
        <path id="Path_213" data-name="Path 213" d="M435.734,483.162h-1.516v-5.306h-3.5v3.61a.689.689,0,0,0,.19.525.71.71,0,0,0,.506.18,1.075,1.075,0,0,0,.3-.04,1.566,1.566,0,0,0,.218-.088c.061-.031.113-.061.159-.088a.261.261,0,0,1,.131-.041.23.23,0,0,1,.2.126l.45.655a2.551,2.551,0,0,1-.831.42,3.4,3.4,0,0,1-.986.146,1.95,1.95,0,0,1-1.377-.445,1.623,1.623,0,0,1-.482-1.256v-3.7h-.791a.353.353,0,0,1-.219-.071.259.259,0,0,1-.089-.215v-.543l1.162-.151.331-1.839a.33.33,0,0,1,.344-.237h.776v2.089h5.016Zm.31-8.311a.727.727,0,0,1-.081.339.885.885,0,0,1-.222.281,1.114,1.114,0,0,1-.328.194,1.078,1.078,0,0,1-.392.073,1.013,1.013,0,0,1-.382-.073,1.055,1.055,0,0,1-.316-.194.929.929,0,0,1-.22-.281.728.728,0,0,1-.081-.339.775.775,0,0,1,.081-.351.915.915,0,0,1,.22-.288,1.057,1.057,0,0,1,.316-.194,1.013,1.013,0,0,1,.382-.071,1.078,1.078,0,0,1,.392.071,1.115,1.115,0,0,1,.328.194.873.873,0,0,1,.222.288A.774.774,0,0,1,436.043,474.851Z" transform="translate(-230.986 -473.935)" fill="#fff"/>
        <path id="Path_214" data-name="Path 214" d="M437.129,475.612a4.242,4.242,0,0,1,1.442.23,3.129,3.129,0,0,1,1.1.655,2.862,2.862,0,0,1,.7,1.029,3.867,3.867,0,0,1,0,2.717,2.869,2.869,0,0,1-.7,1.031,3.111,3.111,0,0,1-1.1.659,4.615,4.615,0,0,1-2.888,0,3.178,3.178,0,0,1-1.1-.659,2.853,2.853,0,0,1-.7-1.031,3.867,3.867,0,0,1,0-2.717,2.845,2.845,0,0,1,.7-1.029,3.2,3.2,0,0,1,1.1-.655A4.271,4.271,0,0,1,437.129,475.612Zm0,5.506a1.764,1.764,0,0,0,1.448-.578,2.522,2.522,0,0,0,.475-1.648,2.552,2.552,0,0,0-.475-1.657,1.761,1.761,0,0,0-1.448-.583,1.786,1.786,0,0,0-1.463.583,2.534,2.534,0,0,0-.48,1.657,2.5,2.5,0,0,0,.48,1.648A1.789,1.789,0,0,0,437.129,481.118Z" transform="translate(-227.367 -472.845)" fill="#fff"/>
        <path id="Path_215" data-name="Path 215" d="M440.144,476.554a4.721,4.721,0,0,1,.483-.384,3.468,3.468,0,0,1,.531-.3,3.094,3.094,0,0,1,.6-.192,3.235,3.235,0,0,1,.692-.07,2.9,2.9,0,0,1,1.039.174,2.1,2.1,0,0,1,.753.493,2.054,2.054,0,0,1,.462.765,2.99,2.99,0,0,1,.156.981v4.046h-1.508v-4.046a1.409,1.409,0,0,0-.334-1,1.339,1.339,0,0,0-1.019-.356,2.154,2.154,0,0,0-.94.207,3.156,3.156,0,0,0-.814.561v4.632h-1.514v-6.36h.915a.373.373,0,0,1,.4.255Z" transform="translate(-224.027 -472.845)" fill="#fff"/>
        <path id="Path_216" data-name="Path 216" d="M448,476.865a.366.366,0,0,1-.127.126.4.4,0,0,1-.177.036.63.63,0,0,1-.26-.065c-.094-.043-.2-.094-.331-.147a3.315,3.315,0,0,0-.448-.147,2.474,2.474,0,0,0-.6-.065,2.108,2.108,0,0,0-.511.058,1.264,1.264,0,0,0-.387.17.789.789,0,0,0-.243.255.62.62,0,0,0-.084.316.5.5,0,0,0,.156.372,1.276,1.276,0,0,0,.409.258,4.47,4.47,0,0,0,.576.2c.217.058.439.119.664.185s.445.144.662.232a2.489,2.489,0,0,1,.578.321,1.511,1.511,0,0,1,.409.46,1.319,1.319,0,0,1,.154.659,1.911,1.911,0,0,1-.182.829,1.859,1.859,0,0,1-.536.66,2.57,2.57,0,0,1-.875.437,4.591,4.591,0,0,1-1.923.1,4.473,4.473,0,0,1-.664-.161,3.648,3.648,0,0,1-.584-.248,3.111,3.111,0,0,1-.483-.31l.353-.513a.461.461,0,0,1,.159-.146.482.482,0,0,1,.237-.053.571.571,0,0,1,.291.084c.1.056.21.117.339.184a2.88,2.88,0,0,0,.468.184,2.348,2.348,0,0,0,.682.084,2.025,2.025,0,0,0,.584-.073,1.213,1.213,0,0,0,.41-.2.8.8,0,0,0,.238-.285.768.768,0,0,0,.078-.339.541.541,0,0,0-.156-.4,1.315,1.315,0,0,0-.412-.268,4.067,4.067,0,0,0-.584-.2q-.328-.087-.665-.189c-.225-.066-.447-.142-.665-.23a2.375,2.375,0,0,1-.586-.333,1.582,1.582,0,0,1-.412-.493,1.494,1.494,0,0,1-.154-.708,1.566,1.566,0,0,1,.172-.722,1.757,1.757,0,0,1,.508-.606,2.6,2.6,0,0,1,.824-.415,3.825,3.825,0,0,1,1.129-.152,3.985,3.985,0,0,1,1.317.207,2.935,2.935,0,0,1,.995.559Z" transform="translate(-221.105 -472.845)" fill="#fff"/>
      </g>
    </g>
  </g>
</svg>
