<svg xmlns="http://www.w3.org/2000/svg" width="15.103" height="15.104" viewBox="0 0 15.103 15.104">
  <path id="phone" d="M14.894,12.56l-2.13,2.112a1.541,1.541,0,0,1-1.137.432,9.849,9.849,0,0,1-4.883-1.84,18.836,18.836,0,0,1-5.7-6.217A8.045,8.045,0,0,1,0,3.5,1.551,1.551,0,0,1,.436,2.35L2.566.221A.7.7,0,0,1,3.719.413L5.432,3.662a.943.943,0,0,1-.192,1.072l-.785.784a.387.387,0,0,0-.08.224A6.688,6.688,0,0,0,6.392,8.719,6.691,6.691,0,0,0,9.186,10.7a.442.442,0,0,0,.408-.04l.913-.928a1.042,1.042,0,0,1,1.1-.16h.016l3.09,1.824a.744.744,0,0,1,.176,1.168Z" transform="translate(0)" fill="tomato"/>
</svg>
