<svg xmlns="http://www.w3.org/2000/svg" xmlns:xlink="http://www.w3.org/1999/xlink" width="50" height="50" viewBox="0 0 50 50">
  <defs>
    <filter id="Ellipse_2" x="0" y="0" width="50" height="50" filterUnits="userSpaceOnUse">
      <feOffset dy="4" input="SourceAlpha"/>
      <feGaussianBlur stdDeviation="3" result="blur"/>
      <feFlood flood-color="#9438f3" flood-opacity="0.4"/>
      <feComposite operator="in" in2="blur"/>
      <feComposite in="SourceGraphic"/>
    </filter>
  </defs>
  <g id="Group_709" data-name="Group 709" transform="translate(9.144 5.352)">
    <g transform="matrix(1, 0, 0, 1, -9.14, -5.35)" filter="url(#Ellipse_2)">
      <circle id="Ellipse_2-2" data-name="Ellipse 2" cx="16" cy="16" r="16" transform="translate(9 5)" fill="#a127f2"/>
    </g>
    <g id="Group_587" data-name="Group 587" transform="translate(9.028 7.021)">
      <path id="android-globe" d="M9.45,3.375A6.075,6.075,0,1,0,15.525,9.45,6.075,6.075,0,0,0,9.45,3.375ZM8.821,14.62A5.208,5.208,0,0,1,5.487,6.072a5.816,5.816,0,0,1,.059.706,2.254,2.254,0,0,0,.29,1.716,2.831,2.831,0,0,1,.275.82c.076.259.377.394.585.554.42.322.821.7,1.265.978.294.187.477.28.391.638a2.255,2.255,0,0,1-.238.722,1.464,1.464,0,0,0,.244.654c.219.219.436.42.675.617C9.4,13.783,9,14.181,8.821,14.62Zm4.311-1.488a5.171,5.171,0,0,1-2.7,1.434,2.163,2.163,0,0,1,.639-.858A2.18,2.18,0,0,0,11.643,13a4.865,4.865,0,0,1,.4-.678c.206-.318-.509-.8-.741-.9a7.644,7.644,0,0,1-1.377-.858c-.33-.232-1,.121-1.373-.042a7.18,7.18,0,0,1-1.375-.945c-.458-.345-.436-.747-.436-1.256.359.013.869-.1,1.107.189.075.091.334.5.506.353.141-.118-.1-.592-.152-.7-.146-.342.333-.476.578-.708.32-.3,1.007-.778.952-.994s-.687-.832-1.059-.736c-.056.015-.546.528-.641.609l.007-.5c0-.106-.2-.215-.189-.283.023-.173.5-.486.624-.624-.084-.052-.37-.3-.456-.262-.209.087-.446.147-.656.235a1.305,1.305,0,0,0-.02-.209l.411.165.29.345.29.3.253.082.4-.38,1.22-.655V4.3a5.15,5.15,0,0,1,2.206.87c-.118.01-.247.028-.393.047a1.259,1.259,0,0,0-.2-.076c.191.41.39.815.592,1.219.216.432.695.9.779,1.353.1.538.03,1.026.085,1.659a2.836,2.836,0,0,0,.687,1.3,1.382,1.382,0,0,0,.537.065,5.178,5.178,0,0,1-1.366,2.4Z" transform="translate(-3.375 -3.367)" fill="#fff"/>
      <g id="globe">
        <path id="Path_470" data-name="Path 470" d="M19.84,7.547a8.89,8.89,0,0,0-2.615-6.3l-.9.9A7.641,7.641,0,0,1,5.541,12.974l-.024-.024-.9.9a8.89,8.89,0,0,0,6.3,2.614v1.911H8.373v1.274h6.371V18.377H12.195V16.364A8.925,8.925,0,0,0,19.84,7.547Z" transform="translate(-4.616 -1.243)" fill="#fff"/>
      </g>
    </g>
  </g>
</svg>
