<svg xmlns="http://www.w3.org/2000/svg" width="38.327" height="29.733" viewBox="0 0 38.327 29.733">
  <g id="layer1" transform="translate(-230.854 -438.479)">
    <g id="g13">
      <g id="g15">
        <path id="Path_538" data-name="Path 538" d="M237.84,468.144v-1.973a1.152,1.152,0,0,0-1.045-1.25,1.173,1.173,0,0,0-.205,0,1.3,1.3,0,0,0-1.118.559,1.151,1.151,0,0,0-1.051-.559,1.063,1.063,0,0,0-.922.461v-.395h-.691v3.157h.691V466.4c0-.559.3-.822.757-.822s.691.3.691.822v1.743h.691V466.4a.728.728,0,0,1,.626-.817.712.712,0,0,1,.131-.005c.46,0,.691.3.691.822v1.743Zm10.229-3.157h-1.116v-.954h-.691v.954h-.625v.625h.625v1.447c0,.723.3,1.151,1.086,1.151a1.84,1.84,0,0,0,.854-.23l-.2-.592a1.093,1.093,0,0,1-.592.164c-.329,0-.46-.2-.46-.527v-1.413h1.118Zm5.854-.066a.922.922,0,0,0-.823.461v-.395h-.691v3.157h.691v-1.776c0-.526.231-.822.658-.822a1.919,1.919,0,0,1,.427.066l.2-.658a2.152,2.152,0,0,0-.46-.033Zm-8.848.329a2.256,2.256,0,0,0-1.282-.329c-.79,0-1.316.4-1.316,1.019,0,.527.395.823,1.086.922l.328.032c.362.066.56.165.56.329,0,.231-.264.394-.723.394a1.809,1.809,0,0,1-1.053-.328l-.329.526a2.325,2.325,0,0,0,1.348.394c.922,0,1.447-.427,1.447-1.019,0-.559-.427-.855-1.085-.954l-.328-.032c-.3-.033-.527-.1-.527-.3,0-.23.231-.362.592-.362a2.37,2.37,0,0,1,.986.263l.3-.559Zm18.352-.329a.919.919,0,0,0-.822.461v-.395h-.691v3.157h.691v-1.776c0-.526.23-.822.657-.822a1.919,1.919,0,0,1,.427.066l.2-.658a2.226,2.226,0,0,0-.461-.033Zm-8.814,1.645a1.579,1.579,0,0,0,1.51,1.645,1.551,1.551,0,0,0,.167,0,1.627,1.627,0,0,0,1.118-.362l-.328-.558a1.339,1.339,0,0,1-.823.3.935.935,0,0,1-.957-.91.788.788,0,0,1,0-.109.97.97,0,0,1,.919-1.019h.034a1.332,1.332,0,0,1,.823.3l.328-.558a1.637,1.637,0,0,0-1.118-.362,1.581,1.581,0,0,0-1.676,1.479,1.528,1.528,0,0,0,0,.166Zm6.38,0v-1.579H260.3v.395a1.188,1.188,0,0,0-.986-.461,1.646,1.646,0,0,0,0,3.288,1.105,1.105,0,0,0,.986-.461v.394h.691v-1.576Zm-2.534,0a.956.956,0,0,1,1.908-.133.987.987,0,0,1,0,.133.956.956,0,1,1-1.908,0Zm-8.254-1.645a1.645,1.645,0,0,0,.032,3.288,2.011,2.011,0,0,0,1.283-.427l-.329-.493a1.563,1.563,0,0,1-.921.328.887.887,0,0,1-.954-.755h2.334V466.6a1.452,1.452,0,0,0-1.21-1.66,1.437,1.437,0,0,0-.236-.017Zm0,.592a.768.768,0,0,1,.789.747v.01h-1.645A.835.835,0,0,1,250.205,465.513Zm17.134,1.053v-2.832h-.691v1.644a1.187,1.187,0,0,0-.986-.46,1.646,1.646,0,0,0,0,3.288,1.105,1.105,0,0,0,.986-.461v.394h.691v-1.573Zm-2.534,0a.956.956,0,0,1,1.908-.133.987.987,0,0,1,0,.133.956.956,0,0,1-1.908.132A.972.972,0,0,1,264.8,466.566Zm-23.086,0v-1.579h-.691v.395a1.19,1.19,0,0,0-.987-.461,1.646,1.646,0,0,0,0,3.288,1.107,1.107,0,0,0,.987-.461v.394h.691v-1.576Zm-2.566,0a.956.956,0,0,1,1.908-.116.751.751,0,0,1,0,.116.956.956,0,0,1-1.908.115A1.1,1.1,0,0,1,239.153,466.566Z" fill="#030504"/>
      </g>
      <g id="Group_600" data-name="Group 600">
        <rect id="rect19" width="10.36" height="18.614" transform="translate(244.845 441.012)" fill="#ed4715"/>
        <path id="Path_539" data-name="Path 539" d="M245.5,450.319a11.861,11.861,0,0,1,4.505-9.307,11.839,11.839,0,1,0,0,18.614A11.817,11.817,0,0,1,245.5,450.319Z" fill="#e0001a"/>
        <path id="path22" d="M269.181,450.319a11.828,11.828,0,0,1-19.141,9.307,11.862,11.862,0,0,0,0-18.614,11.827,11.827,0,0,1,19.141,9.307Z" fill="#f88a09"/>
      </g>
    </g>
  </g>
</svg>
