<svg xmlns="http://www.w3.org/2000/svg" xmlns:xlink="http://www.w3.org/1999/xlink" width="50" height="50" viewBox="0 0 50 50">
  <defs>
    <filter id="Ellipse_8" x="0" y="0" width="50" height="50" filterUnits="userSpaceOnUse">
      <feOffset dy="4" input="SourceAlpha"/>
      <feGaussianBlur stdDeviation="3" result="blur"/>
      <feFlood flood-color="#ff0931" flood-opacity="0.4"/>
      <feComposite operator="in" in2="blur"/>
      <feComposite in="SourceGraphic"/>
    </filter>
  </defs>
  <g id="Group_709" data-name="Group 709" transform="translate(-131 -4062)">
    <g transform="matrix(1, 0, 0, 1, 131, 4062)" filter="url(#Ellipse_8)">
      <circle id="Ellipse_8-2" data-name="Ellipse 8" cx="16" cy="16" r="16" transform="translate(9 5)" fill="#ff0931"/>
    </g>
    <path id="heart" d="M8.957,15.355a.6.6,0,0,1-.44-.18L2.279,9.157A3.312,3.312,0,0,1,2,8.9q-.175-.18-.555-.655a8.828,8.828,0,0,1-.68-.975,6.076,6.076,0,0,1-.535-1.21A4.363,4.363,0,0,1,0,4.679,4.585,4.585,0,0,1,1.269,1.24,4.809,4.809,0,0,1,4.779,0,3.981,3.981,0,0,1,6.043.215a5.135,5.135,0,0,1,1.2.58q.555.365.954.685a9.419,9.419,0,0,1,.76.68,9.2,9.2,0,0,1,.76-.68q.4-.32.955-.685a5.122,5.122,0,0,1,1.2-.58A3.983,3.983,0,0,1,13.135,0a4.808,4.808,0,0,1,3.509,1.24,4.585,4.585,0,0,1,1.269,3.439,6.536,6.536,0,0,1-2.289,4.5l-6.228,6a.6.6,0,0,1-.44.18Z" transform="translate(147 4076)" fill="#fff"/>
  </g>
</svg>
