<svg xmlns="http://www.w3.org/2000/svg" width="75.117" height="31.221" viewBox="0 0 75.117 31.221">
  <g id="Group_599" data-name="Group 599" transform="translate(-316.884 -375.545)">
    <g id="Group_595" data-name="Group 595">
      <path id="Path_484" data-name="Path 484" d="M346.365,391.981a14.892,14.892,0,0,1-.356,3.28h0a14.457,14.457,0,0,1-2.331,5.216c-.039.04-.039.08-.079.08-.2.276-.395.513-.592.751h0c-.041.039-.041.079-.08.079a15.642,15.642,0,0,1-2.173,2.094,14.746,14.746,0,0,1-2.687,1.7,15.826,15.826,0,0,1-3.636,1.224,2.293,2.293,0,0,1-.514.08c-.159.039-.317.039-.474.079-.238.039-.475.039-.712.078a9.512,9.512,0,0,1-1.067.041,6.558,6.558,0,0,1-.908-.041,11.18,11.18,0,0,1-1.621-.2c-.474-.079-.988-.2-1.462-.316A14.778,14.778,0,0,1,320.8,401.9c-.277-.277-.514-.594-.751-.87a15.116,15.116,0,0,1-2.49-4.743,14.054,14.054,0,0,1-.672-4.307,14.75,14.75,0,0,1,8.378-13.279,14,14,0,0,0-1.185,1.779l-.115.115a12.969,12.969,0,0,0-4.822,10.077,11.789,11.789,0,0,0,.277,2.649c0,.079.039.116.039.2a1.38,1.38,0,0,1,.08.4,3.7,3.7,0,0,1,.115.4,8.861,8.861,0,0,0,.395,1.1c.039.08.079.2.115.278.079.2.158.355.237.553.115.237.237.434.356.632h0c.078.158.2.316.276.475a1.43,1.43,0,0,0,.277.395c.039.078.079.115.115.2.079.115.2.277.276.4a2.208,2.208,0,0,0,.277.354c.079.116.159.2.237.317a9.307,9.307,0,0,0,1.068,1.107,4.253,4.253,0,0,0,.473.4,2.222,2.222,0,0,0,.356.277,2.161,2.161,0,0,1,.356.276c.237.158.474.356.751.514.158.115.356.2.513.316.158.079.317.2.514.277a1.97,1.97,0,0,0,.277.115.307.307,0,0,0,.159.078.119.119,0,0,1,.078.04,1.608,1.608,0,0,0,.4.158h0c.04.039.079.039.159.08a2.246,2.246,0,0,0,.473.158.742.742,0,0,0,.277.079h0c.474.158.949.276,1.423.4.2.039.356.078.553.115.158.039.317.039.474.078.116,0,.238.041.4.041h1.226a14.222,14.222,0,0,0,3.675-.515l1.067-.355.83-.356h0c.115-.079.276-.115.395-.2l.237-.115c.079-.039.115-.078.2-.115l.593-.355a2.416,2.416,0,0,0,.395-.277,3.69,3.69,0,0,1,.395-.277c.116-.078.2-.158.317-.237.078-.078.158-.115.237-.2s.2-.159.277-.237c.115-.115.237-.2.356-.317l.315-.316a2.193,2.193,0,0,0,.277-.316c.04-.04.079-.079.079-.115a.635.635,0,0,1,.158-.158,2.872,2.872,0,0,0,.317-.395,1.733,1.733,0,0,0,.2-.277h0a2.17,2.17,0,0,0,.238-.317.2.2,0,0,0,.079-.157c.115-.158.2-.316.316-.475s.2-.355.316-.513a.845.845,0,0,1,.158-.238h0v-.039c.039-.115.115-.2.158-.315a1.42,1.42,0,0,0,.159-.356c.078-.158.115-.277.2-.436a2.69,2.69,0,0,1,.115-.315c.039-.08.08-.2.115-.277a.24.24,0,0,0,.039-.159c0-.039.041-.115.041-.157a4,4,0,0,0,.2-.633c.039-.078.039-.2.079-.276.039-.158.078-.356.115-.514a2.008,2.008,0,0,0,.079-.474,3.071,3.071,0,0,0,.079-.633c0-.157.039-.276.039-.434a1.316,1.316,0,0,1,.041-.395V390.6a10.218,10.218,0,0,0-.041-1.106v-.115h0a2.155,2.155,0,0,1,.317.236c.078.08.2.159.276.237h0a5.4,5.4,0,0,1,.514-.79l.039-.039a.143.143,0,0,0,.041.115c.078.435.157.909.2,1.382v.04C346.326,391.033,346.365,391.506,346.365,391.981Z" fill="#e2001b"/>
      <path id="Path_485" data-name="Path 485" d="M344.943,390.638v.671a1.381,1.381,0,0,1-.039.4c0,.158-.041.277-.041.435-.039.2-.039.4-.078.632-.04.159-.04.317-.08.475s-.079.355-.115.513c-.039.08-.039.2-.078.277a2.99,2.99,0,0,1-.2.632c0,.04-.039.115-.039.159s-.041.115-.041.158c-.039.079-.078.2-.115.276a2.546,2.546,0,0,1-.115.317,2.1,2.1,0,0,1-.2.434c-.039.115-.115.237-.158.356s-.115.2-.159.315v.041h0a.816.816,0,0,1-.157.237,3.656,3.656,0,0,1-.316.514,3.34,3.34,0,0,1-.317.473.214.214,0,0,0-.079.159c-.078.115-.158.2-.23.316h0a1.64,1.64,0,0,0-.2.276c-.115.115-.2.278-.315.395a.678.678,0,0,1-.159.159c-.039.039-.078.078-.078.115-.08.115-.2.2-.278.316l-.315.316c-.116.116-.238.2-.356.316-.079.079-.2.158-.277.237s-.158.115-.237.2c-.115.079-.2.158-.316.238a3.417,3.417,0,0,1-.4.276c-.115.078-.23.158-.395.276l-.592.356c-.079.039-.115.079-.2.115l-.237.116a1.893,1.893,0,0,1-.395.2h0l-.829.355c-.356.116-.673.238-1.068.356a12.322,12.322,0,0,1-3.675.514h-1.162c-.116,0-.238-.039-.4-.039a1.959,1.959,0,0,1-.474-.08c-.2-.039-.356-.079-.553-.115a9.586,9.586,0,0,1-1.423-.4h0a.742.742,0,0,0-.277-.079c-.158-.039-.315-.115-.473-.158a.3.3,0,0,1-.159-.079h0c-.115-.04-.276-.116-.395-.158-.039,0-.039,0-.078-.039-.08-.041-.116-.041-.159-.08-.079-.039-.2-.078-.277-.115-.158-.078-.315-.158-.513-.276a3.752,3.752,0,0,1-.514-.316,8.527,8.527,0,0,1-.751-.515,2.159,2.159,0,0,1-.356-.276c-.115-.079-.237-.2-.356-.277-.158-.115-.315-.276-.473-.4l-.2-.2-.238-.236-.115-.115c-.078-.08-.158-.2-.237-.278a2.233,2.233,0,0,1-.276-.315c-.079-.115-.158-.2-.238-.317s-.2-.23-.276-.355a2.357,2.357,0,0,1-.276-.4c-.04-.078-.08-.115-.116-.2a2.389,2.389,0,0,0-.276-.4c-.079-.159-.2-.317-.276-.474h0c-.116-.2-.238-.435-.356-.633-.08-.2-.158-.356-.238-.553-.039-.079-.079-.2-.115-.277-.158-.355-.276-.751-.395-1.106a3.77,3.77,0,0,1-.115-.395,1.407,1.407,0,0,1-.079-.4c0-.078-.04-.115-.04-.2a14.725,14.725,0,0,1-.276-2.649,12.97,12.97,0,0,1,4.821-10.078l.115-.115a14.839,14.839,0,0,0-1.936,7.311,16.077,16.077,0,0,0,.2,2.411,13.525,13.525,0,0,0,.554,2.253c.115.315.236.632.355.909a16.934,16.934,0,0,0,1.225,2.371c.04.039.04.079.08.115a.135.135,0,0,0,.039.078h0v.041h0a.2.2,0,0,1,.079.157h0l.237.356h0c.04.079.079.116.115.2h0c.04.08.115.159.159.238h0c.039.04.039.079.078.115l.04.04h0a.883.883,0,0,0,.158.2c.039.039.078.079.078.115h0a2.5,2.5,0,0,0,.317.317l.237.236h0a5.43,5.43,0,0,0,1.067.83h0a7.273,7.273,0,0,0,2.41,1.028h0c.116.039.2.039.317.079.078,0,.158.039.237.039a6.82,6.82,0,0,0,1.267.116,7.358,7.358,0,0,0,1.9-.238,7.9,7.9,0,0,0,3.675-13.278,14.992,14.992,0,0,1,6.323,1.936,1.655,1.655,0,0,0,.277.159,10.765,10.765,0,0,1,1.107.751l.039.039h0v.115A2.245,2.245,0,0,1,344.943,390.638Z" fill="#f67c0e"/>
      <path id="Path_486" data-name="Path 486" d="M324.511,392.455v.594a12.785,12.785,0,0,1,5.626-17.183q.248-.125.5-.24l2.568,4.7A12.741,12.741,0,0,0,324.511,392.455Z" fill="#f67c0e"/>
      <path id="Path_487" data-name="Path 487" d="M341.346,382.694a13.161,13.161,0,0,0-3.082-.355,13.97,13.97,0,0,0-7.074,1.936h0a14.4,14.4,0,0,0-4.505,4.307,11.584,11.584,0,0,0-.988,1.819.131.131,0,0,1-.04.078c-.039.079-.078.2-.115.278a.143.143,0,0,1,.04-.116h0v-.079c.039-.158.078-.317.115-.514a7.791,7.791,0,0,1,.277-.908,13.245,13.245,0,0,1,2.173-4.111h0a13.95,13.95,0,0,1,6.165-4.584l-.237-.434h0l-1.225-2.293-.158-.276a.792.792,0,0,1,.316-.158,13.914,13.914,0,0,1,6.719-1.739c.473,0,.947.039,1.382.079l.157,3.753v.792Z" fill="#e2001b"/>
      <path id="Path_488" data-name="Path 488" d="M347.63,381.864a15.455,15.455,0,0,0-2.292-1.107h0a15.748,15.748,0,0,0-3.32-.829l.04.553.079,2.371.039.79a14.449,14.449,0,0,0-3.477-.434,14.041,14.041,0,0,0-5.651,1.185h0a14.512,14.512,0,0,0-3.4,2.134h0c-.356.317-.712.633-1.027.949a15.971,15.971,0,0,1,3.833-1.423h0a15.451,15.451,0,0,1,3.6-.434h.079a15.964,15.964,0,0,1,8.655,2.534,10.135,10.135,0,0,1,.829.593l.317-.514,1.382-2.1.2-.317.435-.671.553-.87.276-.434.116-.2.115-.2.276-.435A17.585,17.585,0,0,0,347.63,381.864Zm-4.189-1.58h.039c.04,0,.04,0,.079.039C343.52,380.323,343.48,380.284,343.441,380.284Z" fill="#f67c0e"/>
    </g>
    <g id="Group_596" data-name="Group 596">
      <path id="Path_489" data-name="Path 489" d="M330.637,389.531s-.909.2-.83-.237c0-.2.115-.237.2-.2,0-.078-.2-.316.237-.434.115-.2.237-.356.316-.475s.115-.315.474-.2a1.606,1.606,0,0,1,.79.553c.2,0,.436.079.356.079l-.115.116s.115.078-.237.078a.126.126,0,0,0,.115.115c.079.079,0,.079,0,.115,0,0,.079.2-.115.115s-.2-.115-.238-.115c-.078,0-.2,0-.2.08s.2.2,0,.2c-.079.079.079.115,0,.115a3.261,3.261,0,0,1-.672.435c-.2,0-.236-.079-.236-.115s.115-.115.236-.115c-.079-.08-.039-.115-.079-.115" fill="#e2001b"/>
      <path id="Path_490" data-name="Path 490" d="M330.558,390.484c-.079,0-.356-.2-.2-.238.115-.115.71-.473.829-.552a.132.132,0,1,1,.137.226l-.022.011a4.239,4.239,0,0,1-.751.553" fill="#e2001b"/>
      <path id="Path_491" data-name="Path 491" d="M331.466,390.045c0-.115.116-.475.116-.553s.316-.115.237.23c-.115.317-.356.475-.356.317" fill="#e2001b"/>
      <path id="Path_492" data-name="Path 492" d="M331.9,389.332a14.123,14.123,0,0,1,1.817,0,2.276,2.276,0,0,1,.554,1.739c-.115.79-.356.949-1.463,1.107a3.4,3.4,0,0,0-.2-1.107c-.115-.2-.473-.593-.592-.593,0,.2-.079.712-.079.712s-.553.079-.593-.08v-.829a7.628,7.628,0,0,0,.554-.554c.078.079.115.317.671.237,0,.08-.671.159-.671-.632" fill="#e2001b"/>
      <path id="Path_493" data-name="Path 493" d="M331.229,390.124s-.553.435-.671.553c-.079.115-.116.593.554.593a5.014,5.014,0,0,0,.115-1.146" fill="#e2001b"/>
      <path id="Path_494" data-name="Path 494" d="M329.964,390.8c-.2,0-.315-.08-.315-.2a.353.353,0,0,1,.434-.238.62.62,0,0,1,.435.673,1.256,1.256,0,0,0,.83.356c.435,0,.672,0,.672.115v.791a3.88,3.88,0,0,1-1.7-.83.57.57,0,0,1-.2-.434c0-.2-.115-.238-.158-.238" fill="#e2001b"/>
      <path id="Path_495" data-name="Path 495" d="M329.61,390.835c-.2,0-.792.474-.356.671l.237-.23s-.115.316.115.355c.238.079.115-.115.238-.115.078.115.078.2.2.2s.116-.356,0-.553a.429.429,0,0,0-.434-.317" fill="#e2001b"/>
      <path id="Path_496" data-name="Path 496" d="M332.139,390.914v1.581a2.107,2.107,0,0,0,.553-.316c0-.237-.115-1.267-.553-1.267" fill="#e2001b"/>
      <path id="Path_497" data-name="Path 497" d="M330.874,391.942a4.994,4.994,0,0,0,.948.553c-.078.079-.315.435-.434.355a2.25,2.25,0,0,1-.514-.908" fill="#e2001b"/>
      <path id="Path_498" data-name="Path 498" d="M328.74,392.85h-.79l-.039-.315h.83Z" fill="#e2001b"/>
      <path id="Path_499" data-name="Path 499" d="M334,392.771h2.924v-.395h-3.438Z" fill="#e2001b"/>
      <path id="Path_500" data-name="Path 500" d="M332.81,392.376c.08-.078.475.237.356.317q-.621.269-1.267.474a.211.211,0,0,1-.012-.3.209.209,0,0,1,.091-.058c.04-.079.632-.276.83-.435" fill="#e2001b"/>
      <path id="Path_501" data-name="Path 501" d="M331.585,393.088c-.115-.08-.79.593-.473.671a7.943,7.943,0,0,1,1.224.317c.2-.08.317-.237.317-.317.115,0,.315.2.473.115a3.667,3.667,0,0,0,1.028-.79,2.4,2.4,0,0,0-.711-.356c-.158-.078-1.267.594-1.858.356" fill="#e2001b"/>
      <path id="Path_502" data-name="Path 502" d="M331.229,393.918c.08,0,.949.316,1.152.316.23-.08.23-.238.355-.238s.2.115.355,0a5.558,5.558,0,0,0,.672-.552c0,.115,0,.474-.79.829a17.055,17.055,0,0,0-2.726,1.146,4.022,4.022,0,0,0,.473-.115.674.674,0,0,1,.237.711c-.078.436-.356,1.107-.356,1.267v1.146c0,.08.2.593-.078.554s-.356-.079-.474,0c-.116,0-.316.2-.435.115-.2,0-.435-.115-.435-.2s.2-.079.356-.115c.2-.079.237-.237.553-.356,0-.2-.115-1.7-.115-2.015s-.116-.948.079-1.225c.158-.277.87-1.3,1.185-1.266" fill="#e2001b"/>
      <path id="Path_503" data-name="Path 503" d="M332.376,394.786c0,.116.553,1.463.79,1.463a16.176,16.176,0,0,1,2.885-.317c.116.2.355.475.355.673,0,0,.08.434,0,.475a.475.475,0,0,0,.317-.2,2.885,2.885,0,0,0,0-.83c0-.115.315-.671-.08-.592a12.781,12.781,0,0,1-1.738-.079,2.95,2.95,0,0,0-1.266-.116,1.447,1.447,0,0,0-.436.475c-.079,0-.115-.079,0-.317a3.968,3.968,0,0,0,.317-1.267c-.2.08-1.146.633-1.146.633" fill="#e2001b"/>
      <path id="Path_504" data-name="Path 504" d="M331.112,392.653a.452.452,0,0,0,.115.237l-1.738-.116s-.2-.115-.115-.2Z" fill="#e2001b"/>
      <path id="Path_505" data-name="Path 505" d="M329.174,392.535h1.74s-.116-.2-.2-.317H329.1s-.2,0-.2.356c.039.079.158.2.276-.039" fill="#e2001b"/>
      <path id="Path_506" data-name="Path 506" d="M327.476,392.85h.355s.116-.079,0-.2-.355-.237-.2-.474c-.2,0-.434-.079-.356.474h-.2a.462.462,0,0,0-.475-.316,6.036,6.036,0,0,0-1.463.434,10.928,10.928,0,0,0,1.463.317.589.589,0,0,0,.475-.317h.115s.078.237.115.317v.356a.171.171,0,0,0-.083.229l0,.008c0,.2.116.2.2.2s.08-.078.238-.078c.079-.08,0-.317-.116-.356v-.238s.116-.115.116-.2c-.079-.115-.2-.039-.2-.158" fill="#e2001b"/>
      <path id="Path_507" data-name="Path 507" d="M329.61,394.55h0a.707.707,0,0,0,.2-.237h0v-1.027c0-.238-.435-.436-.475-.436h0a.429.429,0,0,1-.23.116.361.361,0,0,1-.317-.116h0c-.356,0-.553.436-.553.475h0a3.759,3.759,0,0,0,0,.948c0,.115.115.237.2.317-.078.237-.434,1.62.08,1.817v.237h1.225v-.237c.276-.276,0-1.5-.115-1.857m-1.424-1.267a.524.524,0,0,1,.436-.355.436.436,0,0,0,.356.115c.115,0,.237-.115.315-.115.115.078.356.2.356.355v1.028c0,.078-.079.115-.115.2h-.237v-.475h-.79v.436h-.2a.285.285,0,0,1-.115-.238v-.947m.87,2.844h-.237a.119.119,0,1,1,0-.237h.237a.126.126,0,0,1,.115.115.174.174,0,0,1-.115.115m.474.115-.593-.671-.553.671h0c-.356-.115-.115-1.225,0-1.7h1.131c.116.473.317,1.5,0,1.7" fill="#e2001b"/>
      <path id="Path_508" data-name="Path 508" d="M329.332,395.024a.231.231,0,0,0-.078-.316h-.712c-.237,0-.2.316-.2.316l.434.356a.8.8,0,0,0,.553-.356" fill="#e2001b"/>
      <path id="Path_509" data-name="Path 509" d="M329.056,395.459l.435.473s-.079-.592-.079-.79c-.08.08-.356.317-.356.317" fill="#e2001b"/>
      <path id="Path_510" data-name="Path 510" d="M328.423,395.142c0,.2-.078.79-.078.79l.434-.473c.04,0-.2-.237-.356-.317" fill="#e2001b"/>
      <path id="Path_511" data-name="Path 511" d="M329.293,393.878h.079V393.8a.077.077,0,0,0-.077-.079h-.673a.078.078,0,0,0-.08.077v.081Z" fill="#e2001b"/>
      <path id="Path_512" data-name="Path 512" d="M328.3,396.644h-.078v.08a.077.077,0,0,0,.076.078h1.228a.077.077,0,0,0,.08-.075v-.083H328.3Z" fill="#e2001b"/>
    </g>
    <g id="Group_597" data-name="Group 597">
      <path id="Path_513" data-name="Path 513" d="M354.625,404.825v.79l.672-.237.2.2v.237a1.078,1.078,0,0,1-.231.672.638.638,0,0,1-.593.237.8.8,0,0,1-.712-.356,2.173,2.173,0,0,1-.434-.712l.2-.115c.237.673.554.949.949.949a.68.68,0,0,0,.632-.632.216.216,0,0,0-.079-.2l-.592.237-.2-.237v-.83h-1.027v-.2H355.7v.2Z" fill="#191717"/>
      <path id="Path_514" data-name="Path 514" d="M356.166,404.825v1.817h-.237v-1.817h-.317v-.2h.79v.2Z" fill="#191717"/>
      <path id="Path_515" data-name="Path 515" d="M357.668,404.825v.115a1.053,1.053,0,0,1,.553.2c.2.115.316.237.316.435a.546.546,0,0,1-.2.356.642.642,0,0,1-.356.115h-.08v-.237h.115c.2,0,.238-.079.238-.237,0-.2-.2-.317-.592-.356v1.463h-.238c-.115-.2-.237-.356-.355-.554a.723.723,0,0,0-.594-.237l-.078-.316a5.355,5.355,0,0,1,1.027-.593v-.115h-1.106v-.2h2.292v.2A7.457,7.457,0,0,0,357.668,404.825Zm-.237.356a2.206,2.206,0,0,0-.317.2l-.315.317a1.18,1.18,0,0,1,.315.315,3.344,3.344,0,0,1,.317.356Z" fill="#191717"/>
      <path id="Path_516" data-name="Path 516" d="M361.738,404.271a1.9,1.9,0,0,0-.949-.355.974.974,0,0,0-.592.2.577.577,0,0,0-.237.554h.237v.2h-.237v1.7h-.237v-1.739h-.237v-.2h.237a.869.869,0,0,1,.315-.711.926.926,0,0,1,.712-.237,3.834,3.834,0,0,1,.593.115,5.591,5.591,0,0,0,.553.316Z" fill="#191717"/>
      <path id="Path_517" data-name="Path 517" d="M361.895,404.9v1.82h-.237a2.022,2.022,0,0,0-.593-.554,1.372,1.372,0,0,0-.79-.236l-.079-.317a1.929,1.929,0,0,1,.711-.356c.115-.078.356-.115.791-.315v-.115h-1.62v-.2h2.134v.2h-.317Zm-.237.356c-.237.08-.593.237-1.107.475a5.747,5.747,0,0,1,1.107.593Z" fill="#191717"/>
      <path id="Path_518" data-name="Path 518" d="M362.094,404.627h2.252v.2h-2.252Zm1.267,2.015a1.026,1.026,0,0,1-.712-.356,2.111,2.111,0,0,1-.434-.71l.115-.115a2.221,2.221,0,0,0,.356.671.75.75,0,0,0,.593.356.682.682,0,0,0,.633-.632.942.942,0,0,1-.475.2.764.764,0,0,1-.356-.115.555.555,0,0,1-.2-.356,1.27,1.27,0,0,1,.116-.356.475.475,0,0,1,.355-.115c.116,0,.2,0,.238.079s.115.115.115.237a.449.449,0,0,1-.115.231l-.2-.115c.079-.079.079-.079.079-.115a.178.178,0,0,0-.115-.116.271.271,0,0,0-.278.262v.015a.346.346,0,0,0,.116.237.283.283,0,0,0,.237.115.563.563,0,0,0,.474-.237l.238.237a.747.747,0,0,1-.238.592,4.144,4.144,0,0,1-.553.115" fill="#191717"/>
      <path id="Path_519" data-name="Path 519" d="M364.742,404.825v1.817h-.2v-1.817h-.276v-.2h.79v.2Z" fill="#191717"/>
      <path id="Path_520" data-name="Path 520" d="M365.966,406.761a1.634,1.634,0,0,1-.552-.115,1.1,1.1,0,0,1-.317-.79,1.043,1.043,0,0,1,.2-.553,2.942,2.942,0,0,1,.356-.475h-.712v-.2h1.146v.2a.843.843,0,0,0-.475.435.831.831,0,0,0-.23.593q0,.711.592.712a.218.218,0,0,0,.2-.08v.237a.437.437,0,0,1-.2.04" fill="#191717"/>
      <path id="Path_521" data-name="Path 521" d="M367.468,404.944v1.739h-.237v-1.152c0-.078-.078-.115-.115-.2a.6.6,0,0,0-.553-.356.452.452,0,0,0-.237.115l-.115.115a.4.4,0,0,1,.237-.079.472.472,0,0,1,.316.079.283.283,0,0,1,.116.238.551.551,0,0,1-.2.356c-.115.115-.238.237-.356.237l-.115-.2c.115-.08.2-.115.316-.2.116-.116.2-.2.2-.316,0-.079-.078-.115-.2-.115s-.2-.08-.237-.08h-.079l-.116-.237.238-.236a.521.521,0,0,1,.316-.115.79.79,0,0,1,.672.434v-.434h.434v.2h-.276Z" fill="#191717"/>
      <path id="Path_522" data-name="Path 522" d="M369.445,404.825v1.817h-.238a1.226,1.226,0,0,0-.593-.474,1.373,1.373,0,0,0-.79-.236l-.079-.317a7.409,7.409,0,0,1,1.462-.671v-.116h-1.581v-.2h2.056v.2Zm-.238.356a8.222,8.222,0,0,0-1.027.473,3.036,3.036,0,0,1,1.027.593Zm-.593,1.541a.779.779,0,0,0-.356-.237l.115-.2a1.809,1.809,0,0,1,.356.237Z" fill="#191717"/>
      <path id="Path_523" data-name="Path 523" d="M372.8,404.271a1.9,1.9,0,0,0-.948-.355.976.976,0,0,0-.593.2.575.575,0,0,0-.237.554h.237v.2h-.237v1.7h-.237v-1.739h-.237v-.2h.237a.866.866,0,0,1,.316-.711.926.926,0,0,1,.712-.237,3.845,3.845,0,0,1,.592.115,5.606,5.606,0,0,0,.554.316Z" fill="#191717"/>
      <path id="Path_524" data-name="Path 524" d="M372.369,404.786v.79l.671-.237.2.2v.237a1.074,1.074,0,0,1-.237.672.641.641,0,0,1-.593.238.8.8,0,0,1-.711-.356,2.158,2.158,0,0,1-.435-.712l.2-.115c.237.671.553.949.948.949a.68.68,0,0,0,.632-.632.222.222,0,0,0-.078-.2l-.593.238-.237-.2v-.83h-1.107v-.2h2.292v.2l-.948-.039Z" fill="#191717"/>
      <path id="Path_525" data-name="Path 525" d="M375.649,404.271a1.9,1.9,0,0,0-.949-.355.971.971,0,0,0-.592.2.662.662,0,0,0-.237.554h.237v.2h-.235v1.7h-.237v-1.739H373.4v-.2h.238a.869.869,0,0,1,.315-.711.926.926,0,0,1,.712-.237,3.834,3.834,0,0,1,.593.115,5.587,5.587,0,0,0,.553.316Z" fill="#191717"/>
      <path id="Path_526" data-name="Path 526" d="M375.451,404.706a.5.5,0,0,0,.554.356h.115l.2.237a2.425,2.425,0,0,0-.2.592,1.494,1.494,0,0,0,.115.594l-.2.079a1.055,1.055,0,0,1-.2-.554.591.591,0,0,1,.079-.356c0-.078.08-.2.116-.355a.654.654,0,0,1-.475-.2.7.7,0,0,1-.315-.434.742.742,0,0,0-.356.592.185.185,0,0,0,.174.2.088.088,0,0,0,.023,0,.218.218,0,0,0,.2-.079c.079-.079.115-.079.115-.115h.2c.078.079.078.2.078.355,0,.475-.237.672-.71.672a.543.543,0,0,1-.317-.078c-.079,0-.115-.08-.237-.116a5.5,5.5,0,0,1-.316-.554l.115-.115a3.377,3.377,0,0,0,.355.592h0l.2.08a.22.22,0,0,0,.2.078,1.261,1.261,0,0,0,.355-.115.328.328,0,0,0,.115-.317.22.22,0,0,0-.078-.2.55.55,0,0,1-.356.2.768.768,0,0,1-.317-.115.457.457,0,0,1-.115-.316.864.864,0,0,1,.237-.554h-.908v-.2h2.49v.2h-.9v-.039Z" fill="#191717"/>
      <path id="Path_527" data-name="Path 527" d="M376.715,404.825v1.58h.116a1.309,1.309,0,0,0,.593-.2.577.577,0,0,0,.356-.474.291.291,0,0,0-.263-.316.242.242,0,0,0-.054,0,1.684,1.684,0,0,0-.316.115l-.115-.2a.668.668,0,0,1,.475-.115.545.545,0,0,1,.354.2.629.629,0,0,1,.116.355.817.817,0,0,1-.316.554,1.123,1.123,0,0,1-.554.237,1.662,1.662,0,0,1-.671.079v-1.818h-.2v-.2h1.382v-.039a.4.4,0,0,0-.2-.317.642.642,0,0,0-.356-.115,1.265,1.265,0,0,0-.671.236l-.08-.2a1.373,1.373,0,0,1,.79-.237,1.054,1.054,0,0,1,.554.2.776.776,0,0,1,.237.473h.238v.2Z" fill="#191717"/>
      <path id="Path_528" data-name="Path 528" d="M378.731,404.825v1.817h-.237v-1.817h-.317v-.2h.83v.2Z" fill="#191717"/>
      <path id="Path_529" data-name="Path 529" d="M381.063,404.786v1.778h-.237v-.4c0-.434-.115-.592-.317-.592-.078,0-.115.078-.2.115-.079.078-.079.115-.079.237H380c0-.079-.079-.2-.079-.237a.28.28,0,0,0-.237-.115.338.338,0,0,0-.317.356c0,.236.116.315.436.315h.078l-.078.238h-.08a.633.633,0,0,1,0-1.267c.2,0,.317.115.434.315a.619.619,0,0,1,.436-.315c.115,0,.237.115.315.315v-.79h-1.936v-.2h2.372v.2h-.317C381.063,404.825,381.063,404.786,381.063,404.786Z" fill="#191717"/>
      <path id="Path_530" data-name="Path 530" d="M382.486,405.852a.584.584,0,0,0,.079.356.314.314,0,0,0,.316.237.218.218,0,0,0,.2-.079l.078.2a.331.331,0,0,1-.237.078c-.355,0-.592-.315-.592-.908a1.627,1.627,0,0,1,.671-1.107h.356v.2a1.115,1.115,0,0,0-.554.356.731.731,0,0,0-.315.671" fill="#191717"/>
      <path id="Path_531" data-name="Path 531" d="M385.252,404.786v1.778h-.237v-.4c0-.434-.115-.592-.317-.592-.078,0-.115.078-.2.115-.079.078-.079.115-.079.237h-.238c0-.079-.078-.2-.078-.237a.28.28,0,0,0-.237-.115.338.338,0,0,0-.317.356c0,.236.115.315.436.315h.078l-.078.238h-.08a.633.633,0,0,1,0-1.267h0c.2,0,.317.115.435.315a.62.62,0,0,1,.435-.315c.115,0,.237.115.316.315v-.79h-1.937v-.2h2.372v.2h-.277Z" fill="#191717"/>
      <path id="Path_532" data-name="Path 532" d="M387.268,404.9v1.82h-.238v-.158a.807.807,0,0,0-.316-.554,1.008,1.008,0,0,0-.553-.315c-.08,0-.2,0-.237.078-.079.079-.116.115-.116.2s0,.2.08.2c.078.079.115.079.237.079a.216.216,0,0,0,.2-.079l.079.237a.424.424,0,0,1-.316.08.545.545,0,0,1-.355-.2.636.636,0,0,1-.115-.355.511.511,0,0,1,.115-.356.545.545,0,0,1,.355-.2,1.062,1.062,0,0,1,.91.593v-1.146h-1.621v-.2h2.055v.2h-.115C387.268,404.825,387.268,404.9,387.268,404.9Z" fill="#191717"/>
      <path id="Path_533" data-name="Path 533" d="M388.334,406.761a1.64,1.64,0,0,1-.553-.115,1.1,1.1,0,0,1-.316-.79,1.034,1.034,0,0,1,.2-.553,2.938,2.938,0,0,1,.355-.475h-.711v-.2h1.146v.2a.84.84,0,0,0-.475.435.824.824,0,0,0-.236.593q0,.711.592.712a.218.218,0,0,0,.2-.08v.237a.36.36,0,0,1-.2.04" fill="#191717"/>
      <path id="Path_534" data-name="Path 534" d="M388.571,404.825v.79a2.882,2.882,0,0,1,.909-.474l.237.316a2.025,2.025,0,0,0-.2.672,2.669,2.669,0,0,0,.116.474l-.2.08a1.626,1.626,0,0,1-.115-.475,2.17,2.17,0,0,1,.08-.712,5.76,5.76,0,0,0-.91.594l-.2-.2v-1.027h-.2v-.2h1.739v.2C389.915,404.825,388.571,404.825,388.571,404.825Z" fill="#191717"/>
      <path id="Path_535" data-name="Path 535" d="M391.653,404.9v1.82h-.23v-.158a.8.8,0,0,0-.317-.554,1,1,0,0,0-.553-.315c-.079,0-.2,0-.237.078-.079.079-.115.115-.115.2s0,.2.079.2c.079.079.116.079.231.079a.218.218,0,0,0,.2-.079l.079.237a.424.424,0,0,1-.316.08.55.55,0,0,1-.356-.2.434.434,0,0,1-.115-.355.511.511,0,0,1,.115-.356.55.55,0,0,1,.356-.2,1.061,1.061,0,0,1,.908.593v-1.146h-1.62v-.2h2.056v.2H391.7C391.653,404.825,391.653,404.9,391.653,404.9Z" fill="#191717"/>
    </g>
    <g id="Group_598" data-name="Group 598">
      <path id="Path_536" data-name="Path 536" d="M366.361,385.58H353.8a.437.437,0,0,0-.434.434v.949a.438.438,0,0,0,.434.434h9.367v5.216a10.459,10.459,0,0,0-.909-1.107,4.871,4.871,0,0,0-3.517-1.7,3.078,3.078,0,0,0-2.49,1.382,4.04,4.04,0,0,0-.829,2.41,4.878,4.878,0,0,0,.79,2.846,3.606,3.606,0,0,0,3.082,1.5,2.49,2.49,0,0,0,2.649-2.292,1.792,1.792,0,0,0-1.106-1.737l-.673-.356v1.066a1.246,1.246,0,0,1-1.146.712,1.8,1.8,0,0,1-1.224-.475.946.946,0,0,1-.237-.83,1.469,1.469,0,0,1,.434-1.027,1.334,1.334,0,0,1,1.107-.553,3.748,3.748,0,0,1,3.161,1.817,5.679,5.679,0,0,1,1.028,3.162v2.613l1.857,1.146a.217.217,0,0,0,.2.079.44.44,0,0,0,.436-.435h0V387.4h.71a.439.439,0,0,0,.436-.434v-.949C366.758,385.777,366.56,385.58,366.361,385.58Z" fill="#e2001b"/>
      <path id="Path_537" data-name="Path 537" d="M391.494,385.58H375.61a.439.439,0,0,0-.436.434h0v1.739c-1.5-1.621-2.885-2.411-4.188-2.411a5.136,5.136,0,0,0-3.043.909,3,3,0,0,0-1.267,2.371c0,2.765,3.161,2.765,3.873,2.371a1.014,1.014,0,0,1,.553-.2.825.825,0,0,1,.833.818.678.678,0,0,1,0,.09c0,.672-.909,1.226-2.014,1.226a1.431,1.431,0,0,1-1.267-.554l-.475-.711-.355.829a1.887,1.887,0,0,0-.2.712,2.195,2.195,0,0,0,.91,1.739,3.146,3.146,0,0,0,2.016.711,3.465,3.465,0,0,0,2.845-1.267,3.688,3.688,0,0,0,.79-2.41,2.832,2.832,0,0,0-.592-1.621,2.2,2.2,0,0,0-1.819-1.106,3.185,3.185,0,0,0-.909.2c-.115-.078-.315,0-.355,0a.6.6,0,0,1-.435-.232.825.825,0,0,1-.237-.592,1.586,1.586,0,0,1,1.739-1.382h.078a3.06,3.06,0,0,1,2.174,1.1,7.47,7.47,0,0,1,1.344,1.7v9.919l1.858,1.107a.215.215,0,0,0,.2.079.44.44,0,0,0,.435-.435h0v-13.36h2.845v8.575l2.252.909h.116c.2,0,.355-.2.434-.356v-.079a6.842,6.842,0,0,1,3.4-5.374v.473a15.34,15.34,0,0,0,.079,1.819,1.64,1.64,0,0,0,.079.671h0a13.568,13.568,0,0,0,.474,3.636c.593,2.135,1.7,2.609,2.49,2.649h.079a1.347,1.347,0,0,0,1.028-.356,1.222,1.222,0,0,0,.315-.79,1.717,1.717,0,0,0-.2-.908l-.2-.317-.356.079c-.434.116-.552.116-.552.079h-.08c-.115,0-.115,0-.2-.079a1.726,1.726,0,0,1-.554-.949,8.317,8.317,0,0,1-.2-1.58c0-2.764.593-4.9,1.462-5.375h.079a.45.45,0,0,0,.237-.356.216.216,0,0,0-.079-.2v-.085a4.032,4.032,0,0,0-2.608-1.817h-.237a8.684,8.684,0,0,0-3.675,2.134,12.989,12.989,0,0,1-1.107.948v-3.438h8.576a.439.439,0,0,0,.434-.434v-.949A.745.745,0,0,0,391.494,385.58Z" fill="#e2001b"/>
    </g>
  </g>
</svg>
