<svg xmlns="http://www.w3.org/2000/svg" width="50.087" height="50.087" viewBox="0 0 50.087 50.087">
  <g id="cash-on-delivery_1_" data-name="cash-on-delivery (1)" transform="translate(-16 -16)">
    <path id="Path_672" data-name="Path 672" d="M215.37,32a1.67,1.67,0,0,0-1.181.489L208,38.678v6.678h20.035a3.339,3.339,0,0,0,3.339-3.339h1.67V32Z" transform="translate(-171.965 -14.33)" fill="#f0915a"/>
    <g id="Group_895" data-name="Group 895" transform="translate(29.357 35.756)">
      <path id="Path_673" data-name="Path 673" d="M165.7,223.977H145.67a1.669,1.669,0,0,1-1.67-1.67V207a1.669,1.669,0,0,1,1.67-1.67H165.7a1.67,1.67,0,0,1,1.67,1.67v15.3A1.67,1.67,0,0,1,165.7,223.977Z" transform="translate(-144 -205.333)" fill="#cd3232"/>
    </g>
    <g id="Group_896" data-name="Group 896" transform="translate(29.357 35.756)">
      <path id="Path_674" data-name="Path 674" d="M159.026,223.977H145.67a1.669,1.669,0,0,1-1.67-1.67V207a1.669,1.669,0,0,1,1.67-1.67h13.357A1.67,1.67,0,0,1,160.7,207v15.3A1.67,1.67,0,0,1,159.026,223.977Z" transform="translate(-144 -205.333)" fill="#ff4646"/>
    </g>
    <g id="Group_900" data-name="Group 900" transform="translate(29.357 21.009)">
      <g id="Group_897" data-name="Group 897">
        <path id="Path_675" data-name="Path 675" d="M166.539,75.687h-21.7a.835.835,0,0,1-.835-.835V64.835a.835.835,0,0,1,.835-.835h21.7a.835.835,0,0,1,.835.835V74.852A.835.835,0,0,1,166.539,75.687Z" transform="translate(-144 -64)" fill="#78af41"/>
      </g>
      <g id="Group_898" data-name="Group 898" transform="translate(1.67 1.67)">
        <path id="Path_676" data-name="Path 676" d="M178.365,80h-16.7A1.669,1.669,0,0,1,160,81.67v5.009a1.67,1.67,0,0,1,1.67,1.67h16.7a1.67,1.67,0,0,1,1.67-1.67V81.67A1.669,1.669,0,0,1,178.365,80Z" transform="translate(-160 -80)" fill="#466932"/>
      </g>
      <g id="Group_899" data-name="Group 899" transform="translate(8.083 2.852)">
        <ellipse id="Ellipse_50" data-name="Ellipse 50" cx="4" cy="3" rx="4" ry="3" transform="translate(-0.439 0.139)" fill="#78af41"/>
      </g>
    </g>
    <g id="Group_906" data-name="Group 906" transform="translate(16 52.73)">
      <g id="Group_901" data-name="Group 901" transform="translate(10.017 1.67)">
        <path id="Path_677" data-name="Path 677" d="M124.522,384h-7.108a5.009,5.009,0,0,0-3.542,1.467L112,387.339l4.174,4.174,2.015-2.015a1.669,1.669,0,0,1,1.181-.489h5.152a2.5,2.5,0,1,0,0-5.009Z" transform="translate(-112 -384)" fill="#fab991"/>
      </g>
      <g id="Group_902" data-name="Group 902" transform="translate(14.191 0)">
        <path id="Path_678" data-name="Path 678" d="M172.381,368.488a1.669,1.669,0,0,0-2.361,0l-6.189,6.189H155.2a1.67,1.67,0,0,0-1.181.489L152,377.182l2.5,2.5,1.67-1.67h8a2.488,2.488,0,0,0,1.771-.734l6.434-6.434A1.67,1.67,0,0,0,172.381,368.488Z" transform="translate(-152 -367.999)" fill="#f0915a"/>
      </g>
      <g id="Group_903" data-name="Group 903" transform="translate(21.148 2.783)">
        <path id="Path_679" data-name="Path 679" d="M220.058,397.449H219.5a.835.835,0,0,1-.835-.835V395.5a.835.835,0,0,1,.835-.835h.556a1.391,1.391,0,0,1,0,2.783Z" transform="translate(-218.667 -394.666)" fill="#f0915a"/>
      </g>
      <g id="Group_904" data-name="Group 904" transform="translate(0 4.52)">
        <path id="Path_680" data-name="Path 680" d="M25.773,411.558l4.418,4.418-4.174,4.174H16l8.592-8.592a.835.835,0,0,1,1.181,0Z" transform="translate(-16 -411.314)" fill="#463c4b"/>
      </g>
      <g id="Group_905" data-name="Group 905" transform="translate(10.017 9.183)">
        <path id="Path_681" data-name="Path 681" d="M116.174,456l2.749,2.749a.835.835,0,0,1,0,1.181l-.244.244H112Z" transform="translate(-112 -456)" fill="#32283c"/>
      </g>
    </g>
    <g id="Group_907" data-name="Group 907" transform="translate(43.059 17.67)">
      <path id="Path_682" data-name="Path 682" d="M275.558,39.269l.093.093a3.757,3.757,0,0,0,5.313,0l1.518-1.518h4.174a5.009,5.009,0,0,0,5.009-5.009V32h-9.326a1.67,1.67,0,0,0-1.181.489l-5.6,5.6a.835.835,0,0,0,0,1.181Z" transform="translate(-275.314 -32)" fill="#fab991"/>
    </g>
    <g id="Group_908" data-name="Group 908" transform="translate(43.548 21.565)">
      <path id="Path_683" data-name="Path 683" d="M280,71.28l.072.072a1.67,1.67,0,0,0,2.361,0l.472-.472a.417.417,0,0,0,0-.59l-.957-.957Z" transform="translate(-280 -69.332)" fill="#f0915a"/>
    </g>
    <g id="Group_909" data-name="Group 909" transform="translate(61.078 16)">
      <path id="Path_684" data-name="Path 684" d="M449.67,29.357h3.339V16H449.67A1.67,1.67,0,0,0,448,17.67V27.687A1.67,1.67,0,0,0,449.67,29.357Z" transform="translate(-448 -16)" fill="#463c4b"/>
    </g>
    <g id="Group_910" data-name="Group 910" transform="translate(62.748 22.678)">
      <path id="Path_685" data-name="Path 685" d="M464.835,80h2.5v6.678H464V80.835A.835.835,0,0,1,464.835,80Z" transform="translate(-464 -80)" fill="#32283c"/>
    </g>
    <g id="Group_911" data-name="Group 911" transform="translate(35.2 35.756)">
      <path id="Path_686" data-name="Path 686" d="M204.174,208.116h-3.339a.835.835,0,0,1-.835-.835v-1.948h5.009v1.948A.835.835,0,0,1,204.174,208.116Z" transform="translate(-200 -205.333)" fill="#faa037"/>
    </g>
    <g id="Group_912" data-name="Group 912" transform="translate(40.209 49.391)">
      <path id="Path_687" data-name="Path 687" d="M250.922,338.5h-2.5a.417.417,0,0,1-.417-.417v-1.67a.417.417,0,0,1,.417-.417h2.5a.417.417,0,0,1,.417.417v1.67A.417.417,0,0,1,250.922,338.5Z" transform="translate(-248 -336)" fill="#cd3232"/>
    </g>
  </g>
</svg>
