<svg xmlns="http://www.w3.org/2000/svg" width="52.493" height="50.456" viewBox="0 0 52.493 50.456">
  <g id="Group_913" data-name="Group 913" transform="translate(-796.721 -633.817)">
    <g id="Group_595" data-name="Group 595" transform="translate(796.721 633.817)">
      <path id="Path_484" data-name="Path 484" d="M364.652,400.218a24.127,24.127,0,0,1-.577,5.315h0a23.423,23.423,0,0,1-3.777,8.452c-.063.065-.063.13-.128.13-.319.447-.64.831-.959,1.217h0c-.066.063-.066.128-.13.128a25.345,25.345,0,0,1-3.521,3.393,23.9,23.9,0,0,1-4.354,2.755,25.648,25.648,0,0,1-5.891,1.983,3.717,3.717,0,0,1-.833.13c-.258.063-.514.063-.768.128-.386.063-.77.063-1.154.126a15.4,15.4,0,0,1-1.729.066,10.615,10.615,0,0,1-1.471-.066,18.121,18.121,0,0,1-2.627-.319c-.768-.128-1.6-.321-2.369-.512a23.944,23.944,0,0,1-11.141-6.851c-.449-.449-.833-.962-1.217-1.41a24.492,24.492,0,0,1-4.035-7.685,22.77,22.77,0,0,1-1.089-6.979A23.9,23.9,0,0,1,330.459,378.7a22.68,22.68,0,0,0-1.92,2.883l-.186.186a21.013,21.013,0,0,0-7.813,16.328,19.1,19.1,0,0,0,.449,4.292c0,.128.063.188.063.319a2.237,2.237,0,0,1,.13.643,6,6,0,0,1,.186.64,14.352,14.352,0,0,0,.64,1.79c.063.13.128.321.186.451.128.319.256.575.384.9.186.384.384.7.577,1.024h0c.126.256.319.512.447.77a2.318,2.318,0,0,0,.449.64c.063.126.128.186.186.319.128.186.319.449.447.642a3.58,3.58,0,0,0,.449.574c.128.188.258.322.384.514a15.081,15.081,0,0,0,1.73,1.794,6.881,6.881,0,0,0,.766.64,3.6,3.6,0,0,0,.577.449,3.5,3.5,0,0,1,.577.447c.384.256.768.577,1.217.833.256.186.577.321.831.512.256.128.514.319.833.449a3.191,3.191,0,0,0,.449.186.5.5,0,0,0,.258.126.193.193,0,0,1,.126.065,2.605,2.605,0,0,0,.64.256h0c.065.063.128.063.258.13a3.639,3.639,0,0,0,.766.256,1.2,1.2,0,0,0,.449.128h0c.768.256,1.538.447,2.306.64.319.063.577.126.9.186.256.063.514.063.768.126.188,0,.386.066.64.066h1.986a23.044,23.044,0,0,0,5.955-.834l1.729-.575,1.345-.577h0c.186-.128.447-.186.64-.321l.384-.186c.128-.063.186-.126.319-.186l.961-.575a3.916,3.916,0,0,0,.64-.449,5.986,5.986,0,0,1,.64-.449c.188-.126.321-.256.514-.384.126-.126.256-.186.384-.319s.319-.258.449-.384c.186-.186.384-.321.577-.514l.51-.512a3.554,3.554,0,0,0,.449-.512c.065-.065.128-.128.128-.186a1.029,1.029,0,0,1,.256-.256,4.653,4.653,0,0,0,.514-.64,2.806,2.806,0,0,0,.318-.449h0a3.512,3.512,0,0,0,.386-.514.325.325,0,0,0,.128-.254c.186-.256.319-.512.512-.77s.321-.575.512-.831a1.368,1.368,0,0,1,.256-.386h0v-.063c.063-.186.186-.319.256-.51a2.3,2.3,0,0,0,.258-.577c.126-.256.186-.449.319-.706a4.363,4.363,0,0,1,.186-.51c.063-.13.13-.321.186-.449a.389.389,0,0,0,.063-.258c0-.063.066-.186.066-.254a6.486,6.486,0,0,0,.319-1.026c.063-.126.063-.319.128-.447.063-.256.126-.577.186-.833a3.253,3.253,0,0,0,.128-.768,4.98,4.98,0,0,0,.128-1.026c0-.254.063-.447.063-.7a2.13,2.13,0,0,1,.066-.64v-1.089a16.568,16.568,0,0,0-.066-1.792V396h0a3.493,3.493,0,0,1,.514.382c.126.13.319.258.447.384h0a8.745,8.745,0,0,1,.833-1.28l.063-.063a.232.232,0,0,0,.066.186c.126.7.254,1.473.318,2.239v.065C364.589,398.682,364.652,399.448,364.652,400.218Z" transform="translate(-316.884 -373.587)" fill="#e2001b"/>
      <path id="Path_485" data-name="Path 485" d="M360.942,396.937v1.087a2.237,2.237,0,0,1-.063.64c0,.256-.066.449-.066.7-.063.321-.063.642-.126,1.024-.065.258-.065.514-.13.77s-.128.575-.186.831c-.063.13-.063.321-.126.449a4.848,4.848,0,0,1-.321,1.024c0,.065-.063.186-.063.258s-.066.186-.066.256c-.063.128-.126.321-.186.447a4.138,4.138,0,0,1-.186.514,3.394,3.394,0,0,1-.319.7c-.063.186-.186.384-.256.577s-.186.319-.258.51v.066h0a1.321,1.321,0,0,1-.254.384,5.934,5.934,0,0,1-.512.833,5.411,5.411,0,0,1-.514.766.347.347,0,0,0-.128.258c-.126.186-.256.319-.373.512h0a2.66,2.66,0,0,0-.322.447c-.186.186-.321.45-.51.64a1.1,1.1,0,0,1-.258.258c-.063.063-.126.126-.126.186-.13.186-.321.319-.45.512l-.51.512c-.188.188-.386.319-.577.512-.128.128-.319.256-.449.384s-.256.186-.384.321c-.186.128-.319.256-.512.386a5.539,5.539,0,0,1-.642.447c-.186.126-.373.256-.64.447l-.959.577c-.128.063-.186.128-.321.186l-.384.188a3.071,3.071,0,0,1-.64.319h0l-1.343.575c-.577.188-1.09.386-1.73.577a19.966,19.966,0,0,1-5.955.833h-1.883c-.188,0-.386-.063-.642-.063a3.179,3.179,0,0,1-.768-.13c-.319-.063-.577-.128-.9-.186a15.539,15.539,0,0,1-2.306-.64h0a1.2,1.2,0,0,0-.449-.128c-.256-.063-.51-.186-.766-.256a.487.487,0,0,1-.258-.128h0c-.186-.065-.447-.188-.64-.256-.063,0-.063,0-.126-.063-.13-.066-.188-.066-.258-.13-.128-.063-.319-.126-.449-.186-.256-.126-.51-.256-.831-.447a6.094,6.094,0,0,1-.833-.512,13.813,13.813,0,0,1-1.217-.835,3.5,3.5,0,0,1-.577-.447c-.186-.128-.384-.319-.577-.449-.256-.186-.51-.447-.766-.64l-.321-.321-.386-.382-.186-.186c-.126-.13-.256-.321-.384-.45a3.618,3.618,0,0,1-.447-.51c-.128-.186-.256-.321-.386-.514s-.319-.373-.447-.575a3.816,3.816,0,0,1-.447-.642c-.065-.126-.13-.186-.188-.319a3.869,3.869,0,0,0-.447-.64c-.128-.258-.321-.514-.447-.768h0c-.188-.322-.386-.7-.577-1.026-.13-.321-.256-.577-.386-.9-.063-.128-.128-.321-.186-.449-.256-.575-.447-1.217-.64-1.792a6.1,6.1,0,0,1-.186-.64,2.28,2.28,0,0,1-.128-.642c0-.126-.065-.186-.065-.319a23.855,23.855,0,0,1-.447-4.292,21.015,21.015,0,0,1,7.811-16.329l.186-.186a24.043,24.043,0,0,0-3.137,11.846,26.048,26.048,0,0,0,.319,3.906,21.917,21.917,0,0,0,.9,3.651c.186.51.382,1.024.575,1.473a27.439,27.439,0,0,0,1.985,3.842c.065.063.065.128.13.186a.22.22,0,0,0,.063.126h0v.066h0a.33.33,0,0,1,.128.254h0l.384.577h0c.065.128.128.188.186.319h0c.065.13.186.258.258.386h0c.063.065.063.128.126.186l.065.065h0a1.431,1.431,0,0,0,.256.319c.063.063.126.128.126.186h0a4.048,4.048,0,0,0,.514.514l.384.382h0a8.794,8.794,0,0,0,1.729,1.345h0a11.783,11.783,0,0,0,3.9,1.666h0c.188.063.322.063.514.128.126,0,.256.063.384.063a11.051,11.051,0,0,0,2.053.188,11.92,11.92,0,0,0,3.074-.386,12.807,12.807,0,0,0,5.955-21.514,24.293,24.293,0,0,1,10.245,3.137,2.677,2.677,0,0,0,.449.258,17.445,17.445,0,0,1,1.794,1.217l.063.063h0v.186A3.639,3.639,0,0,1,360.942,396.937Z" transform="translate(-315.478 -372.482)" fill="#f67c0e"/>
      <path id="Path_486" data-name="Path 486" d="M325.369,402.894v.962a20.715,20.715,0,0,1,9.116-27.842q.4-.2.81-.389l4.161,7.62A20.645,20.645,0,0,0,325.369,402.894Z" transform="translate(-313.011 -375.495)" fill="#f67c0e"/>
      <path id="Path_487" data-name="Path 487" d="M351.15,387.129a21.327,21.327,0,0,0-4.994-.575,22.635,22.635,0,0,0-11.462,3.137h0a23.333,23.333,0,0,0-7.3,6.979,18.766,18.766,0,0,0-1.6,2.947.213.213,0,0,1-.065.126c-.063.128-.126.321-.186.45a.231.231,0,0,1,.065-.188h0v-.128c.063-.256.126-.514.186-.833a12.627,12.627,0,0,1,.449-1.471,21.461,21.461,0,0,1,3.521-6.661h0a22.6,22.6,0,0,1,9.989-7.427l-.384-.7h0l-1.985-3.715-.256-.447a1.284,1.284,0,0,1,.512-.256,22.546,22.546,0,0,1,10.887-2.818c.766,0,1.534.063,2.239.128l.254,6.081v1.283Z" transform="translate(-311.514 -375.545)" fill="#e2001b"/>
      <path id="Path_488" data-name="Path 488" d="M359.421,383.065a25.037,25.037,0,0,0-3.714-1.794h0a25.515,25.515,0,0,0-5.379-1.343l.065.9.128,3.842.063,1.28a23.414,23.414,0,0,0-5.634-.7,22.75,22.75,0,0,0-9.156,1.92h0a23.514,23.514,0,0,0-5.507,3.458h0c-.577.514-1.154,1.026-1.664,1.538a25.881,25.881,0,0,1,6.211-2.306h0a25.037,25.037,0,0,1,5.827-.7h.128a25.867,25.867,0,0,1,14.024,4.106,16.422,16.422,0,0,1,1.343.961l.514-.833,2.239-3.395.319-.514.7-1.087.9-1.41.447-.7.188-.321.186-.319.447-.7A28.489,28.489,0,0,0,359.421,383.065Zm-6.787-2.56h.063c.065,0,.065,0,.128.063C352.761,380.568,352.7,380.5,352.633,380.5Z" transform="translate(-309.603 -372.826)" fill="#f67c0e"/>
    </g>
    <g id="Group_596" data-name="Group 596" transform="translate(810.103 653.922)">
      <path id="Path_489" data-name="Path 489" d="M331.155,390.509s-1.473.319-1.345-.384c0-.321.186-.384.321-.321,0-.126-.321-.512.384-.7.186-.321.384-.577.512-.77s.186-.51.768-.319a2.6,2.6,0,0,1,1.28.9c.321,0,.707.128.577.128l-.186.188s.186.126-.384.126a.2.2,0,0,0,.186.186c.128.128,0,.128,0,.186,0,0,.128.321-.186.186s-.319-.186-.386-.186c-.126,0-.319,0-.319.13s.319.319,0,.319c-.128.128.128.186,0,.186a5.284,5.284,0,0,1-1.089.7c-.319,0-.382-.128-.382-.186s.186-.186.382-.186c-.128-.13-.063-.186-.128-.186" transform="translate(-322.253 -387.954)" fill="#e2001b"/>
      <path id="Path_490" data-name="Path 490" d="M330.71,390.986c-.128,0-.577-.319-.319-.386.186-.186,1.15-.766,1.343-.894a.214.214,0,1,1,.222.366l-.036.018a6.868,6.868,0,0,1-1.217.9" transform="translate(-321.936 -386.886)" fill="#e2001b"/>
      <path id="Path_491" data-name="Path 491" d="M331.468,390.421c0-.186.188-.77.188-.9s.512-.186.384.373c-.186.514-.577.77-.577.514" transform="translate(-321.223 -387.032)" fill="#e2001b"/>
      <path id="Path_492" data-name="Path 492" d="M332.246,389.35a22.891,22.891,0,0,1,2.944,0,3.688,3.688,0,0,1,.9,2.818c-.186,1.28-.577,1.538-2.371,1.794a5.5,5.5,0,0,0-.321-1.794c-.186-.321-.766-.961-.959-.961,0,.321-.128,1.154-.128,1.154s-.9.128-.961-.13v-1.343a12.357,12.357,0,0,0,.9-.9c.126.128.186.514,1.087.384,0,.13-1.087.258-1.087-1.024" transform="translate(-321.294 -387.117)" fill="#e2001b"/>
      <path id="Path_493" data-name="Path 493" d="M331.671,390.124s-.9.7-1.087.9c-.128.186-.188.961.9.961a8.123,8.123,0,0,0,.186-1.857" transform="translate(-321.81 -386.607)" fill="#e2001b"/>
      <path id="Path_494" data-name="Path 494" d="M330.159,391.075c-.318,0-.51-.13-.51-.321a.572.572,0,0,1,.7-.386,1,1,0,0,1,.7,1.09,2.035,2.035,0,0,0,1.345.577c.7,0,1.089,0,1.089.186V393.5a6.286,6.286,0,0,1-2.754-1.345.924.924,0,0,1-.319-.7c0-.321-.186-.386-.256-.386" transform="translate(-322.348 -386.469)" fill="#e2001b"/>
      <path id="Path_495" data-name="Path 495" d="M329.928,390.835c-.321,0-1.283.768-.577,1.087l.384-.373s-.186.512.186.575c.386.128.186-.186.386-.186.126.186.126.321.318.321s.188-.577,0-.9a.694.694,0,0,0-.7-.514" transform="translate(-322.69 -386.166)" fill="#e2001b"/>
      <path id="Path_496" data-name="Path 496" d="M332.139,390.915v2.562a3.417,3.417,0,0,0,.9-.512c0-.384-.186-2.053-.9-2.053" transform="translate(-320.803 -386.118)" fill="#e2001b"/>
      <path id="Path_497" data-name="Path 497" d="M330.874,391.942a8.093,8.093,0,0,0,1.536.9c-.126.128-.51.7-.7.575a3.647,3.647,0,0,1-.833-1.471" transform="translate(-321.588 -385.48)" fill="#e2001b"/>
      <path id="Path_498" data-name="Path 498" d="M329.254,393.045h-1.28l-.063-.51h1.345Z" transform="translate(-323.426 -385.112)" fill="#e2001b"/>
      <path id="Path_499" data-name="Path 499" d="M334.315,393.016h4.738v-.64h-5.571Z" transform="translate(-319.97 -385.21)" fill="#e2001b"/>
      <path id="Path_500" data-name="Path 500" d="M333.417,392.384c.13-.126.77.384.577.514q-1.006.435-2.053.768a.342.342,0,0,1,.128-.577c.065-.128,1.024-.447,1.345-.7" transform="translate(-320.994 -385.218)" fill="#e2001b"/>
      <path id="Path_501" data-name="Path 501" d="M331.93,393.315c-.186-.13-1.28.961-.766,1.087a12.868,12.868,0,0,1,1.983.514c.321-.13.514-.384.514-.514.186,0,.51.321.766.186a5.941,5.941,0,0,0,1.666-1.28,3.883,3.883,0,0,0-1.152-.577c-.256-.126-2.053.962-3.011.577" transform="translate(-321.492 -384.996)" fill="#e2001b"/>
      <path id="Path_502" data-name="Path 502" d="M332.5,394.212c.13,0,1.538.512,1.867.512.373-.13.373-.386.575-.386s.321.186.575,0a9,9,0,0,0,1.089-.894c0,.186,0,.768-1.28,1.343a27.637,27.637,0,0,0-4.417,1.857,6.5,6.5,0,0,0,.766-.186,1.092,1.092,0,0,1,.384,1.152c-.126.706-.577,1.794-.577,2.053v1.857c0,.13.321.961-.126.9s-.577-.128-.768,0c-.188,0-.512.319-.7.186-.321,0-.7-.186-.7-.319s.321-.128.577-.186c.321-.128.384-.384.9-.577,0-.319-.186-2.751-.186-3.265s-.188-1.536.128-1.985c.256-.449,1.41-2.113,1.92-2.051" transform="translate(-322.639 -384.548)" fill="#e2001b"/>
      <path id="Path_503" data-name="Path 503" d="M332.377,395.177c0,.188.9,2.37,1.28,2.37a26.219,26.219,0,0,1,4.675-.514c.188.322.575.77.575,1.09,0,0,.13.7,0,.77a.77.77,0,0,0,.514-.322,4.675,4.675,0,0,0,0-1.345c0-.186.51-1.087-.13-.959a20.71,20.71,0,0,1-2.816-.128,4.779,4.779,0,0,0-2.051-.188,2.345,2.345,0,0,0-.706.77c-.128,0-.186-.128,0-.514a6.427,6.427,0,0,0,.514-2.053c-.321.13-1.857,1.026-1.857,1.026" transform="translate(-320.658 -384.107)" fill="#e2001b"/>
      <path id="Path_504" data-name="Path 504" d="M332.2,392.7a.732.732,0,0,0,.186.384l-2.816-.188s-.321-.186-.186-.318Z" transform="translate(-322.531 -385.085)" fill="#e2001b"/>
      <path id="Path_505" data-name="Path 505" d="M329.345,392.732h2.819s-.188-.321-.322-.514h-2.623s-.321,0-.321.577c.063.128.256.319.447-.063" transform="translate(-322.814 -385.308)" fill="#e2001b"/>
      <path id="Path_506" data-name="Path 506" d="M328.923,393.269h.575s.188-.128,0-.319-.575-.384-.321-.768c-.321,0-.7-.128-.577.768h-.318a.748.748,0,0,0-.77-.512,9.781,9.781,0,0,0-2.37.7,17.7,17.7,0,0,0,2.37.514.954.954,0,0,0,.77-.514h.186s.126.384.186.514v.577a.277.277,0,0,0-.134.371l0,.013c0,.319.188.319.319.319s.13-.126.386-.126c.128-.13,0-.514-.188-.577v-.386s.188-.186.188-.321c-.128-.186-.319-.063-.319-.256" transform="translate(-325.143 -385.335)" fill="#e2001b"/>
      <path id="Path_507" data-name="Path 507" d="M330.488,395.6h0a1.145,1.145,0,0,0,.319-.384h0v-1.664c0-.386-.7-.706-.77-.706h0a.7.7,0,0,1-.373.188.585.585,0,0,1-.514-.188h0c-.577,0-.9.706-.9.77h0a6.1,6.1,0,0,0,0,1.536c0,.186.186.384.319.514-.126.384-.7,2.625.13,2.944V399h1.985v-.384c.447-.447,0-2.426-.186-3.009m-2.307-2.053a.849.849,0,0,1,.706-.575.706.706,0,0,0,.577.186c.186,0,.384-.186.51-.186.186.126.577.319.577.575v1.666c0,.126-.128.186-.186.319H330v-.77h-1.28v.706h-.322a.461.461,0,0,1-.186-.386v-1.534m1.41,4.608h-.384a.192.192,0,1,1,0-.384h.384a.2.2,0,0,1,.186.186.282.282,0,0,1-.186.186m.768.186-.961-1.087-.9,1.087h0c-.577-.186-.186-1.985,0-2.751h1.833c.188.766.514,2.426,0,2.751" transform="translate(-323.25 -384.916)" fill="#e2001b"/>
      <path id="Path_508" data-name="Path 508" d="M329.946,395.22a.375.375,0,0,0-.126-.512h-1.154c-.384,0-.319.512-.319.512l.7.577a1.3,1.3,0,0,0,.9-.577" transform="translate(-323.158 -383.764)" fill="#e2001b"/>
      <path id="Path_509" data-name="Path 509" d="M329.056,395.656l.7.766s-.128-.959-.128-1.28c-.13.13-.577.514-.577.514" transform="translate(-322.716 -383.495)" fill="#e2001b"/>
      <path id="Path_510" data-name="Path 510" d="M328.471,395.142c0,.321-.126,1.28-.126,1.28l.7-.766c.065,0-.319-.384-.577-.514" transform="translate(-323.157 -383.495)" fill="#e2001b"/>
      <path id="Path_511" data-name="Path 511" d="M329.759,393.976h.128v-.128a.126.126,0,0,0-.125-.128h-1.09a.127.127,0,0,0-.13.125v.131Z" transform="translate(-323.035 -384.377)" fill="#e2001b"/>
      <path id="Path_512" data-name="Path 512" d="M328.353,396.644h-.126v.13a.125.125,0,0,0,.123.126h1.99a.125.125,0,0,0,.13-.122v-.134h-2.116Z" transform="translate(-323.23 -382.563)" fill="#e2001b"/>
    </g>
  </g>
</svg>
