<svg id="Group_593" data-name="Group 593" xmlns="http://www.w3.org/2000/svg" width="54.748" height="50.456" viewBox="0 0 54.748 50.456">
  <path id="Path_476" data-name="Path 476" d="M254.334,374.623l24.691,3.221-5.855,20.495Z" transform="translate(-254.042 -374.623)" fill="#cb2056"/>
  <path id="Path_477" data-name="Path 477" d="M273.042,376.8l18.347,24.4-21.175,10.15-2.638-10.735a16.025,16.025,0,0,1,.391-6.928Z" transform="translate(-247.182 -373.478)" fill="#cb2056"/>
  <path id="Path_478" data-name="Path 478" d="M285.908,396.623l-6.831-9.563,11.515-1.951Z" transform="translate(-241.018 -369.103)" fill="#9e0c1a"/>
  <path id="Path_479" data-name="Path 479" d="M287.87,385.11l4.3,4.587h-6.246Z" transform="translate(-237.417 -369.103)" fill="#9e0c1a"/>
  <path id="Path_480" data-name="Path 480" d="M271.661,401.978l17.468-8.685-.585,2.05Z" transform="translate(-244.922 -364.796)" fill="#cc241d"/>
  <path id="Path_481" data-name="Path 481" d="M269.2,391.567l-7.32,24.593L273,407.37Z" transform="translate(-250.071 -365.704)" fill="#890c17"/>
  <path id="Path_482" data-name="Path 482" d="M264,386.385l-7.124-9.076-2.731.1Z" transform="translate(-254.143 -373.209)" fill="#9e0c1a"/>
  <path id="Path_483" data-name="Path 483" d="M267.4,391.51c.063.823.156,1.355.156,1.355L270.2,403.6l21.175-10.15-.192-.256Z" transform="translate(-247.163 -365.734)" fill="#b30a1b"/>
</svg>
