<svg xmlns="http://www.w3.org/2000/svg" width="79.144" height="39.137" viewBox="0 0 79.144 39.137">
  <g id="Group_1185" data-name="Group 1185" transform="translate(-6624 -3402)">
    <rect id="Rectangle_333" data-name="Rectangle 333" width="79.144" height="39.137" rx="6" transform="translate(6624 3402)" fill="#f3fcff"/>
    <g id="UnionPay_logo" transform="translate(6640 3406.856)">
      <path id="Path_640" data-name="Path 640" d="M9.211,0H20.949a2.287,2.287,0,0,1,2.276,2.98L17.76,26.444a3.989,3.989,0,0,1-3.666,2.975H2.356A2.287,2.287,0,0,1,.08,26.444L5.548,2.98A3.979,3.979,0,0,1,9.211,0" transform="translate(0)" fill="#e21836"/>
      <path id="Path_641" data-name="Path 641" d="M67.685,0h13.5c1.638,0,.9,1.336.514,2.98L76.234,26.444c-.383,1.638-.264,2.975-1.906,2.975H60.83a2.281,2.281,0,0,1-2.272-2.975L64.022,2.98A3.987,3.987,0,0,1,67.685,0" transform="translate(-47.713)" fill="#00447c"/>
      <path id="Path_642" data-name="Path 642" d="M138.123,0h11.739a2.285,2.285,0,0,1,2.275,2.98l-5.464,23.464A3.991,3.991,0,0,1,143,29.42H131.27a2.283,2.283,0,0,1-2.275-2.975L134.46,2.98A3.978,3.978,0,0,1,138.123,0" transform="translate(-105.186)" fill="#007b84"/>
      <path id="Path_643" data-name="Path 643" d="M35.7,40.672a12.614,12.614,0,0,1-1.678-.027c-.044.208-.858,3.966-.861,3.969a2.751,2.751,0,0,1-.736,1.652,1.312,1.312,0,0,1-.866.3.8.8,0,0,1-.9-.77l-.01-.173s.163-1.018.163-1.024.855-3.424,1.008-3.877a.33.33,0,0,0,.012-.052,12.566,12.566,0,0,1-1.979-.027c-.011.037-.052.249-.052.249l-.873,3.859-.075.327-.145,1.071a1.575,1.575,0,0,0,.187.8c.4.695,1.532.8,2.174.8a4.219,4.219,0,0,0,2.127-.5,3.151,3.151,0,0,0,1.36-2.125l.1-.383s.881-3.556,1.03-4.019A.162.162,0,0,1,35.7,40.672Zm3,2.869a2.326,2.326,0,0,0-.949.222c-.126.065-.246.14-.372.215l.114-.411-.062-.069c-.739.15-.9.17-1.587.266l-.057.038a20.194,20.194,0,0,1-.443,2.443c-.112.476-.228.957-.344,1.432l.031.06c.7-.037.912-.037,1.52-.027l.049-.054c.077-.4.087-.488.258-1.29.08-.38.248-1.215.331-1.512a1.133,1.133,0,0,1,.445-.14c.341,0,.3.3.286.416-.015.2-.139.848-.266,1.406l-.085.36c-.059.266-.124.524-.183.788l.026.053c.69-.037.9-.037,1.489-.027l.069-.054c.106-.618.138-.783.326-1.683l.1-.413c.185-.809.277-1.219.138-1.554A.8.8,0,0,0,38.7,43.541Zm3.347.847c-.367.07-.6.117-.833.148s-.455.07-.809.12l-.028.025-.026.02c-.037.264-.063.492-.112.76s-.105.592-.209,1.045a4.107,4.107,0,0,1-.168.589,5.1,5.1,0,0,0-.184.581l.021.031.018.029c.331-.016.548-.027.77-.029s.453,0,.809,0l.031-.025.033-.028c.052-.307.059-.39.091-.54s.085-.383.217-.978c.062-.279.132-.558.2-.843s.137-.563.2-.843l-.01-.034Zm.008-1.142a1.343,1.343,0,0,0-1.311.137c-.392.266-.437.644-.1.843a1.339,1.339,0,0,0,1.3-.14C42.333,43.815,42.382,43.441,42.053,43.246ZM44.067,47.8a2.5,2.5,0,0,0,1.885-.737,3.341,3.341,0,0,0,.647-1.386,1.763,1.763,0,0,0-.157-1.589,1.734,1.734,0,0,0-1.414-.52,2.6,2.6,0,0,0-1.776.615,2.911,2.911,0,0,0-.788,1.533c-.127.556-.274,1.556.646,1.928A2.694,2.694,0,0,0,44.067,47.8Zm-.053-2.042c.155-.687.339-1.264.807-1.264.367,0,.394.429.23,1.119a3.081,3.081,0,0,1-.344.965.568.568,0,0,1-.441.287c-.049,0-.342,0-.347-.435A2.971,2.971,0,0,1,44.015,45.757Zm4.268,1.954.053-.054c.075-.4.087-.489.252-1.29.083-.38.254-1.215.334-1.512a1.118,1.118,0,0,1,.447-.14c.338,0,.3.3.284.416a13.536,13.536,0,0,1-.266,1.406l-.08.36c-.061.266-.128.524-.188.788l.026.053c.692-.037.894-.037,1.486-.027l.072-.054c.1-.618.132-.784.327-1.683l.093-.414c.186-.809.279-1.219.142-1.553a.812.812,0,0,0-.829-.465,2.315,2.315,0,0,0-.949.222c-.124.065-.248.14-.37.215l.106-.411-.057-.07c-.739.15-.908.17-1.589.266l-.052.038a20.915,20.915,0,0,1-.444,2.443c-.112.476-.228.957-.344,1.432l.031.06C47.467,47.7,47.676,47.7,48.283,47.71Zm5.083.027c.043-.212.3-1.471.3-1.471s.22-.923.234-.957a.547.547,0,0,1,.138-.134h.1a4.73,4.73,0,0,0,2.9-.626,3.087,3.087,0,0,0,1.151-1.833,2.768,2.768,0,0,0,.08-.638,1.341,1.341,0,0,0-.23-.815c-.434-.607-1.3-.618-2.295-.623l-.491,0c-1.276.016-1.788.011-2-.015-.018.093-.051.258-.051.258s-.457,2.119-.457,2.122L51.6,47.729C52.717,47.716,53.174,47.716,53.366,47.737Zm.847-3.764s.486-2.115.484-2.107l.016-.108.007-.083.194.02,1.026.088a.836.836,0,0,1,.445,1.063,1.546,1.546,0,0,1-.8,1.057,2.532,2.532,0,0,1-1.126.175h-.264ZM57.24,45.8c-.128.548-.276,1.548.639,1.9a1.787,1.787,0,0,0,.819.148,1.352,1.352,0,0,0,.782-.359l-.065.25.042.054c.658-.028.863-.028,1.576-.022l.065-.049c.1-.612.2-1.207.473-2.378.132-.561.264-1.117.4-1.676l-.021-.062c-.736.136-.933.166-1.642.266l-.054.044c-.007.057-.015.112-.022.166a1.012,1.012,0,0,0-.516-.425,1.972,1.972,0,0,0-1.691.615A2.87,2.87,0,0,0,57.24,45.8Zm1.547.033c.158-.675.339-1.246.808-1.246.3,0,.453.274.421.741-.025.116-.052.239-.085.378-.047.2-.1.4-.147.6a1.459,1.459,0,0,1-.173.35.811.811,0,0,1-.574.277c-.047,0-.336,0-.346-.427A2.926,2.926,0,0,1,58.787,45.829ZM66.864,43.6l-.057-.065c-.729.148-.861.171-1.53.262l-.049.049c0,.008,0,.02-.008.031l0-.011c-.5,1.15-.484.9-.89,1.807,0-.041,0-.067,0-.111l-.1-1.963-.064-.065c-.763.148-.781.171-1.486.262l-.055.049a.538.538,0,0,0-.012.077l0,.01a9.882,9.882,0,0,1,.155,1.061c.041.349.1.7.137,1.044.07.577.109.86.193,1.74-.476.786-.589,1.083-1.047,1.773l0,.007-.323.51a.244.244,0,0,1-.117.106.488.488,0,0,1-.211.03h-.179l-.266.884.912.016a1.124,1.124,0,0,0,1.053-.589l.574-.983h-.009l.06-.069C63.931,48.634,66.864,43.6,66.864,43.6ZM57.24,55.212h-.387l1.432-4.736h.475l.151-.488.015.542c-.018.335.246.633.939.583h.8l.276-.912h-.3c-.173,0-.254-.044-.244-.138l-.015-.552H58.9v0a20.808,20.808,0,0,0-2.2.123,2.594,2.594,0,0,0-.721.357l.145-.488H54.731l-.289.969-1.451,4.808h-.282l-.276.905H55.2l-.093.3h1.362l.091-.3h.382Zm-1.134-3.773a6.194,6.194,0,0,0-.636.248l.368-1.21h1.1l-.266.882A3.586,3.586,0,0,0,56.106,51.439Zm.021,1.729s-.346.044-.574.095a5.613,5.613,0,0,0-.646.283l.38-1.259H56.4Zm-.618,2.056H54.4l.321-1.063h1.1Zm2.665-2.937h1.595l-.229.742H57.923l-.243.811h1.414l-1.071,1.508a.44.44,0,0,1-.217.181.635.635,0,0,1-.287.083h-.392l-.269.889h1.026a1.247,1.247,0,0,0,1.081-.561l.734-1,.158,1.02a.48.48,0,0,0,.264.346.951.951,0,0,0,.359.153c.161.007.277.012.354.012h.5l.3-.995h-.2a.832.832,0,0,1-.344-.055.538.538,0,0,1-.051-.212l-.16-1.023h-.655l.287-.342h1.613l.248-.811H60.886l.232-.742h1.489l.276-.915H58.445ZM44.7,55.43l.372-1.238h1.53l.279-.921H45.354l.234-.762h1.5l.277-.892H43.617l-.271.892H44.2l-.227.762h-.853l-.283.937h.85l-.5,1.638a.391.391,0,0,0,.094.4.409.409,0,0,0,.274.2,1.649,1.649,0,0,0,.392.054h1.725l.307-1.02-.765.105C45.068,55.584,44.659,55.567,44.7,55.43Zm.175-5.928-.388.7a.814.814,0,0,1-.225.292.745.745,0,0,1-.347.052h-.2l-.27.9h.672a1.523,1.523,0,0,0,.69-.178c.127-.068.161-.029.259-.124l.227-.2h2.1l.278-.933H46.135l.268-.51Zm3.1,5.946c-.036-.052-.01-.142.045-.331l.573-1.9h2.04c.3,0,.512-.008.651-.018a1.335,1.335,0,0,0,.491-.165.916.916,0,0,0,.357-.329,2.8,2.8,0,0,0,.352-.8l.721-2.4-2.117.012a6.708,6.708,0,0,0-.939.2,3.839,3.839,0,0,0-.7.449l.191-.658H48.33L46.5,55.584a3.757,3.757,0,0,0-.119.51c0,.111.14.22.232.3a.834.834,0,0,0,.427.083c.163.012.4.02.717.02h1l.308-1.042-.9.085A.237.237,0,0,1,47.976,55.448Zm.988-3.511h2.143l-.136.427a1.534,1.534,0,0,0-.283,0H48.832Zm.429-1.432h2.161l-.156.514s-1.018-.01-1.181.02a2.411,2.411,0,0,0-1.137.508Zm1.625,3.288a.228.228,0,0,1-.085.132.425.425,0,0,1-.219.038h-.305l.018-.52h-1.27l-.052,2.542c0,.183.016.29.15.375a2.551,2.551,0,0,0,1.1.12h.8l.287-.951-.693.038-.23.013a.262.262,0,0,1-.095-.059c-.029-.029-.078-.011-.07-.195l.005-.652.726-.03a.942.942,0,0,0,.7-.249.78.78,0,0,0,.233-.432l.122-.577h-1Z" transform="translate(-23.425 -33.152)" fill="#fefefe"/>
    </g>
  </g>
</svg>
