<svg xmlns="http://www.w3.org/2000/svg" width="54.231" height="33.888" viewBox="0 0 54.231 33.888">
  <g id="UnionPay_logo" data-name="UnionPay logo" transform="translate(-431.307 -436.397)">
    <path id="Path_640" data-name="Path 640" d="M441.946,436.4h13.519a2.632,2.632,0,0,1,2.621,3.432l-6.294,27.024a4.593,4.593,0,0,1-4.222,3.426H434.051a2.632,2.632,0,0,1-2.621-3.426l6.3-27.024a4.581,4.581,0,0,1,4.219-3.432" fill="#d70028"/>
    <path id="Path_641" data-name="Path 641" d="M454.34,436.4h15.548c1.887,0,1.037,1.538.592,3.432l-6.294,27.024c-.441,1.886-.3,3.426-2.2,3.426H446.445a2.626,2.626,0,0,1-2.617-3.426l6.293-27.024a4.59,4.59,0,0,1,4.219-3.432" fill="#003668"/>
    <path id="Path_642" data-name="Path 642" d="M469.272,436.4h13.52a2.632,2.632,0,0,1,2.62,3.432l-6.293,27.024a4.6,4.6,0,0,1-4.23,3.427h-13.51a2.629,2.629,0,0,1-2.62-3.426l6.294-27.025a4.58,4.58,0,0,1,4.219-3.432" fill="#086971"/>
    <path id="Path_643" data-name="Path 643" d="M445.475,445.061a14.5,14.5,0,0,1-1.933-.032c-.05.24-.988,4.568-.991,4.572a3.166,3.166,0,0,1-.848,1.9,1.51,1.51,0,0,1-1,.346.922.922,0,0,1-1.03-.8.849.849,0,0,1-.007-.088l-.012-.2s.188-1.173.188-1.18.985-3.943,1.161-4.465a.377.377,0,0,0,.014-.06,14.455,14.455,0,0,1-2.279-.031c-.013.043-.06.287-.06.287l-1.006,4.444-.086.377-.167,1.234a1.815,1.815,0,0,0,.215.921c.461.8,1.765.921,2.5.921a4.853,4.853,0,0,0,2.45-.576,3.628,3.628,0,0,0,1.566-2.447l.115-.441s1.015-4.1,1.187-4.629A.161.161,0,0,1,445.475,445.061Zm3.455,3.3a2.67,2.67,0,0,0-1.093.256c-.145.074-.283.161-.428.247l.131-.473-.072-.08c-.851.173-1.036.2-1.827.307l-.066.043a23.309,23.309,0,0,1-.51,2.814c-.129.548-.263,1.1-.4,1.649l.035.07c.807-.043,1.051-.043,1.751-.032l.056-.062c.089-.46.1-.562.3-1.486.092-.437.285-1.4.381-1.741a1.289,1.289,0,0,1,.512-.161c.393,0,.346.345.33.479-.018.23-.16.977-.307,1.619l-.1.415c-.068.306-.142.6-.21.907l.03.061c.794-.042,1.036-.042,1.715-.031l.079-.062c.122-.712.159-.9.375-1.938l.116-.476c.213-.932.319-1.4.159-1.79A.922.922,0,0,0,448.93,448.365Zm3.855.975c-.423.081-.691.135-.96.171s-.524.08-.931.138l-.033.029-.029.023c-.043.3-.073.567-.129.875s-.121.682-.241,1.2a4.721,4.721,0,0,1-.194.678,6.038,6.038,0,0,0-.212.669l.025.036.02.033c.382-.018.632-.031.887-.033s.522,0,.932,0l.036-.029.038-.032c.06-.354.068-.449.1-.622s.1-.441.25-1.126c.072-.322.152-.643.231-.971s.158-.649.23-.971l-.011-.039Zm.009-1.315a1.547,1.547,0,0,0-1.51.158c-.451.306-.5.742-.115.971a1.543,1.543,0,0,0,1.5-.161c.448-.313.505-.743.126-.968Zm2.317,5.245a2.875,2.875,0,0,0,2.171-.849,3.843,3.843,0,0,0,.746-1.6,2.031,2.031,0,0,0-.181-1.83,2,2,0,0,0-1.629-.6,2.993,2.993,0,0,0-2.045.708,3.351,3.351,0,0,0-.908,1.766c-.146.64-.315,1.792.744,2.22A3.111,3.111,0,0,0,455.111,453.27Zm-.061-2.352c.179-.791.391-1.456.93-1.456.422,0,.454.495.265,1.289a3.532,3.532,0,0,1-.4,1.112.653.653,0,0,1-.507.33c-.057,0-.394,0-.4-.5a3.432,3.432,0,0,1,.11-.775Zm4.916,2.251.061-.062c.086-.461.1-.564.29-1.486.1-.438.293-1.4.385-1.742a1.3,1.3,0,0,1,.515-.161c.389,0,.345.346.327.479a15.619,15.619,0,0,1-.307,1.62l-.092.414c-.07.307-.147.6-.216.908l.03.061c.8-.043,1.029-.043,1.711-.031l.083-.062c.115-.712.152-.9.377-1.939l.107-.477c.214-.931.321-1.4.163-1.788a.934.934,0,0,0-.954-.536,2.666,2.666,0,0,0-1.093.256c-.143.075-.286.161-.427.247l.123-.473-.066-.081c-.851.173-1.046.2-1.83.307l-.06.044a24.174,24.174,0,0,1-.511,2.813c-.129.548-.263,1.1-.4,1.65l.036.069c.806-.044,1.047-.044,1.746-.033Zm5.854.031.346-1.694s.253-1.063.269-1.1a.646.646,0,0,1,.159-.154h.115a5.45,5.45,0,0,0,3.34-.721,3.558,3.558,0,0,0,1.326-2.111,3.2,3.2,0,0,0,.092-.735,1.542,1.542,0,0,0-.265-.938c-.5-.7-1.5-.712-2.643-.718h-.566c-1.469.018-2.059.013-2.3-.017-.021.107-.059.3-.059.3l-.526,2.444-1.318,5.438c1.287-.015,1.813-.015,2.034.01Zm.976-4.335.557-2.427.019-.124.008-.1.223.023,1.182.1a.964.964,0,0,1,.512,1.225,1.783,1.783,0,0,1-.921,1.217,2.919,2.919,0,0,1-1.3.2h-.3Zm3.487,2.1c-.147.631-.318,1.782.736,2.188a2.052,2.052,0,0,0,.943.17,1.556,1.556,0,0,0,.9-.413l-.075.288.048.062c.758-.032.994-.032,1.816-.025l.074-.057c.116-.7.231-1.39.545-2.739.152-.646.3-1.286.461-1.93l-.024-.071c-.848.156-1.075.191-1.891.306l-.063.051c-.008.065-.017.129-.025.191a1.169,1.169,0,0,0-.594-.49,2.272,2.272,0,0,0-1.948.709A3.3,3.3,0,0,0,470.283,450.967Zm1.782.038c.182-.778.39-1.435.93-1.435.346,0,.522.315.485.853-.028.134-.06.275-.1.435-.054.231-.115.461-.169.691a1.663,1.663,0,0,1-.2.4.935.935,0,0,1-.661.32c-.054,0-.387,0-.4-.492a3.42,3.42,0,0,1,.111-.78Zm9.3-2.572-.065-.075c-.84.17-.992.2-1.762.3l-.057.056a.06.06,0,0,1-.009.036v-.013c-.576,1.325-.558,1.037-1.025,2.081v-.128l-.115-2.26-.074-.075c-.879.17-.9.2-1.712.3l-.063.056a.66.66,0,0,0-.014.089v.011a11.206,11.206,0,0,1,.179,1.222c.047.4.115.806.158,1.2.08.664.125.99.222,2-.548.9-.678,1.247-1.206,2.042v.008l-.372.587a.281.281,0,0,1-.135.122.572.572,0,0,1-.243.035h-.206l-.306,1.018,1.05.018a1.293,1.293,0,0,0,1.213-.678l.661-1.132h-.01l.069-.08C477.989,454.231,481.367,448.433,481.367,448.433Zm-11.084,13.374h-.446l1.65-5.455h.547l.174-.562.017.624c-.021.386.283.729,1.081.672h.922l.318-1.051H474.2c-.2,0-.292-.05-.281-.159l-.017-.635H472.2a23.844,23.844,0,0,0-2.534.141,2.968,2.968,0,0,0-.83.412l.167-.563h-1.6l-.332,1.116-1.672,5.538h-.324l-.318,1.042h3.187l-.108.346h1.569l.105-.346h.44Zm-1.306-4.346a7.067,7.067,0,0,0-.732.286l.423-1.394h1.267l-.306,1.016A4.11,4.11,0,0,0,468.977,457.461Zm.024,1.992s-.4.05-.661.109a6.549,6.549,0,0,0-.744.326l.438-1.45h1.282Zm-.712,2.367h-1.277l.37-1.224h1.267Zm3.07-3.382H473.2l-.264.854H471.07l-.28.935h1.628l-1.233,1.736a.507.507,0,0,1-.25.209.737.737,0,0,1-.331.1h-.451l-.31,1.024h1.182a1.436,1.436,0,0,0,1.245-.646l.845-1.152.182,1.175a.555.555,0,0,0,.3.4,1.111,1.111,0,0,0,.414.176c.185.008.319.014.407.014H475l.346-1.146h-.231a.956.956,0,0,1-.4-.064.6.6,0,0,1-.058-.244l-.185-1.178h-.754l.33-.394h1.858l.286-.934h-1.712l.268-.855h1.714l.318-1.053h-5.111Zm-15.519,3.62.429-1.426h1.762l.321-1.061h-1.758l.269-.877h1.728l.319-1.028h-4.317l-.312,1.028h.984l-.262.877h-.982l-.326,1.079h.979l-.576,1.887a.452.452,0,0,0,.108.461.475.475,0,0,0,.316.23,1.858,1.858,0,0,0,.451.062h1.987l.353-1.175-.881.121C456.264,462.235,455.793,462.216,455.84,462.058Zm.2-6.828-.447.807a.935.935,0,0,1-.259.336.869.869,0,0,1-.4.06h-.23l-.311,1.036h.774a1.753,1.753,0,0,0,.795-.2c.146-.078.185-.033.3-.143l.261-.23h2.419l.32-1.074h-1.769l.309-.588Zm3.57,6.848c-.041-.059-.011-.163.052-.381l.66-2.188h2.35c.345,0,.589-.009.749-.021a1.53,1.53,0,0,0,.566-.19,1.049,1.049,0,0,0,.411-.379,3.211,3.211,0,0,0,.4-.921l.831-2.764-2.438.014a7.549,7.549,0,0,0-1.082.23,4.456,4.456,0,0,0-.806.517l.22-.758h-1.509l-2.107,7a4.242,4.242,0,0,0-.138.587c0,.128.162.254.268.346a.958.958,0,0,0,.491.1c.188.013.461.023.826.023h1.152l.355-1.2-1.037.1a.272.272,0,0,1-.218-.106Zm1.138-4.043h2.468l-.156.492a1.773,1.773,0,0,0-.326,0H460.6Zm.494-1.65h2.489l-.179.592s-1.173-.011-1.361.024a2.761,2.761,0,0,0-1.309.585Zm1.872,3.787a.26.26,0,0,1-.1.152.488.488,0,0,1-.252.044h-.352l.021-.6h-1.462l-.06,2.928c0,.211.018.334.172.432a2.945,2.945,0,0,0,1.267.138h.922l.33-1.1-.8.044-.265.015a.309.309,0,0,1-.109-.068c-.034-.034-.09-.013-.081-.225l.006-.751.836-.035a1.083,1.083,0,0,0,.806-.286.9.9,0,0,0,.269-.5l.14-.664h-1.152Z" fill="#fff"/>
  </g>
</svg>
