<svg xmlns="http://www.w3.org/2000/svg" width="71.956" height="23.289" viewBox="0 0 71.956 23.289">
  <g id="g4158" transform="translate(-422.892 -379.503)">
    <path id="polygon9" d="M454.074,402.462h-5.829l3.646-22.544h5.828Z" fill="#004790"/>
    <path id="path11" d="M475.206,380.464a14.366,14.366,0,0,0-5.229-.961c-5.759,0-9.811,3.071-9.835,7.459-.048,3.238,2.9,5.036,5.108,6.117,2.256,1.1,3.022,1.823,3.022,2.8-.023,1.511-1.822,2.207-3.5,2.207a11.6,11.6,0,0,1-5.47-1.2l-.768-.361-.815,5.061a17.735,17.735,0,0,0,6.5,1.2c6.117,0,10.1-3.022,10.146-7.7.023-2.566-1.534-4.532-4.893-6.14-2.039-1.031-3.288-1.728-3.288-2.783.024-.959,1.056-1.941,3.358-1.941a9.9,9.9,0,0,1,4.343.863l.526.239.794-4.867Z" fill="#004790"/>
    <path id="path13" d="M482.953,394.473c.479-1.295,2.327-6.308,2.327-6.308-.024.049.479-1.319.767-2.158l.408,1.943s1.1,5.4,1.342,6.523Zm7.2-14.558h-4.509a2.88,2.88,0,0,0-3.046,1.871l-8.659,20.673h6.117l1.223-3.381h7.486c.167.791.691,3.381.691,3.381h5.4l-4.7-22.544Z" fill="#004790"/>
    <path id="path15" d="M443.375,379.915l-5.708,15.374-.624-3.118a17.251,17.251,0,0,0-8.062-9.45l5.229,19.715h6.164l9.162-22.521Z" fill="#004790"/>
    <path id="path17" d="M432.366,379.915h-9.379l-.1.461c7.315,1.871,12.161,6.38,14.151,11.8L435,381.811a2.411,2.411,0,0,0-2.638-1.9Z" fill="#fd9300"/>
  </g>
</svg>
